<?xml version="1.0" encoding="UTF-8" standalone="no"?>
<svg width="120px" height="120px" viewBox="0 0 120 120" version="1.1" xmlns="http://www.w3.org/2000/svg" xmlns:xlink="http://www.w3.org/1999/xlink" xmlns:sketch="http://www.bohemiancoding.com/sketch/ns">
    <!-- Generator: Sketch 3.4.4 (17249) - http://www.bohemiancoding.com/sketch -->
    <title>free-trial-get-our-apps-120x120</title>
    <desc>Created with Sketch.</desc>
    <defs></defs>
    <g id="Page-1" stroke="none" stroke-width="1" fill="none" fill-rule="evenodd" sketch:type="MSPage">
        <g id="free-trial-get-our-apps-120x120" sketch:type="MSArtboardGroup">
            <g id="Group" sketch:type="MSLayerGroup" transform="translate(39.000000, 24.000000)">
                <path d="M43,5.8 C43,3 40.7,0.7 37.9,0.7 L21.5,0.7 L5.1,0.7 C2.3,0.7 0,3 0,5.8 L0,66.3 C0,69.1 2.3,71.4 5.1,71.4 L21.5,71.4 L37.9,71.4 C40.7,71.4 43,69.1 43,66.3 L43,5.8 L43,5.8 Z" id="Shape" fill="#3C6C93" sketch:type="MSShapeGroup"></path>
                <rect id="Rectangle-path" fill="#F8C058" sketch:type="MSShapeGroup" x="4.1" y="8.4" width="34.9" height="46.9"></rect>
                <circle id="Oval" fill="#5F86A5" sketch:type="MSShapeGroup" cx="21.5" cy="63" r="3.5"></circle>
            </g>
            <path d="M51.8,42.9 L48,42.9 C46.7,42.9 45.7,41.9 45.7,40.6 L45.7,36.9 C45.7,35.6 46.7,34.6 48,34.6 L51.7,34.6 C53,34.6 54,35.6 54,36.9 L54,40.6 C54,41.9 53,42.9 51.8,42.9 L51.8,42.9 Z" id="Shape" fill="#F68A00" sketch:type="MSShapeGroup"></path>
            <path d="M62.3,42.9 L58.6,42.9 C57.3,42.9 56.3,41.9 56.3,40.6 L56.3,36.9 C56.3,35.6 57.3,34.6 58.6,34.6 L62.3,34.6 C63.6,34.6 64.6,35.6 64.6,36.9 L64.6,40.6 C64.6,41.9 63.6,42.9 62.3,42.9 L62.3,42.9 Z" id="Shape" fill="#F68A00" sketch:type="MSShapeGroup"></path>
            <path d="M72.9,42.9 L69.2,42.9 C67.9,42.9 66.9,41.9 66.9,40.6 L66.9,36.9 C66.9,35.6 67.9,34.6 69.2,34.6 L72.9,34.6 C74.2,34.6 75.2,35.6 75.2,36.9 L75.2,40.6 C75.1,41.9 74.1,42.9 72.9,42.9 L72.9,42.9 Z" id="Shape" fill="#F68A00" sketch:type="MSShapeGroup"></path>
            <path d="M51.8,53.5 L48,53.5 C46.7,53.5 45.7,52.5 45.7,51.2 L45.7,47.5 C45.7,46.2 46.7,45.2 48,45.2 L51.7,45.2 C53,45.2 54,46.2 54,47.5 L54,51.2 C54,52.5 53,53.5 51.8,53.5 L51.8,53.5 Z" id="Shape" fill="#F68A00" sketch:type="MSShapeGroup"></path>
            <path d="M62.3,53.5 L58.6,53.5 C57.3,53.5 56.3,52.5 56.3,51.2 L56.3,47.5 C56.3,46.2 57.3,45.2 58.6,45.2 L62.3,45.2 C63.6,45.2 64.6,46.2 64.6,47.5 L64.6,51.2 C64.6,52.5 63.6,53.5 62.3,53.5 L62.3,53.5 Z" id="Shape" fill="#3E5569" sketch:type="MSShapeGroup"></path>
            <path d="M72.9,53.5 L69.2,53.5 C67.9,53.5 66.9,52.5 66.9,51.2 L66.9,47.5 C66.9,46.2 67.9,45.2 69.2,45.2 L72.9,45.2 C74.2,45.2 75.2,46.2 75.2,47.5 L75.2,51.2 C75.1,52.5 74.1,53.5 72.9,53.5 L72.9,53.5 Z" id="Shape" fill="#F68A00" sketch:type="MSShapeGroup"></path>
            <path d="M51.8,64.1 L48,64.1 C46.7,64.1 45.7,63.1 45.7,61.8 L45.7,58.1 C45.7,56.8 46.7,55.8 48,55.8 L51.7,55.8 C53,55.8 54,56.8 54,58.1 L54,61.8 C54,63 53,64.1 51.8,64.1 L51.8,64.1 Z" id="Shape" fill="#F68A00" sketch:type="MSShapeGroup"></path>
            <path d="M62.3,64.1 L58.6,64.1 C57.3,64.1 56.3,63.1 56.3,61.8 L56.3,58.1 C56.3,56.8 57.3,55.8 58.6,55.8 L62.3,55.8 C63.6,55.8 64.6,56.8 64.6,58.1 L64.6,61.8 C64.6,63 63.6,64.1 62.3,64.1 L62.3,64.1 Z" id="Shape" fill="#F68A00" sketch:type="MSShapeGroup"></path>
            <path d="M72.9,64.1 L69.2,64.1 C67.9,64.1 66.9,63.1 66.9,61.8 L66.9,58.1 C66.9,56.8 67.9,55.8 69.2,55.8 L72.9,55.8 C74.2,55.8 75.2,56.8 75.2,58.1 L75.2,61.8 C75.1,63 74.1,64.1 72.9,64.1 L72.9,64.1 Z" id="Shape" fill="#F68A00" sketch:type="MSShapeGroup"></path>
            <path d="M51.8,74.6 L48,74.6 C46.7,74.6 45.7,73.6 45.7,72.3 L45.7,68.6 C45.7,67.3 46.7,66.3 48,66.3 L51.7,66.3 C53,66.3 54,67.3 54,68.6 L54,72.3 C54,73.6 53,74.6 51.8,74.6 L51.8,74.6 Z" id="Shape" fill="#F68A00" sketch:type="MSShapeGroup"></path>
            <path d="M62.3,74.6 L58.6,74.6 C57.3,74.6 56.3,73.6 56.3,72.3 L56.3,68.6 C56.3,67.3 57.3,66.3 58.6,66.3 L62.3,66.3 C63.6,66.3 64.6,67.3 64.6,68.6 L64.6,72.3 C64.6,73.6 63.6,74.6 62.3,74.6 L62.3,74.6 Z" id="Shape" fill="#F68A00" sketch:type="MSShapeGroup"></path>
            <path d="M72.9,74.6 L69.2,74.6 C67.9,74.6 66.9,73.6 66.9,72.3 L66.9,68.6 C66.9,67.3 67.9,66.3 69.2,66.3 L72.9,66.3 C74.2,66.3 75.2,67.3 75.2,68.6 L75.2,72.3 C75.1,73.6 74.1,74.6 72.9,74.6 L72.9,74.6 Z" id="Shape" fill="#F68A00" sketch:type="MSShapeGroup"></path>
        </g>
    </g>
</svg>