<?xml version="1.0" encoding="UTF-8" standalone="no"?>
<svg width="274px" height="274px" viewBox="0 0 274 274" version="1.1" xmlns="http://www.w3.org/2000/svg" xmlns:xlink="http://www.w3.org/1999/xlink" xmlns:sketch="http://www.bohemiancoding.com/sketch/ns">
    <!-- Generator: Sketch 3.4.4 (17249) - http://www.bohemiancoding.com/sketch -->
    <title>Group</title>
    <desc>Created with Sketch.</desc>
    <defs>
        <rect id="path-1" x="1.59669421" y="1.82479339" width="31.2495868" height="88.2743802"></rect>
    </defs>
    <g id="Final" stroke="none" stroke-width="1" fill="none" fill-rule="evenodd" sketch:type="MSPage">
        <g id="00-desktop-modal" sketch:type="MSArtboardGroup" transform="translate(-170.000000, -264.000000)">
            <g id="Group" sketch:type="MSLayerGroup" transform="translate(170.000000, 264.000000)">
                <circle id="Oval" fill="#EDEAE6" sketch:type="MSShapeGroup" cx="137" cy="137" r="137"></circle>
                <g transform="translate(35.495868, 68.710744)" id="Shape" sketch:type="MSShapeGroup">
                    <g fill="#1F85E0">
                        <path d="M113.821488,132.981818 L104.469421,132.981818 L84.6247934,132.981818 L63.4115702,132.981818 L51.7785124,132.981818 C47.9008264,132.981818 44.707438,136.403306 44.707438,141.649587 L78.6942149,141.649587 L84.6247934,141.649587 L85.7652893,141.649587 L94.2049587,141.649587 L114.049587,141.649587 L121.120661,141.649587 C120.892562,136.403306 117.699174,132.981818 113.821488,132.981818 L113.821488,132.981818 Z"></path>
                        <path d="M84.6247934,124.31405 L62.4991736,124.31405 L62.4991736,132.981818 L84.6247934,132.981818 L104.013223,132.981818 L104.013223,124.31405 L84.6247934,124.31405 Z"></path>
                        <path d="M160.809917,1.36859504 L84.6247934,1.36859504 L7.52727273,1.36859504 C3.64958678,1.36859504 0.228099174,4.3338843 0.228099174,8.21157025 L0.228099174,84.6247934 L0.228099174,105.838017 L0.228099174,115.646281 L0.228099174,117.014876 C0.228099174,120.892562 3.64958678,124.08595 7.52727273,124.08595 L63.1834711,124.08595 L84.3966942,124.08595 L104.241322,124.08595 L160.581818,124.08595 C164.459504,124.08595 167.880992,120.892562 167.880992,117.014876 L167.880992,115.646281 L167.880992,105.838017 L167.880992,84.6247934 L167.880992,8.21157025 C168.109091,4.3338843 164.687603,1.36859504 160.809917,1.36859504 L160.809917,1.36859504 Z M156.019835,84.6247934 L156.019835,100.135537 L84.6247934,100.135537 L14.1421488,100.135537 L14.1421488,84.6247934 L14.1421488,11.861157 L84.6247934,11.861157 L156.019835,11.861157 L156.019835,84.6247934 L156.019835,84.6247934 Z"></path>
                        <path d="M84.6247934,11.861157 L65.2363636,11.861157 L14.1421488,11.861157 L14.1421488,84.6247934 L14.1421488,100.135537 L65.2363636,100.135537 L84.6247934,100.135537 L156.019835,100.135537 L156.019835,84.6247934 L156.019835,11.861157 L84.6247934,11.861157 Z"></path>
                    </g>
                    <g transform="translate(0.000000, 1.000000)">
                        <path d="M113.821488,131.981818 L104.469421,131.981818 L84.6247934,131.981818 L63.4115702,131.981818 L51.7785124,131.981818 C47.9008264,131.981818 44.707438,135.403306 44.707438,140.649587 L78.6942149,140.649587 L84.6247934,140.649587 L85.7652893,140.649587 L94.2049587,140.649587 L114.049587,140.649587 L121.120661,140.649587 C120.892562,135.403306 117.699174,131.981818 113.821488,131.981818 L113.821488,131.981818 Z" fill="#5F86A5"></path>
                        <path d="M84.6247934,123.31405 L62.4991736,123.31405 L62.4991736,131.981818 L84.6247934,131.981818 L104.013223,131.981818 L104.013223,123.31405 L84.6247934,123.31405 Z" fill="#3C6C93"></path>
                        <path d="M160.809917,0.368595041 L84.6247934,0.368595041 L7.52727273,0.368595041 C3.64958678,0.368595041 0.228099174,3.3338843 0.228099174,7.21157025 L0.228099174,83.6247934 L0.228099174,104.838017 L0.228099174,114.646281 L0.228099174,116.014876 C0.228099174,119.892562 3.64958678,123.08595 7.52727273,123.08595 L63.1834711,123.08595 L84.3966942,123.08595 L104.241322,123.08595 L160.581818,123.08595 C164.459504,123.08595 167.880992,119.892562 167.880992,116.014876 L167.880992,114.646281 L167.880992,104.838017 L167.880992,83.6247934 L167.880992,7.21157025 C168.109091,3.3338843 164.687603,0.368595041 160.809917,0.368595041 L160.809917,0.368595041 Z M156.019835,83.6247934 L156.019835,99.1355372 L84.6247934,99.1355372 L14.1421488,99.1355372 L14.1421488,83.6247934 L14.1421488,10.861157 L84.6247934,10.861157 L156.019835,10.861157 L156.019835,83.6247934 L156.019835,83.6247934 Z" fill="#5F86A5"></path>
                        <path d="M84.6247934,10.861157 L65.2363636,10.861157 L14.1421488,10.861157 L14.1421488,83.6247934 L14.1421488,99.1355372 L65.2363636,99.1355372 L84.6247934,99.1355372 L156.019835,99.1355372 L156.019835,83.6247934 L156.019835,10.861157 L84.6247934,10.861157 Z" fill="#F8C058"></path>
                    </g>
                </g>
                <g id="NYT_T_16_" transform="translate(97.082645, 93.801653)" fill="#F68A00" sketch:type="MSShapeGroup">
                    <path d="M38.092562,1.36859504 C39.6892562,1.59669421 42.4264463,2.28099174 44.2512397,4.10578512 C46.3041322,6.15867769 46.7603306,9.12396694 46.0760331,11.861157 C45.3917355,14.3702479 45.1636364,15.738843 42.6545455,17.3355372 C40.1454545,19.1603306 37.4082645,18.9322314 37.4082645,18.9322314 L37.4082645,29.6528926 L42.6545455,33.9867769 L37.4082645,38.092562 L37.4082645,52.6909091 C37.4082645,52.6909091 42.1983471,49.7256198 45.6198347,43.1107438 C45.6198347,43.1107438 45.6198347,42.6545455 45.8479339,41.9702479 C46.0760331,43.7950413 45.8479339,47.4446281 43.7950413,52.0066116 C42.1983471,55.4280992 39.461157,58.8495868 36.0396694,60.9024793 C29.8809917,64.3239669 25.0909091,64.5520661 20.0727273,63.6396694 C14.1421488,62.4991736 8.89586777,59.077686 5.24628099,53.3752066 C2.73719008,49.2694215 1.59669421,44.707438 1.59669421,39.6892562 C1.82479339,29.8809917 9.12396694,21.2132231 17.7917355,18.0198347 C18.9322314,17.5636364 19.1603306,17.3355372 20.7570248,17.3355372 C20.0727273,17.7917355 19.3884298,18.4760331 18.2479339,18.9322314 C15.5107438,20.7570248 13.2297521,24.4066116 12.0892562,27.1438017 L28.7404959,19.8446281 L28.7404959,42.8826446 L15.2826446,49.4975207 C16.8793388,51.5504132 21.2132231,54.7438017 25.0909091,55.2 C31.7057851,55.8842975 35.5834711,52.9190083 35.5834711,52.9190083 L35.5834711,37.8644628 L30.3371901,33.7586777 L35.5834711,29.6528926 L35.5834711,18.9322314 C33.7586777,18.4760331 29.4247934,17.5636364 27.3719008,17.107438 C24.4066116,16.4231405 14.5983471,13.6859504 13.0016529,13.4578512 C11.4049587,13.2297521 9.58016529,13.2297521 8.43966942,14.3702479 C7.29917355,15.5107438 6.61487603,17.3355372 7.07107438,18.9322314 C7.29917355,19.8446281 7.98347107,20.3008264 8.43966942,20.985124 C8.43966942,20.985124 7.98347107,20.985124 6.84297521,20.3008264 C5.01818182,19.1603306 3.64958678,16.8793388 3.4214876,14.3702479 C3.19338843,10.9487603 4.56198347,7.7553719 7.52727273,5.47438017 C10.0363636,3.87768595 13.0016529,2.73719008 16.1950413,3.19338843 C20.985124,3.87768595 27.6,6.61487603 33.3024793,7.98347107 C35.5834711,8.43966942 37.4082645,8.6677686 38.7768595,7.7553719 C39.461157,7.29917355 40.8297521,5.93057851 39.6892562,4.10578512 C38.5487603,2.05289256 36.0396694,2.05289256 33.9867769,1.59669421 C36.4958678,1.36859504 36.7239669,1.36859504 38.092562,1.36859504 L38.092562,1.36859504 Z M18.2479339,47.2165289 L18.2479339,25.0909091 L11.6330579,28.0561983 C11.6330579,28.0561983 10.0363636,31.9338843 10.2644628,37.4082645 C10.492562,41.7421488 12.7735537,46.9884298 14.8264463,49.0413223 L18.2479339,47.2165289 L18.2479339,47.2165289 Z" id="Shape"></path>
                </g>
                <g id="Clipped" transform="translate(158.669421, 102.925620)">
                    <mask id="mask-2" sketch:name="SVGID_7_" fill="white">
                        <use xlink:href="#path-1"></use>
                    </mask>
                    <g id="SVGID_7_"></g>
                    <path d="M16.8793388,7.07107438 C13.0016529,7.07107438 10.2644628,10.9487603 10.2644628,15.0545455 L10.2644628,99.6793388 C10.2644628,103.557025 13.0016529,107.66281 16.8793388,107.66281 L39.6892562,107.66281 L39.6892562,7.29917355 L16.8793388,7.29917355 L16.8793388,7.07107438 Z" id="Shape" fill="#3E5569" sketch:type="MSShapeGroup" mask="url(#mask-2)"></path>
                </g>
                <path d="M233.029752,117.752066 C233.029752,113.87438 229.152066,109.768595 225.27438,109.768595 L202.236364,109.768595 L179.198347,109.768595 C175.320661,109.768595 172.355372,113.646281 172.355372,117.752066 L172.355372,202.37686 C172.355372,206.254545 175.320661,210.360331 179.198347,210.360331 L202.236364,210.360331 L225.27438,210.360331 C229.152066,210.360331 233.029752,206.482645 233.029752,202.37686 L233.029752,117.752066 L233.029752,117.752066 Z" id="Shape" fill="#3C6C93" sketch:type="MSShapeGroup"></path>
                <rect id="Rectangle-path" fill="#F8C058" sketch:type="MSShapeGroup" x="177.601653" y="122.08595" width="48.3570248" height="67.5173554"></rect>
                <circle id="Oval" fill="#5F86A5" sketch:type="MSShapeGroup" cx="202.464463" cy="199.867769" r="4.56198347"></circle>
                <g id="NYT_T_13_" transform="translate(188.322314, 134.859504)" fill="#F68A00" sketch:type="MSShapeGroup">
                    <path d="M22.5818182,1.59669421 C23.4942149,1.59669421 25.0909091,2.28099174 26.4595041,3.19338843 C27.8280992,4.3338843 28.0561983,6.38677686 27.6,7.98347107 C27.1438017,9.58016529 26.9157025,10.2644628 25.5471074,11.4049587 C23.9504132,12.5454545 22.353719,12.3173554 22.353719,12.3173554 L22.353719,18.9322314 L25.5471074,21.4413223 L22.353719,23.9504132 L22.353719,32.846281 C22.353719,32.846281 25.3190083,31.0214876 27.3719008,26.9157025 C27.3719008,26.9157025 27.3719008,26.6876033 27.6,26.231405 C27.8280992,27.3719008 27.6,29.6528926 26.4595041,32.3900826 C25.5471074,34.4429752 23.722314,36.7239669 21.6694215,37.8644628 C17.7917355,39.9173554 15.0545455,40.1454545 12.0892562,39.461157 C8.43966942,38.7768595 5.24628099,36.7239669 2.96528926,33.3024793 C1.36859504,30.7933884 0.684297521,28.0561983 0.684297521,24.8628099 C0.912396694,18.9322314 5.24628099,13.6859504 10.492562,11.6330579 C11.1768595,11.4049587 11.4049587,11.1768595 12.3173554,11.1768595 C11.861157,11.4049587 11.4049587,11.861157 10.9487603,12.3173554 C9.35206612,13.4578512 7.98347107,15.5107438 7.29917355,17.3355372 L17.5636364,12.7735537 L17.5636364,26.9157025 L9.35206612,31.0214876 C10.2644628,32.3900826 12.5454545,34.214876 15.0545455,34.4429752 C19.1603306,34.8991736 20.985124,33.0743802 20.985124,33.0743802 L20.985124,23.9504132 L17.7917355,21.4413223 L20.985124,18.9322314 L20.985124,12.3173554 C19.1603306,12.0892562 17.5636364,11.6330579 16.4231405,11.1768595 C14.5983471,10.7206612 8.89586777,9.12396694 7.7553719,8.89586777 C6.84297521,8.6677686 5.70247934,8.89586777 5.01818182,9.35206612 C4.3338843,10.0363636 3.87768595,11.1768595 4.3338843,12.0892562 C4.56198347,12.5454545 5.01818182,13.0016529 5.24628099,13.2297521 C5.24628099,13.2297521 5.01818182,13.2297521 4.3338843,12.7735537 C3.19338843,12.0892562 2.28099174,10.7206612 2.28099174,9.12396694 C2.05289256,7.07107438 2.96528926,5.01818182 4.79008264,3.64958678 C6.38677686,2.73719008 7.98347107,2.05289256 10.0363636,2.28099174 C13.0016529,2.73719008 16.8793388,4.3338843 20.5289256,5.24628099 C21.8975207,5.70247934 23.0380165,5.70247934 23.9504132,5.01818182 C24.4066116,4.79008264 25.0909091,3.87768595 24.6347107,2.73719008 C23.9504132,1.36859504 22.353719,1.36859504 21.2132231,1.14049587 C21.6694215,1.59669421 21.8975207,1.59669421 22.5818182,1.59669421 L22.5818182,1.59669421 Z M10.0363636,29.6528926 L10.0363636,15.9669421 L6.15867769,17.7917355 C6.15867769,17.7917355 5.24628099,20.0727273 5.47438017,23.4942149 C5.70247934,26.231405 6.84297521,29.1966942 7.98347107,30.5652893 L10.0363636,29.6528926 L10.0363636,29.6528926 Z" id="Shape"></path>
                </g>
            </g>
        </g>
    </g>
</svg>