<?xml version="1.0" encoding="UTF-8" standalone="no"?>
<svg width="120px" height="120px" viewBox="0 0 120 120" version="1.1" xmlns="http://www.w3.org/2000/svg" xmlns:xlink="http://www.w3.org/1999/xlink" xmlns:sketch="http://www.bohemiancoding.com/sketch/ns">
    <!-- Generator: Sketch 3.4.4 (17249) - http://www.bohemiancoding.com/sketch -->
    <title>free-trial-where-to-go-120x120</title>
    <desc>Created with Sketch.</desc>
    <defs></defs>
    <g id="Page-1" stroke="none" stroke-width="1" fill="none" fill-rule="evenodd" sketch:type="MSPage">
        <g id="free-trial-where-to-go-120x120" sketch:type="MSArtboardGroup">
            <path d="M58.1,92.7 L58.1,84.7" id="Shape" stroke="#F68A00" stroke-width="6" sketch:type="MSShapeGroup"></path>
            <path d="M80.5,30.7 C92.8,43 92.8,63.1 80.5,75.4 C68.2,87.7 48.1,87.7 35.8,75.4" id="Shape" stroke="#F7B53B" stroke-width="6" sketch:type="MSShapeGroup"></path>
            <path d="M80.5,30.7 C92.8,43 92.8,63.1 80.5,75.4 C68.2,87.7 48.1,87.7 35.8,75.4" id="Shape" stroke="#F7B53B" stroke-width="6" sketch:type="MSShapeGroup"></path>
            <path d="M58.1,90.2 C54.3,90.2 51,92.3 49.2,95.3 L67,95.3 C65.2,92.3 61.9,90.2 58.1,90.2 L58.1,90.2 Z" id="Shape" fill="#F7B53B" sketch:type="MSShapeGroup"></path>
            <g id="Group" sketch:type="MSLayerGroup" transform="translate(30.000000, 25.000000)">
                <path d="M55.3,28.1 C55.3,20.6 52.3,13.8 47.3,8.9 L8.9,47.3 C13.8,52.2 20.6,55.3 28.1,55.3 C43.1,55.2 55.3,43.1 55.3,28.1 L55.3,28.1 Z" id="Shape" fill="#3C6C93" sketch:type="MSShapeGroup"></path>
                <path d="M28.1,0.9 C13.1,0.9 0.9,13.1 0.9,28.1 C0.9,35.6 3.9,42.4 8.9,47.3 L47.3,8.9 C42.4,3.9 35.6,0.9 28.1,0.9 L28.1,0.9 Z" id="Shape" fill="#5F86A5" sketch:type="MSShapeGroup"></path>
            </g>
        </g>
    </g>
</svg>