<?xml version="1.0" encoding="utf-8"?>
<!-- Generator: Adobe Illustrator 18.0.0, SVG Export Plug-In . SVG Version: 6.00 Build 0)  -->
<!DOCTYPE svg PUBLIC "-//W3C//DTD SVG 1.1//EN" "http://www.w3.org/Graphics/SVG/1.1/DTD/svg11.dtd">
<svg version="1.1" id="Layer_1" xmlns="http://www.w3.org/2000/svg" xmlns:xlink="http://www.w3.org/1999/xlink" x="0px" y="0px"
	 viewBox="0 0 65.4 15" enable-background="new 0 0 65.4 15" xml:space="preserve">
<g>
	<g id="NYT_T_6_">
		<g>
			<g>
				<g>
					<g>
						<path fill="#FFFFFF" d="M9.2,0.3c0.4,0,0.9,0.2,1.4,0.6C11,1.3,11.1,2,10.9,2.6c-0.1,0.5-0.3,0.8-0.9,1.2
							C9.5,4.2,8.8,4.2,8.8,4.2v2.4L10,7.5L8.8,8.4v3.2c0,0,1.2-0.7,1.9-2.1c0,0,0-0.1,0.1-0.2c0.1,0.4,0,1.2-0.4,2.2
							c-0.3,0.8-1,1.5-1.7,2c-1.4,0.8-2.4,0.8-3.5,0.6c-1.3-0.3-2.5-1-3.3-2.3c-0.6-0.9-0.8-1.9-0.8-3C1.2,6.6,2.8,4.7,4.7,4
							C4.9,3.9,5,3.9,5.3,3.8C5.1,3.9,5,4.1,4.8,4.2C4.2,4.6,3.6,5.4,3.4,6l3.6-1.6v5.1l-2.9,1.5c0.3,0.5,1.4,1.2,2.2,1.3
							c1.5,0.2,2.3-0.5,2.3-0.5V8.4L7.5,7.5l1.1-0.9V4.2C8.1,4.1,7.3,3.9,6.9,3.8C6.2,3.6,4,3,3.7,3c-0.3-0.1-0.8,0-1,0.2
							c-0.3,0.2-0.4,0.6-0.3,1c0.1,0.2,0.2,0.3,0.3,0.4c0,0-0.1,0-0.4-0.1C1.9,4.2,1.6,3.7,1.6,3.1c0-0.8,0.3-1.5,0.9-2
							C3,0.8,3.7,0.6,4.4,0.7c1.1,0.1,2.5,0.8,3.8,1.1c0.5,0.1,0.9,0.2,1.2,0c0.2-0.1,0.4-0.4,0.2-0.8C9.4,0.4,8.9,0.5,8.4,0.4
							C8.8,0.3,8.9,0.3,9.2,0.3z M4.8,10.4V5.5L3.4,6.2C3.4,6.2,3,7,3,8.2c0.1,1,0.6,2.1,1,2.6L4.8,10.4z"/>
					</g>
				</g>
			</g>
		</g>
	</g>
</g>
<g>
	<path fill="#FFFFFF" d="M30.3,6.5V4.4h-0.9v6.3h1.3v2.5h-6.8v-2.5h1.3V4.4h-0.9v2.1H22V2h10.4v4.5H30.3z"/>
	<path fill="#FFFFFF" d="M39.2,8.3c-0.5,0.1-0.8,0.4-1,0.7C38.1,9.3,38,9.6,38,10.4v0.7h0.8v2H34v-2h0.6V7.8H34v-2H38v1.1
		c0.9-0.9,1.6-1.4,2.6-1.3l0.3,0v2.5C40,8.2,39.7,8.2,39.2,8.3z"/>
	<path fill="#FFFFFF" d="M42.4,13.2v-2H43V7.8h-0.6v-2h4.1v5.4h0.6v2H42.4z M44.5,5.2c-1.1,0-1.9-0.7-1.9-1.7c0-1,0.9-1.7,1.9-1.7
		c1.1,0,1.9,0.8,1.9,1.7C46.5,4.5,45.7,5.2,44.5,5.2z"/>
	<path fill="#FFFFFF" d="M54.1,13.2v-0.8l-0.1,0.1c-0.5,0.3-0.7,0.5-0.9,0.6c-0.4,0.2-0.8,0.2-1.2,0.2c-1.9,0-3.3-1.6-3.3-3.8
		c0-2.2,1.4-3.7,3.5-3.7c0.8,0,1.4,0.2,2.1,0.6V5.8h3.5v5.4h0.6v2H54.1z M53,7.8c-0.6,0-1,0.6-1,1.7c0,0.6,0.2,1.2,0.4,1.5
		c0.2,0.2,0.3,0.3,0.6,0.3c0.7,0,1-0.7,1-1.9C54,8.4,53.7,7.8,53,7.8z"/>
	<path fill="#FFFFFF" d="M59.6,13.2v-2h0.6V4h-0.6V2h4.1v9.2h0.6v2H59.6z"/>
</g>
<rect x="16.1" opacity="0.3" fill="#FFFFFF" width="1" height="15"/>
</svg>
