<svg xmlns="http://www.w3.org/2000/svg" viewBox="7500 932 48 48"><defs><style>.a{fill:none;}.b{fill:#fff;}</style></defs><g transform="translate(7500 932)"><path class="a" d="M0,0H48V48H0Z"/><path class="b" d="M30.667,10.667a20,20,0,1,0,20,20A20.007,20.007,0,0,0,30.667,10.667Zm-2,35.86a15.977,15.977,0,0,1-14-15.86,16.236,16.236,0,0,1,.42-3.58l9.58,9.58v2a4.012,4.012,0,0,0,4,4Zm13.8-5.08a3.968,3.968,0,0,0-3.8-2.78h-2v-6a2.006,2.006,0,0,0-2-2h-12v-4h4a2.006,2.006,0,0,0,2-2v-4h4a4.012,4.012,0,0,0,4-4v-.82a15.964,15.964,0,0,1,5.8,25.6Z" transform="translate(-6.667 -6.667)"/></g></svg>