<svg xmlns="http://www.w3.org/2000/svg" viewBox="0 0 605.5 557.07293">
  <defs>
    <style>
      .cls-1, .cls-2, .cls-3, .cls-4, .cls-5, .cls-8 {
        fill: none;
        stroke-linecap: round;
      }

      .cls-1, .cls-8 {
        stroke: #3b1ffa;
        stroke-miterlimit: 10;
      }

      .cls-1, .cls-5 {
        stroke-width: 10px;
      }

      .cls-2, .cls-4 {
        stroke: #fff;
        stroke-linejoin: bevel;
      }

      .cls-2 {
        stroke-width: 7px;
      }

      .cls-3, .cls-5 {
        stroke: #2ef6a5;
        stroke-linejoin: round;
      }

      .cls-3, .cls-8 {
        stroke-width: 6px;
      }

      .cls-4 {
        stroke-width: 5px;
      }

      .cls-6 {
        fill: #fff;
      }

      .cls-7 {
        fill: #3b1ffa;
      }
    </style>
  </defs>
  <title>bait_1</title>
  <g id="Слой_2" data-name="Слой 2">
    <g id="Layer_1" data-name="Layer 1">
      <g>
        <g>
          <g>
            <path class="cls-1" d="M494.5,446.68421a40.16636,40.16636,0,0,0,40.18947,40.18947"/>
            <path class="cls-1" d="M573.91053,446.68421a40.16636,40.16636,0,0,1-40.18947,40.18947"/>
            <line class="cls-1" x1="573.91053" y1="446.68421" x2="573.91053" y2="372.11579"/>
            <line class="cls-1" x1="494.5" y1="446.68421" x2="494.5" y2="432.64211"/>
            <line class="cls-1" x1="514.59474" y1="444.50526" x2="494.5" y2="432.64211"/>
            <circle class="cls-1" cx="572.94211" cy="358.55789" r="13.55789"/>
          </g>
          <line class="cls-2" x1="573" y1="359.5" x2="573" y2="3.5"/>
          <line class="cls-2" x1="564" y1="335.5" x2="582" y2="335.5"/>
          <line class="cls-2" x1="564" y1="328.5" x2="582" y2="328.5"/>
          <line class="cls-2" x1="564" y1="321.5" x2="582" y2="321.5"/>
          <path class="cls-2" d="M574,352.5c0-9.39648,12.52344-17,28-17"/>
        </g>
        <g>
          <g>
            <path class="cls-3" d="M390.5,286.96242a25.7812,25.7812,0,0,0,25.796,25.796"/>
            <path class="cls-3" d="M441.47048,286.96242a25.7812,25.7812,0,0,1-25.796,25.796"/>
            <line class="cls-3" x1="441.47048" y1="286.96242" x2="441.47048" y2="239.0999"/>
            <line class="cls-3" x1="390.5" y1="286.96242" x2="390.5" y2="277.94935"/>
            <line class="cls-3" x1="403.39802" y1="285.56384" x2="390.5" y2="277.94935"/>
            <circle class="cls-3" cx="440.84889" cy="230.39763" r="8.70228"/>
          </g>
          <line class="cls-4" x1="440.88605" y1="231.00233" x2="440.88605" y2="2.5"/>
          <line class="cls-4" x1="435.1093" y1="215.59767" x2="446.66279" y2="215.59767"/>
          <line class="cls-4" x1="435.1093" y1="211.10465" x2="446.66279" y2="211.10465"/>
          <line class="cls-4" x1="435.1093" y1="206.61163" x2="446.66279" y2="206.61163"/>
          <path class="cls-4" d="M441.52791,226.5093c0-6.03123,8.0383-10.91163,17.97209-10.91163"/>
        </g>
        <g>
          <g>
            <path class="cls-5" d="M125.5,506.46255a45.58415,45.58415,0,0,1-45.61038,45.61038"/>
            <path class="cls-5" d="M35.37829,506.46255a45.58415,45.58415,0,0,0,45.61038,45.61038"/>
            <line class="cls-5" x1="35.37829" y1="506.46255" x2="35.37829" y2="421.83606"/>
            <line class="cls-5" x1="125.5" y1="506.46255" x2="125.5" y2="490.52639"/>
            <line class="cls-5" x1="102.69481" y1="503.98969" x2="125.5" y2="490.52639"/>
            <circle class="cls-5" cx="36.47733" cy="406.44942" r="15.38663"/>
          </g>
          <line class="cls-2" x1="36.41163" y1="407.5186" x2="36.41163" y2="3.5"/>
          <line class="cls-2" x1="46.62558" y1="380.2814" x2="26.19767" y2="380.2814"/>
          <line class="cls-2" x1="46.62558" y1="372.33721" x2="26.19767" y2="372.33721"/>
          <line class="cls-2" x1="46.62558" y1="364.39302" x2="26.19767" y2="364.39302"/>
          <path class="cls-2" d="M35.27674,399.57442c0-10.66392-14.21265-19.293-31.77674-19.293"/>
        </g>
        <g>
          <path id="path4097" class="cls-6" d="M321.21027,480.55471c-.55251,0-1.10335,0-1.65613.00548-.079,12.637-.03178,25.27845-.04936,37.91549.02418,6.70349-.04819,13.40806.04387,20.10935,2.27478-.0022,4.54944.01755,6.82194,0,.06086-.975.07634-1.95935.07679-2.94484V535.196l.44419.00548c.9673.00634,1.93262.00044,2.89548-.011a22.31,22.31,0,0,0-.01645-2.97775l-.06031-.55387.55388.07129a20.27159,20.27159,0,0,0,2.99967.02194c.019-.95426.04045-1.90921.04936-2.86258l.00548-.43871.43871.00548c.75286.00586,1.50783-.00246,2.26483-.04387l.499-.02742-.03839.499c-.15655,2.08712.19607,4.17568.08227,6.26258.98485.03257,1.96958.04571,2.95581.05484l.42772.00548.00548.42774c.01926,2.11467.01441,4.22835.04936,6.34484q1.45972.02863,2.9229.0329h.43323l.00548.43323c.01757.98634.02578,1.96672.02194,2.95581,2.29.03071,4.58125.02413,6.87128.011a19.022,19.022,0,0,0,.04936-2.94484l-.0329-.48258.48258.011c.97164.02706,1.94594.01891,2.90645-.00548.0329-2.27909.02084-4.55928-.00548-6.83839-.97848-.02676-1.9551-.03909-2.93386-.04936l-.42774-.00548-.00548-.42774c-.03313-2.11892-.01711-4.2309-.02743-6.35033-.98013-.036-1.96958-.05441-2.9558-.02742l-.46614.011.01645-.46613q.05009-1.22477.04387-2.44032v-.43871h.43871c4.37843-.00775,8.753-.006,13.13388-.05484.02853-2.27032.03617-4.54064-.00548-6.811q-1.47743,0-2.95034-.02194l-.42772-.00548-.00548-.42774c-.01426-.98448-.02216-1.97063-.01645-2.95581-.97969-.02483-1.95729-.03058-2.93935-.0329h-.43323l-.00548-.43323c-.01077-.97654-.0193-1.95217-.03839-2.92839-.97727-.04365-1.96061-.0698-2.95032-.06032l-.4442.00548v-.44419q-.00329-1.48317-.01645-2.96129c-.98545.00577-1.97246-.002-2.9558-.02194l-.42776-.011v-.42774c-.00259-.96829-.00978-1.931-.03838-2.89548-.97267-.0533-1.9475-.0619-2.92839-.06581h-.43323l-.00548-.43323c-.01551-.98529-.0258-1.9676-.02194-2.95581q-1.47991-.00576-2.95581-.02742l-.41677-.00548-.01645-.41677c-.03527-.985-.07479-1.97422-.07678-2.96129-.962-.02286-1.92335-.02676-2.89-.02742h-.42772l-.011-.42774c-.02386-.98063-.037-1.96673-.02741-2.95032-.98532-.01149-1.971-.01851-2.95581-.0329l-.41677-.00548-.01645-.41677c-.03859-.98487-.05286-1.96988-.05484-2.96129-.98009-.02292-1.95768-.02812-2.93936-.0329h-.43323l-.00548-.43323c-.00619-.97951-.01191-1.96117-.0329-2.93936-.9848-.00575-1.97455-.00823-2.96129-.01645l-.42774-.00548-.00548-.42774c-.009-.98257-.01448-1.96976-.01646-2.95581-.98582-.02865-1.97949-.02229-2.97226-.01645h-.43322l-.00549-.43323c-.00623-.9889-.02381-1.97825-.06581-2.96129q-.8275-.00494-1.65613-.00548Z"/>
          <path id="path3022" class="cls-7" d="M319.55412,480.56239c1.10555-.011,2.2111-.00877,3.31445-.00219q.07239,1.69452.07458,3.389c1.13406-.00877,2.26813-.00877,3.4.02413.00219,1.12748.00439,2.255.01755,3.38026q-1.71426-.00987-3.42852.00219c-.00877,15.923.0329,31.84374.01974,47.76452,1.12968.01316,2.25716.01536,3.38684-.00878-.011-1.12529-.00658-2.24839.00439-3.37368a17.317,17.317,0,0,1,3.389.08555,18.00389,18.00389,0,0,1,.05264,3.36929c-1.10774.01316-2.21768.02413-3.32761.011.00877,1.12749-.01755,2.25716-.08774,3.38245-2.27252.01755-4.54723-.00438-6.82194-.0022-.09213-6.70129-.01755-13.40477-.04168-20.10826C319.52341,505.83865,319.47515,493.19942,319.55412,480.56239Z"/>
          <path id="path3024" class="cls-7" d="M326.3607,487.35362c1.12968.011,2.26155.01535,3.39123.02194.02413,1.1231.0329,2.2462.03948,3.36929,1.12529.00439,2.25058.011,3.37587.03729.00219,1.12529.00219,2.25278.05923,3.38026,1.12748.01974,2.255.02413,3.38245.03729q-.01645,1.68464.03071,3.37148,1.6649-.00329,3.32761.0351c.00219,1.12529.04826,2.25058.08774,3.37587,1.1231.02194,2.24839.02632,3.37368.03071q-.00658,1.68794.02413,3.37806c1.1231,0,2.24839.01536,3.36929.07678.0329,1.10994.04387,2.21987.04387,3.332,1.12529.02852,2.25058.0351,3.37587.02852.011,1.12968.01974,2.25936.01974,3.389-1.14064.057-2.28129.04826-3.42194.01755,0-1.12748.00439-2.25716.00439-3.38684-1.145-.01536-2.29007-.01316-3.4329-.00658.01536-1.14284.01755-2.28349-.00219-3.42413l-3.39123.00658c0-1.13406.00439-2.26594.00658-3.39781-1.145-.02632-2.28787-.02413-3.43071-.00658.00219-1.14284.00658-2.28568-.00658-3.42852q-1.69451,0-3.39123.00439c-.01536-1.13845-.011-2.2769-.02413-3.41536-1.13626,0-2.27252.00219-3.40658-.02413.00658-1.12748.00877-2.255-.00219-3.38245-1.12529-.01316-2.25058-.011-3.37587-.00439-.0351-1.13845-.03071-2.2769-.02632-3.41536Z"/>
          <path id="path3028" class="cls-7" d="M350.26161,511.21723c1.13187-.03071,2.26155.01974,3.39123.0702.02194,1.11871.03071,2.23742.04387,3.35613,1.12529,0,2.24839.00877,3.37368.03729q-.00987,1.69123.01974,3.38464c1.12529.01974,2.25278.02632,3.38026.02632.04168,2.27032.0351,4.53845.00658,6.80878-4.52529.05045-9.04839.05045-13.57148.05922.00658,1.11213.011,2.22645-.05045,3.33858-1.14064.057-2.28348.04387-3.42413.0351q-.04935-3.41536,0-6.82852c4.54723-.02852,9.09665.01316,13.64387-.00658q.023-1.70768-.00219-3.41755c-1.13626-.00658-2.27471-.00438-3.411-.02194.00219-1.12968.00658-2.25936-.00219-3.389q-1.68794-.01645-3.37806.00219c-.04168-1.15161-.04168-2.30323-.01974-3.45484Z"/>
          <path id="path3032" class="cls-7" d="M333.18264,524.88743q1.69451-.00987,3.389.0022a20.30594,20.30594,0,0,1-.06581,3.5031c-1.06168.08336-2.12555.07238-3.18723.06142-.00439,1.099-.03071,2.19793-.05265,3.2991a16.24223,16.24223,0,0,1-3.39342-.07238,14.79,14.79,0,0,1-.1031-3.36929c1.13187-.00658,2.26374-.00658,3.39561-.00658-.00439-1.13845-.00439-2.2791.01755-3.41755Z"/>
          <path id="path3034" class="cls-7" d="M336.50586,528.39272a27.45969,27.45969,0,0,1,3.5031-.068c.02413,2.26813.00219,4.53845.01536,6.80658,1.13845-.0022,2.27471-.0022,3.41316.02194.00658,2.25935-.01974,4.51871.01536,6.78026,2.2791.0351,4.56258-.07238,6.83948.06142a17.11113,17.11113,0,0,1-.0351,3.41755c-2.29007.01316-4.57793.02194-6.868-.00878q.00658-1.69451-.02852-3.38684c-1.11871.0022-2.23961-.01316-3.35832-.0351-.03729-2.25935-.02852-4.51871-.05265-6.77588-1.12748-.00878-2.255-.02413-3.38245-.06142.12284-2.25277-.32464-4.50555-.06142-6.75174Z"/>
          <path id="path3036" class="cls-7" d="M346.855,528.29839c1.13406-.05264,2.27032-.02194,3.40658.01974.011,2.25935-.01536,4.51871.02852,6.78026,1.1231.011,2.244.02413,3.3671.05484.02632,2.2791.03948,4.55819.00658,6.83729-1.1231.02852-2.24839.057-3.37148.00438-.12723-2.27032-.02194-4.54723-.04387-6.81974-1.14284-.02413-2.28568-.01974-3.42632-.02852-.00219-2.28129-.02632-4.567.0329-6.84826Z"/>
        </g>
        <g>
          <g>
            <path class="cls-8" d="M235.5,233.36805A20.92387,20.92387,0,0,1,214.56409,254.304"/>
            <path class="cls-8" d="M194.13266,233.36805A20.92387,20.92387,0,0,0,215.06857,254.304"/>
            <line class="cls-8" x1="194.13266" y1="233.36805" x2="194.13266" y2="194.52311"/>
            <line class="cls-8" x1="235.5" y1="233.36805" x2="235.5" y2="226.0531"/>
            <line class="cls-8" x1="225.03204" y1="232.23297" x2="235.5" y2="226.0531"/>
            <circle class="cls-8" cx="194.63714" cy="187.46039" r="7.06272"/>
          </g>
          <line class="cls-4" x1="194.60698" y1="187.95116" x2="194.60698" y2="2.5"/>
          <line class="cls-4" x1="199.29535" y1="175.44884" x2="189.9186" y2="175.44884"/>
          <line class="cls-4" x1="199.29535" y1="171.80233" x2="189.9186" y2="171.80233"/>
          <line class="cls-4" x1="199.29535" y1="168.15581" x2="189.9186" y2="168.15581"/>
          <path class="cls-4" d="M194.086,184.30465c0-4.89491-6.52384-8.85581-14.586-8.85581"/>
        </g>
      </g>
    </g>
  </g>
</svg>
