<svg xmlns="http://www.w3.org/2000/svg" viewBox="0 0 467.8839 111">
  <defs>
    <style>
      .cls-1 {
        fill: #3b1ffa;
      }

      .cls-2 {
        font-size: 23px;
        fill: #2ef6a5;
        font-family: SFUIDisplay-Heavy, SF UI Display;
      }
    </style>
  </defs>
  <title>devices-plus</title>
  <g id="Слой_2" data-name="Слой 2">
    <g id="Layer_1" data-name="Layer 1">
      <path class="cls-1" d="M25.19291,64.834,4.19882,64.813A4.21116,4.21116,0,0,0,0,69.01182v37.78936A4.21116,4.21116,0,0,0,4.19882,111H25.19291a4.21116,4.21116,0,0,0,4.19882-4.19882V69.01182A4.19322,4.19322,0,0,0,25.19291,64.834Zm-.35046,41.06744H4.54928a2,2,0,0,1-2-2V72.73634a2,2,0,0,1,2-2H24.84244a2,2,0,0,1,2,2v31.1651A2,2,0,0,1,24.84244,105.90144Z"/>
      <path class="cls-1" d="M120.4161,45.01858H81.92693a6.87557,6.87557,0,0,0-6.87307,6.87307v52.23529A6.87557,6.87557,0,0,0,81.92693,111H120.4161a6.87558,6.87558,0,0,0,6.87306-6.87306V51.89164A6.87557,6.87557,0,0,0,120.4161,45.01858Zm-19.24458,64.88173a3.29907,3.29907,0,1,1,3.29907-3.29907A3.29465,3.29465,0,0,1,101.17152,109.90031Zm19.26873-7.69783H81.90279a3,3,0,0,1-3-3V52.96718a3,3,0,0,1,3-3h38.53746a3,3,0,0,1,3,3V99.20248A3,3,0,0,1,120.44025,102.20248Z"/>
      <path class="cls-1" d="M276.29721,105.639a10.3399,10.3399,0,0,0,10.3096-10.3096v-51.548a10.33991,10.33991,0,0,0-10.3096-10.3096H193.82043a10.33991,10.33991,0,0,0-10.3096,10.3096v51.548a10.33991,10.33991,0,0,0,10.3096,10.3096h-20.6192V111H296.91641v-5.361ZM192.697,39.65759h84.72407a3,3,0,0,1,3,3v52.9709a3,3,0,0,1-3,3H192.69662a3,3,0,0,1-3-3l.00036-52.9709A3,3,0,0,1,192.697,39.65759Z"/>
      <path class="cls-1" d="M456.81827,0H357.22755a11.09817,11.09817,0,0,0-11.06563,11.06563V77.45944a11.09817,11.09817,0,0,0,11.06563,11.06563h38.72972v17.66378H384.89164v4.46749h44.26254v-4.46749H418.08854V88.52508h38.72972A11.09816,11.09816,0,0,0,467.8839,77.45944V11.06563A11.09817,11.09817,0,0,0,456.81827,0Zm.12384,79.93375H357.10372a4,4,0,0,1-4-4V10.9418a4,4,0,0,1,4-4h99.83839a4,4,0,0,1,4,4v64.992A4,4,0,0,1,456.94211,79.93375Z"/>
      <text class="cls-2" transform="translate(44.3335 96.6665)">+</text>
      <text class="cls-2" transform="translate(146.3335 83.6665)">+</text>
      <text class="cls-2" transform="translate(307.3335 72.6665)">+</text>
    </g>
  </g>
</svg>
