<svg xmlns="http://www.w3.org/2000/svg" viewBox="0 0 480.95628 55.4153">
  <defs>
    <style>
      .cls-1 {
        fill: #3b1ffa;
      }

      .cls-2 {
        fill: #2ef6a5;
      }

      .cls-3 {
        fill: #86d3dd;
      }
    </style>
  </defs>
  <title>people</title>
  <g id="Слой_2" data-name="Слой 2">
    <g id="Layer_1" data-name="Layer 1">
      <g>
        <path class="cls-1" d="M21.071.10383A5.26776,5.26776,0,1,0,26.3388,5.37158,5.2663,5.2663,0,0,0,21.071.10383m-5.26776,13.1694a2.68735,2.68735,0,0,0-1.81738.73749h-.02634L0,27.99661l3.74011,3.71377,9.42929-9.45563V55.4153h5.26776V36.97814h5.26776V55.4153h5.26776V22.25475L38.402,31.71038l3.74011-3.71377L28.18251,14.01071a2.80529,2.80529,0,0,0-1.84372-.73749Z"/>
        <path class="cls-2" d="M69.79781.10383a5.26776,5.26776,0,1,0,5.26776,5.26776A5.2663,5.2663,0,0,0,69.79781.10383m-5.26776,13.1694a2.68735,2.68735,0,0,0-1.81738.73749h-.02634L48.72678,27.99661l3.74011,3.71377,9.42929-9.45563V55.4153h5.26776V36.97814h5.26776V55.4153h5.26776V22.25475l9.42929,9.45563,3.74011-3.71377L76.90929,14.01071a2.80529,2.80529,0,0,0-1.84372-.73749Z"/>
        <path class="cls-2" d="M118.52459.10383a5.26776,5.26776,0,1,0,5.26776,5.26776A5.2663,5.2663,0,0,0,118.52459.10383m-5.26776,13.1694a2.68735,2.68735,0,0,0-1.81738.73749h-.02634L97.45355,27.99661l3.74011,3.71377,9.42929-9.45563V55.4153h5.26776V36.97814h5.26776V55.4153h5.26776V22.25475l9.42929,9.45563,3.74011-3.71377-13.95956-13.9859a2.80529,2.80529,0,0,0-1.84372-.73749Z"/>
        <path class="cls-2" d="M167.25137.10383a5.26776,5.26776,0,1,0,5.26776,5.26776A5.2663,5.2663,0,0,0,167.25137.10383m-5.26776,13.1694a2.68735,2.68735,0,0,0-1.81738.73749h-.02634l-13.95956,13.9859,3.74011,3.71377,9.42929-9.45563V55.4153h5.26776V36.97814h5.26776V55.4153H175.153V22.25475l9.42929,9.45563,3.74011-3.71377-13.95956-13.9859a2.80529,2.80529,0,0,0-1.84372-.73749Z"/>
        <path class="cls-2" d="M215.97814.10383a5.26776,5.26776,0,1,0,5.26776,5.26776A5.2663,5.2663,0,0,0,215.97814.10383m-5.26776,13.1694a2.68735,2.68735,0,0,0-1.81738.73749h-.02634L194.9071,27.99661l3.74011,3.71377,9.42929-9.45563V55.4153h5.26776V36.97814H218.612V55.4153h5.26776V22.25475l9.42929,9.45563,3.74011-3.71377-13.95956-13.9859a2.80529,2.80529,0,0,0-1.84372-.73749"/>
        <path class="cls-2" d="M264.70492.10383a5.26776,5.26776,0,1,0,5.26776,5.26776A5.2663,5.2663,0,0,0,264.70492.10383m-5.26776,13.1694a2.68735,2.68735,0,0,0-1.81738.73749h-.02634l-13.95956,13.9859,3.74011,3.71377,9.42929-9.45563V55.4153H262.071V36.97814h5.26776V55.4153h5.26776V22.25475l9.42929,9.45563,3.74011-3.71377-13.95956-13.9859a2.80529,2.80529,0,0,0-1.84372-.73749"/>
        <path class="cls-2" d="M313.43169.10383a5.26776,5.26776,0,1,0,5.26776,5.26776A5.2663,5.2663,0,0,0,313.43169.10383m-5.26776,13.1694a2.68735,2.68735,0,0,0-1.81738.73749h-.02634l-13.95956,13.9859,3.74011,3.71377,9.42929-9.45563V55.4153h5.26776V36.97814h5.26776V55.4153h5.26776V22.25475l9.42929,9.45563,3.74011-3.71377-13.95956-13.9859a2.80529,2.80529,0,0,0-1.84372-.73749"/>
        <path class="cls-2" d="M362.15847.10383a5.26776,5.26776,0,1,0,5.26776,5.26776A5.2663,5.2663,0,0,0,362.15847.10383m-5.26776,13.1694a2.68735,2.68735,0,0,0-1.81738.73749H355.047l-13.95956,13.9859,3.74011,3.71377,9.42929-9.45563V55.4153h5.26776V36.97814h5.26776V55.4153h5.26776V22.25475l9.42929,9.45563,3.74011-3.71377-13.95956-13.9859a2.80529,2.80529,0,0,0-1.84372-.73749"/>
        <path class="cls-2" d="M410.88525.10383A5.26776,5.26776,0,1,0,416.153,5.37158,5.2663,5.2663,0,0,0,410.88525.10383m-5.26776,13.1694a2.68735,2.68735,0,0,0-1.81738.73749h-.02634l-13.95956,13.9859,3.74011,3.71377,9.42929-9.45563V55.4153h5.26776V36.97814h5.26776V55.4153h5.26776V22.25475l9.42929,9.45563,3.74011-3.71377-13.95956-13.9859a2.80529,2.80529,0,0,0-1.84372-.73749"/>
        <path class="cls-2" d="M459.88525,0A5.26776,5.26776,0,1,0,465.153,5.26776,5.2663,5.2663,0,0,0,459.88525,0m-5.26776,13.1694a2.68735,2.68735,0,0,0-1.81738.73749h-.02634l-13.95956,13.9859,3.74011,3.71377,9.42929-9.45563V55.31148h5.26776V36.87432h5.26776V55.31148h5.26776V22.15093l9.42929,9.45563,3.74011-3.71377-13.95956-13.9859a2.80529,2.80529,0,0,0-1.84372-.73749"/>
        <path class="cls-1" d="M72.43169,49.10413V55.4153h5.26776V49.10367m-15.80328,0V55.4153h5.26776V49.10413M48.72678,27.99661"/>
        <path class="cls-3" d="M62,49.10383"/>
      </g>
    </g>
  </g>
</svg>
