<svg xmlns="http://www.w3.org/2000/svg" viewBox="1550 3871 136.828 100"><defs><style>.a{fill:#01adfd;opacity:0.5;}</style></defs><g transform="translate(1195 338)"><path class="a" d="M90.172,70.969l5.906-13.047,14.547,32.219h26.2L105.391,20.594l-1.781,3.563,28.438,62.891H112.625L96.078,50.422l-7.594,16.8Zm-43.562-.109L40.766,57.922,26.2,90.141H0L31.375,20.75l1.781,3.563L4.781,87.063,24.2,87.047,40.75,50.422,48.3,67.094ZM82.078,53.047l1.875-18.281H98.3l9.969-19.922H28.422l9.984,19.938H52.75l1.875,18.344,2.531-5.609L55.531,31.7H40.313L33.422,17.938h69.859l-6.891,13.75H81.156L79.531,47.453ZM76.141,89.609H60.578l1.391-3.094H74.75ZM34.047,14.844,40.75,0l6.7,14.844H44.062L40.75,7.5l-3.312,7.344Zm55.313,0L96.063,0l6.7,14.844H99.375L96.063,7.5,92.75,14.844ZM55.891,100H33.422L68.359,22.734,103.3,100H80.844L68.359,72.391Zm-2-3.094L68.359,64.875,82.828,96.906H98.5L68.344,30.234,38.219,96.906Z" transform="translate(355 3533)"/></g></svg>