<svg id="Layer_1" data-name="Layer 1" xmlns="http://www.w3.org/2000/svg" xmlns:xlink="http://www.w3.org/1999/xlink" viewBox="0 0 146 146"><defs><style>.cls-1,.cls-4,.cls-8{fill:none;}.cls-2{clip-path:url(#clip-path);}.cls-3,.cls-7{fill:#fff;}.cls-3,.cls-4,.cls-6{stroke:#3b1ffa;}.cls-3,.cls-4,.cls-6,.cls-7{stroke-linecap:round;}.cls-3{stroke-linejoin:round;}.cls-3,.cls-4,.cls-6,.cls-7,.cls-8{stroke-width:4px;}.cls-4,.cls-6,.cls-7,.cls-8{stroke-miterlimit:10;}.cls-5,.cls-6{fill:#09f;}.cls-7{stroke:#2ef6a5;}.cls-8{stroke:#09f;}</style><clipPath id="clip-path" transform="translate(-7.25 -7)"><path class="cls-1" d="M151.25,80A70.56814,70.56814,0,0,1,141,116.75c-.08.14-.16.28-.25.42A71.005,71.005,0,0,1,20,117.56c-.09-.13-.17-.26-.25-.39A71.00254,71.00254,0,1,1,151.25,80Z"/></clipPath></defs><title>inbox-icon</title><g class="cls-2"><path class="cls-3" d="M134,80.2562v40.45661c-.07076.12381-.14146,6.24758-.22107,6.37139C122.73406,145.03543,102.89927,151,80.27893,151c-22.47,0-42.19865-5.8142-53.27893-23.57091V80.2562Z" transform="translate(-7.25 -7)"/><line class="cls-4" x1="19.75" y1="73.2562" x2="72.80785" y2="40.53719"/><line class="cls-5" x1="19.75" y1="73.2562" x2="72.80785" y2="40.53719"/><line class="cls-6" x1="126.75" y1="73.2562" x2="72.80785" y2="40.53719"/><path class="cls-7" d="M120.73554,64.68084v25.3656a3.4577,3.4577,0,0,1-1.67287,2.96143L94.28181,107.94311a3.4577,3.4577,0,0,1-3.57831-.00523l-8.8377-5.36169a3.4577,3.4577,0,0,0-3.608.01288l-8.61122,5.30877a3.4577,3.4577,0,0,1-3.62206.00431L41.91463,93.11766A3.4577,3.4577,0,0,1,40.26446,90.17V64.68084a3.4577,3.4577,0,0,1,3.4577-3.4577h73.55568A3.4577,3.4577,0,0,1,120.73554,64.68084Z" transform="translate(-7.25 -7)"/><path class="cls-3" d="M133.78,127.08C122.73,145.04,102.9,151,80.28,151c-22.47,0-42.2-5.81-53.28-23.57V83.79L42,93.2s0-.2-.09-.08L66.02,107.9a3.50355,3.50355,0,0,0,1.38.48,3.44446,3.44446,0,0,0,2.25-.48l8.61-5.31a3.44912,3.44912,0,0,1,3.61-.01l8.83,5.36a3.46163,3.46163,0,0,0,3.58,0l4.18-2.52.24-.15L119.06,93.01a3.234,3.234,0,0,0,.68-.54l.02-.02L134,83.79Z" transform="translate(-7.25 -7)"/><line class="cls-4" x1="23.75" y1="125" x2="72.80785" y2="94.47934"/><line class="cls-4" x1="122.75" y1="125" x2="72.80785" y2="94.47934"/></g><path class="cls-8" d="M151.25,80A70.56814,70.56814,0,0,1,141,116.75c-.08.14-.16.28-.25.42A71.005,71.005,0,0,1,20,117.56c-.09-.13-.17-.26-.25-.39A71.00254,71.00254,0,1,1,151.25,80Z" transform="translate(-7.25 -7)"/></svg>