<svg xmlns="http://www.w3.org/2000/svg" viewBox="1498 589 218.96 40"><defs><style>.a{fill:#1f1a1c;}.a,.b{fill-rule:evenodd;}.b{fill:#01adfd;}</style></defs><g transform="translate(1498 589)"><g transform="translate(64.184 2.06)"><path class="a" d="M9.147,1.091,14.4,19.707H12.129l-.794-3H6.948l-.782,3H3.9Zm1.667,13.617L9.6,10.048,9.136,7.893l-.442,2.154-1.224,4.66ZM20.705,1.442a9.651,9.651,0,0,1,3.39.771,7.7,7.7,0,0,1,2.6,1.848A8.183,8.183,0,0,1,28.37,6.907a11.278,11.278,0,0,1,.59,3.776,11.278,11.278,0,0,1-.59,3.776A8.183,8.183,0,0,1,26.7,17.3a7.7,7.7,0,0,1-2.6,1.848,9.651,9.651,0,0,1-3.39.771Zm2.109,16.032a5.159,5.159,0,0,0,2.7-2.041,6.971,6.971,0,0,0,.907-1.99,9.817,9.817,0,0,0,.346-2.761,9.817,9.817,0,0,0-.346-2.761,6.971,6.971,0,0,0-.907-1.99,5.159,5.159,0,0,0-2.7-2.041ZM92.542.955l5.215,9.569L102.984.955V19.707h-2.109V11.227l.057-2.279-1.2,2.3-1.961,3.571v.023l-.011-.011v-.011l-1.973-3.583-1.2-2.29.068,2.256v8.5H92.542Zm18.372.692h6.077v2h-3.968V10.58h3.4v2h-3.4v5.136h3.968v2h-6.077Zm13.417-.2a9.651,9.651,0,0,1,3.39.771,7.7,7.7,0,0,1,2.6,1.848A8.182,8.182,0,0,1,132,6.907a11.278,11.278,0,0,1,.59,3.776,11.278,11.278,0,0,1-.59,3.776,8.182,8.182,0,0,1-1.672,2.846,7.7,7.7,0,0,1-2.6,1.848,9.651,9.651,0,0,1-3.39.771Zm2.109,16.032a5.159,5.159,0,0,0,2.7-2.041,6.971,6.971,0,0,0,.907-1.99,9.817,9.817,0,0,0,.346-2.761,9.817,9.817,0,0,0-.346-2.761,6.971,6.971,0,0,0-.907-1.99,5.159,5.159,0,0,0-2.7-2.041ZM139.585,1.646h2.109V19.707h-2.109Zm13.655-.556,5.249,18.617h-2.268l-.794-3h-4.388l-.782,3h-2.268Zm1.667,13.617-1.213-4.66-.465-2.154-.442,2.154-1.224,4.66Z" transform="translate(-3.713 -0.955)"/><path class="b" d="M540.338,8.959h2.109V18.982h3.98V8.959h2.109V27.02h-2.109V20.977h-3.98V27.02h-2.109Zm-9.132,18.277a4.624,4.624,0,0,1-2.075-.488,4.5,4.5,0,0,1-1.723-1.587,9.045,9.045,0,0,1-1.174-2.863A18.177,18.177,0,0,1,525.8,18a18.177,18.177,0,0,1,.437-4.3,8.971,8.971,0,0,1,1.174-2.857,4.428,4.428,0,0,1,3.8-2.08,5.476,5.476,0,0,1,1.151.113,5.909,5.909,0,0,1,1.083.351l-.941,1.825a2.455,2.455,0,0,0-2.268.187,3.419,3.419,0,0,0-1.122,1.23,7.879,7.879,0,0,0-.811,2.211A15.127,15.127,0,0,0,527.986,18a15.127,15.127,0,0,0,.312,3.322,7.879,7.879,0,0,0,.811,2.211,3.418,3.418,0,0,0,1.122,1.23,2.455,2.455,0,0,0,2.268.187l.941,1.825a5.909,5.909,0,0,1-1.083.351A5.476,5.476,0,0,1,531.206,27.236ZM513.288,8.959h6.077v2H515.4v6.939h3.4v2h-3.4v5.136h3.968v2h-6.077Zm-11.717,2h-2.834v-2h7.778v2H503.68V27.02h-2.109Z" transform="translate(-467.625 -8.268)"/><path class="a" d="M.943,412.214h.773L2.787,409.7H6.033L7.1,412.214h.773L4.41,404.265Zm2.109-3.136L4.41,405.91l1.358,3.169Zm10.334,3.136V404.1h-.662v4.1a1.808,1.808,0,0,0-1.7-.972,2.381,2.381,0,0,0-1.811.74,2.576,2.576,0,0,0-.707,1.855,2.464,2.464,0,0,0,.74,1.921,2.516,2.516,0,0,0,1.755.673,1.985,1.985,0,0,0,1.767-1.016v.817ZM11,411.883a1.609,1.609,0,0,1-1.3-.6,2.262,2.262,0,0,1-.486-1.468,2.341,2.341,0,0,1,.464-1.424,1.568,1.568,0,0,1,1.347-.64,1.518,1.518,0,0,1,1.259.607,2.253,2.253,0,0,1,.486,1.457A1.826,1.826,0,0,1,11,411.883Zm5.6.574,2.319-5.035H18.2l-1.6,3.632L15,407.423h-.718Zm7.066-1.755a1.812,1.812,0,0,1-1.7,1.181,1.573,1.573,0,0,1-1.292-.6,2.153,2.153,0,0,1-.464-1.358v-.055h3.964v-.32a2.216,2.216,0,0,0-2.208-2.33,2.28,2.28,0,0,0-1.811.762,2.87,2.87,0,0,0,.011,3.655,2.231,2.231,0,0,0,1.8.773,2.353,2.353,0,0,0,2.208-1.457Zm-3.4-1.358a1.733,1.733,0,0,1,1.711-1.59,1.377,1.377,0,0,1,1.093.486,1.719,1.719,0,0,1,.442,1.1Zm5.233,2.871h.662v-2.473a2.3,2.3,0,0,1,.386-1.2,1.1,1.1,0,0,1,.927-.618,1.012,1.012,0,0,1,.475.121l.2-.618a1.53,1.53,0,0,0-.585-.11c-.519,0-.95.243-1.4,1.115v-1H25.5Zm3.743,0H29.9v-4.262h.927v-.53H29.9v-1.855h-.662v1.855h-.773v.53h.773Zm2.606-4.792v4.792h.662v-4.792Zm-.033-1.259a.542.542,0,0,0,.729,0,.528.528,0,0,0,0-.718.5.5,0,0,0-.729,0,.528.528,0,0,0,0,.718Zm1.866,5.068a1.908,1.908,0,0,0,3.014.718,1.56,1.56,0,0,0,.42-1.038c0-.806-.5-1.215-1.546-1.535-.243-.077-.42-.132-.53-.177a.767.767,0,0,1-.475-.685.752.752,0,0,1,.817-.762,1.143,1.143,0,0,1,1.049.718l.5-.265a1.556,1.556,0,0,0-1.491-.983,1.39,1.39,0,0,0-1.535,1.347,1.043,1.043,0,0,0,.5.972,3.692,3.692,0,0,0,.894.375c.762.232,1.137.475,1.137,1.016a.908.908,0,0,1-1,.95,1.265,1.265,0,0,1-1.2-.938Zm4.681-3.809v4.792h.662v-4.792Zm-.033-1.259a.542.542,0,0,0,.729,0,.528.528,0,0,0,0-.718.5.5,0,0,0-.729,0,.528.528,0,0,0,0,.718Zm2.33,6.05h.662v-2.5a2.233,2.233,0,0,1,.431-1.4,1.355,1.355,0,0,1,1.1-.563.9.9,0,0,1,.927.53,2.322,2.322,0,0,1,.155.95v2.981H44.6v-3.069a2.093,2.093,0,0,0-.121-.806,1.465,1.465,0,0,0-1.546-1.115,1.692,1.692,0,0,0-1.612.994v-.795h-.662Zm5.476.894a2.062,2.062,0,0,0,2.3,1.579A2.314,2.314,0,0,0,50.8,412.06v-4.637h-.618v.85a1.821,1.821,0,0,0-1.744-1.049,2.372,2.372,0,0,0-1.822.74,2.578,2.578,0,0,0-.7,1.855,2.464,2.464,0,0,0,.74,1.921,2.516,2.516,0,0,0,1.755.673,1.912,1.912,0,0,0,1.722-.938v.585a2.139,2.139,0,0,1-.585,1.722,1.714,1.714,0,0,1-1.126.375,1.489,1.489,0,0,1-1.568-1.049Zm2.285-1.226a1.609,1.609,0,0,1-1.3-.6,2.305,2.305,0,0,1-.486-1.468,2.341,2.341,0,0,1,.464-1.424,1.568,1.568,0,0,1,1.347-.64,1.539,1.539,0,0,1,1.259.6,2.262,2.262,0,0,1,.486,1.468,2.22,2.22,0,0,1-.5,1.5,1.612,1.612,0,0,1-1.27.563Zm7.96.331h.751V405.1h2.065v-.618h-4.88v.618h2.065Zm7.607-1.513a1.812,1.812,0,0,1-1.7,1.181,1.573,1.573,0,0,1-1.292-.6,2.153,2.153,0,0,1-.464-1.358v-.055h3.964v-.32a2.216,2.216,0,0,0-2.208-2.33,2.28,2.28,0,0,0-1.811.762,2.87,2.87,0,0,0,.011,3.655,2.231,2.231,0,0,0,1.8.773,2.353,2.353,0,0,0,2.208-1.457Zm-3.4-1.358a1.733,1.733,0,0,1,1.711-1.59,1.377,1.377,0,0,1,1.093.486,1.719,1.719,0,0,1,.442,1.1Zm9.153,1.943a2.224,2.224,0,0,1-1.513.6,1.973,1.973,0,0,1-1.435-.563,2.022,2.022,0,0,1-.574-1.5,2.052,2.052,0,0,1,.563-1.468,1.987,1.987,0,0,1,1.513-.6,2.516,2.516,0,0,1,1.446.53v-.651a2.5,2.5,0,0,0-1.491-.409,2.757,2.757,0,0,0-1.965.729,2.639,2.639,0,0,0,0,3.732,2.918,2.918,0,0,0,3.456.3Zm1.126.927h.662v-2.5a2.233,2.233,0,0,1,.431-1.4,1.355,1.355,0,0,1,1.1-.563.9.9,0,0,1,.927.53,2.322,2.322,0,0,1,.155.95v2.981h.662v-3.069a2.093,2.093,0,0,0-.121-.806,1.465,1.465,0,0,0-1.546-1.115,1.692,1.692,0,0,0-1.612.994V404.1h-.662Zm5.576,0H77.1v-2.5a2.233,2.233,0,0,1,.431-1.4,1.355,1.355,0,0,1,1.1-.563.9.9,0,0,1,.927.53,2.322,2.322,0,0,1,.155.95v2.981h.662v-3.069a2.093,2.093,0,0,0-.121-.806,1.465,1.465,0,0,0-1.546-1.115,1.692,1.692,0,0,0-1.612.994v-.795h-.662Zm9.749-.53a2.556,2.556,0,0,0,.729-1.866,2.606,2.606,0,1,0-5.211,0,2.655,2.655,0,0,0,4.483,1.866Zm-3.224-.375a2.288,2.288,0,0,1,0-2.981,1.867,1.867,0,0,1,2.694,0,2.288,2.288,0,0,1,0,2.981,1.867,1.867,0,0,1-2.694,0Zm5.278.905h.662V404.1h-.662Zm6.47-.53a2.556,2.556,0,0,0,.729-1.866,2.606,2.606,0,1,0-5.211,0,2.655,2.655,0,0,0,4.483,1.866Zm-3.224-.375a2.288,2.288,0,0,1,0-2.981,1.867,1.867,0,0,1,2.694,0,2.288,2.288,0,0,1,0,2.981,1.867,1.867,0,0,1-2.694,0Zm5.178,1.8a2.062,2.062,0,0,0,2.3,1.579,2.314,2.314,0,0,0,2.374-2.628v-4.637h-.618v.85a1.821,1.821,0,0,0-1.744-1.049,2.372,2.372,0,0,0-1.822.74,2.578,2.578,0,0,0-.7,1.855,2.464,2.464,0,0,0,.74,1.921,2.517,2.517,0,0,0,1.756.673,1.912,1.912,0,0,0,1.722-.938v.585a2.139,2.139,0,0,1-.585,1.722,1.714,1.714,0,0,1-1.126.375,1.489,1.489,0,0,1-1.568-1.049Zm2.285-1.226a1.609,1.609,0,0,1-1.3-.6,2.305,2.305,0,0,1-.486-1.468,2.341,2.341,0,0,1,.464-1.424,1.568,1.568,0,0,1,1.347-.64,1.539,1.539,0,0,1,1.259.6,2.262,2.262,0,0,1,.486,1.468,2.22,2.22,0,0,1-.5,1.5,1.612,1.612,0,0,1-1.27.563Zm3.323-4.461,2.208,4.748-.994,2.363h.718l2.826-7.11h-.674l-1.535,4.052-1.8-4.052Zm8.424,4.792h.662v-4.262h1.082v-.53h-1.082V405.3c0-.519.188-.773.574-.773a1.089,1.089,0,0,1,.508.133V404.1a1.773,1.773,0,0,0-.64-.1c-.74,0-1.1.431-1.1,1.281v2.142h-.773v.53h.773Zm6.89-.53a2.556,2.556,0,0,0,.729-1.866,2.606,2.606,0,1,0-5.211,0,2.655,2.655,0,0,0,4.483,1.866Zm-3.224-.375a2.288,2.288,0,0,1,0-2.981,1.867,1.867,0,0,1,2.694,0,2.288,2.288,0,0,1,0,2.981,1.867,1.867,0,0,1-2.694,0Zm5.278.905h.662v-2.473a2.3,2.3,0,0,1,.386-1.2,1.1,1.1,0,0,1,.927-.618,1.011,1.011,0,0,1,.475.121l.2-.618a1.53,1.53,0,0,0-.585-.11c-.519,0-.95.243-1.4,1.115v-1h-.662Zm5.807,0h.7l.74-5.719,2.838,6.028,2.837-6.028.74,5.719h.7l-1.049-8.038-3.224,6.889-3.224-6.889Zm13.68-1.513a1.812,1.812,0,0,1-1.7,1.181,1.573,1.573,0,0,1-1.292-.6,2.153,2.153,0,0,1-.464-1.358v-.055h3.964v-.32a2.216,2.216,0,0,0-2.208-2.33,2.28,2.28,0,0,0-1.811.762,2.87,2.87,0,0,0,.011,3.655,2.231,2.231,0,0,0,1.8.773,2.353,2.353,0,0,0,2.208-1.457Zm-3.4-1.358a1.733,1.733,0,0,1,1.711-1.59,1.377,1.377,0,0,1,1.093.486,1.719,1.719,0,0,1,.442,1.1Zm9.8,2.871V404.1h-.662v4.1a1.808,1.808,0,0,0-1.7-.972,2.381,2.381,0,0,0-1.811.74,2.576,2.576,0,0,0-.707,1.855,2.464,2.464,0,0,0,.74,1.921,2.517,2.517,0,0,0,1.756.673,1.985,1.985,0,0,0,1.767-1.016v.817Zm-2.385-.331a1.609,1.609,0,0,1-1.3-.6,2.262,2.262,0,0,1-.486-1.468,2.34,2.34,0,0,1,.464-1.424,1.568,1.568,0,0,1,1.347-.64,1.518,1.518,0,0,1,1.259.607,2.253,2.253,0,0,1,.486,1.457,1.826,1.826,0,0,1-1.767,2.065Zm4.019-4.461v4.792h.662v-4.792Zm-.033-1.259a.542.542,0,0,0,.729,0,.528.528,0,0,0,0-.718.5.5,0,0,0-.729,0,.528.528,0,0,0,0,.718Zm6.282,2.109a1.868,1.868,0,0,0-1.755-1.049,2.381,2.381,0,0,0-1.811.74,2.578,2.578,0,0,0-.7,1.855,2.655,2.655,0,0,0,.685,1.855,2.364,2.364,0,0,0,1.811.74,1.985,1.985,0,0,0,1.767-1.016v.817h.618v-4.792h-.618Zm-1.767,3.61a1.609,1.609,0,0,1-1.3-.6,2.305,2.305,0,0,1-.486-1.468,2.152,2.152,0,0,1,.508-1.479,1.68,1.68,0,0,1,1.3-.585,1.539,1.539,0,0,1,1.259.6,2.262,2.262,0,0,1,.486,1.468,2.22,2.22,0,0,1-.5,1.5,1.612,1.612,0,0,1-1.27.563Z" transform="translate(-0.943 -378.81)"/></g><path class="b" d="M36.069,28.389l2.359-5.22,5.823,12.888H54.732L42.155,8.24l-.713,1.423L52.817,34.822H45.051L38.429,20.17l-3.038,6.72Zm-17.428-.047L16.3,23.17,10.481,36.057H0L12.551,8.3l.712,1.423L1.914,34.822l7.77,0L16.3,20.17l3.019,6.67Zm14.187-7.122.749-7.31h5.739l3.993-7.976H11.368l3.993,7.976H21.1l.751,7.335L22.865,19l-.651-6.326H16.123L13.369,7.171H41.311l-2.758,5.5-6.092,0-.646,6.306Zm-2.37,14.624H24.232l.558-1.235H29.9ZM13.619,5.935,16.3,0l2.683,5.935H17.629L16.3,3,14.975,5.935Zm22.126,0L38.429,0l2.684,5.935H39.756L38.429,3,37.1,5.935ZM22.354,40H13.371L27.345,9.094,41.319,40H32.336L27.345,28.954Zm-.8-1.236,5.788-12.811,5.79,12.812H39.4L27.345,12.093,15.286,38.763Z"/></g></svg>