<?xml version="1.0" encoding="utf-8"?>
<!-- Generator: Adobe Illustrator 19.2.0, SVG Export Plug-In . SVG Version: 6.00 Build 0)  -->
<svg version="1.1" id="Layer_1" xmlns="http://www.w3.org/2000/svg" xmlns:xlink="http://www.w3.org/1999/xlink" x="0px" y="0px"
	 viewBox="0 0 875.7 640" style="enable-background:new 0 0 875.7 640;" xml:space="preserve">
<style type="text/css">
	.st0{fill:#01ADFD;}
</style>
<title>logo 640 stroke</title>
<desc>Created with Sketch.</desc>
<g id="Page-1">
	<g id="ATM-Concept-4" transform="translate(-921.000000, -85.000000)">
		<g id="Light-BG">
			<g id="logo-640-stroke" transform="translate(921.000000, 85.000000)">
				<path id="logo" class="st0" d="M577.1,454.2l37.8-83.5L708,576.9h167.7L674.5,131.8l-11.4,22.8l182,402.5l-124.3,0L614.9,322.7
					l-48.6,107.5L577.1,454.2z M298.3,453.5l-37.4-82.8l-93.2,206.2H0l200.8-444.1l11.4,22.8L30.6,557.2l124.3-0.1l105.9-234.4
					l48.3,106.7L298.3,453.5z M525.3,339.5l12-117h91.8L692.9,95H181.9l63.9,127.6h91.8l12,117.4l16.2-35.9l-10.4-101.2H258
					l-44.1-88.1H661l-44.1,88l-97.5,0L509,303.7L525.3,339.5z M487.3,573.5h-99.6l8.9-19.8l81.8,0L487.3,573.5z M217.9,95l42.9-95
					l42.9,95h-21.7L260.8,48L239.6,95H217.9z M571.9,95l42.9-95l42.9,95h-21.7l-21.2-47l-21.2,47H571.9z M357.7,640H213.9
					l223.6-494.5L661.1,640H517.4l-79.9-176.7L357.7,640z M344.9,620.2l92.6-205l92.6,205l100.3,0l-193-426.7L244.6,620.2
					L344.9,620.2z"/>
			</g>
		</g>
	</g>
</g>
</svg>
