<svg id="Layer_1" data-name="Layer 1" xmlns="http://www.w3.org/2000/svg" xmlns:xlink="http://www.w3.org/1999/xlink" viewBox="0 0 441 313"><defs><style>.cls-1,.cls-4,.cls-6{stroke-miterlimit:10;}.cls-1{fill:url(#radial-gradient);stroke:url(#radial-gradient-2);}.cls-2{fill:#01adfd;opacity:0.8;}.cls-3{opacity:0.2;}.cls-4,.cls-6{fill:none;}.cls-4,.cls-5,.cls-6,.cls-8{stroke:#000;}.cls-4{stroke-width:2px;}.cls-7{stroke:#f2f2f2;}.cls-8{fill:#bfbfbf;}</style><radialGradient id="radial-gradient" cx="220" cy="156" r="190.70396" gradientTransform="translate(0.5 39.93189) scale(1 0.74723)" gradientUnits="userSpaceOnUse"><stop offset="0" stop-color="#e6e6e6"/><stop offset="0.21408" stop-color="#f0f0f0"/><stop offset="0.5943" stop-color="#fbfbfb"/><stop offset="1" stop-color="#fff"/></radialGradient><radialGradient id="radial-gradient-2" cx="220.5" cy="156.5" r="191.19689" gradientUnits="userSpaceOnUse"><stop offset="0" stop-color="#e6e6e6"/><stop offset="0.02827" stop-color="#e6e6e6"/><stop offset="0.27005" stop-color="#e8e8e8"/><stop offset="0.40319" stop-color="#f0f0f0"/><stop offset="0.69193" stop-color="#fbfbfb"/><stop offset="1" stop-color="#fff"/></radialGradient></defs><title>popup-image</title><rect class="cls-1" x="0.5" y="0.5" width="440" height="312"/><path id="logo" class="cls-2" d="M240.59984,175.42625l5.60431-12.39749,13.82979,30.61076h24.89362L255.05362,127.5679l-1.69243,3.38088,27.01919,59.7565-18.44754.00015-15.72792-34.80221-7.21543,15.96147Zm-41.39449-.11046-5.55438-12.287-13.82979,30.61076H154.92757l29.81073-65.93183,1.69211,3.38024-26.95614,59.61839,18.45571-.00805,15.72023-34.795L200.82,171.74481Zm33.69623-16.91564,1.77819-17.3625h13.63106l9.48328-18.94426H181.92784l9.48328,18.94426h13.63106l1.78434,17.42255,2.41065-5.33159-1.54561-15.025H193.22244l-6.54179-13.07608h66.37026l-6.54968,13.06966-14.47084.00642-1.53391,14.97728Zm-5.629,34.7342H212.48272l1.32556-2.934,12.13884.00034Zm-39.99575-71.041L193.651,107.9957l6.3729,14.09768h-3.2243l-3.15111-6.96947-3.15121,6.96947Zm52.55449,0,6.37289-14.09768,6.37419,14.09768h-3.22116L246.204,115.1198l-3.15243,6.97358ZM208.02352,203.0043H186.68613l33.19149-73.409,33.19149,73.409H231.73173l-11.85411-26.23779Zm-1.89393-2.93523,13.748-30.42979,13.75164,30.43094,14.89145-.00287L219.877,136.71926l-28.64181,63.34654Z" transform="translate(0.5 0.5)"/><g id="MhGiRD.tif" class="cls-3"><path id="Drupal" d="M367.17443,211.74307c-2.4252-2.4047-4.94058-3.70635-7.20508-6.0748-1.39782-1.49495-3.08276-4.67944-4.48378-7.40648-1.21083,3.58544-2.67434,4.82118-4.201,5.59167a39.40471,39.40471,0,0,1-7.70232,2.48775c-2.20645.55931-14.39467,4.48333-17.53738,18.20883-3.14185,13.72178,6.12763,26.47862,18.98772,29.42317,12.86483,2.94564,26.1507-3.80754,29.37814-17.90311A25.65553,25.65553,0,0,0,367.17443,211.74307ZM358.32919,245.371a11.95936,11.95936,0,0,1-6.11556.95208c-2.94313-.39641-6.8772-1.12886-8.73668-3.79417a.77914.77914,0,0,1,.255-1.11367,1.26141,1.26141,0,0,1,.88738-.19277c.32206.07374.26391.06043.40305.20441.87173,1.09688,2.31417,2.15151,5.72783,2.93313a12.39162,12.39162,0,0,0,7.28851-.17719c.56552-.26147.70545.10735.7118.33333A.82931.82931,0,0,1,358.32919,245.371Zm-8.22456-6.59543a9.82266,9.82266,0,0,1,2.86055-1.19294,4.88422,4.88422,0,0,1,2.31265.19287,4.52457,4.52457,0,0,1,2.292,1.03167,4.285,4.285,0,0,1,.78615,2.18868.77016.77016,0,0,1-.66752.97126c-.41952.12536-.45043.00723-.66634-.76791-.21282-.77566-.37551-1.54362-2.24459-1.97158a4.43159,4.43159,0,0,0-3.67906.61525c-1.07709.53515-1.45917.72826-1.68372.22982C349.19277,239.575,349.39737,239.1717,350.10463,238.77558Zm21.5854-5.72852a13.3393,13.3393,0,0,1-3.30159,6.0709c-1.70343,1.572-2.66182,2.08142-4.13717,1.63013-1.886-.602-4.3623-7.4373-6.79238-8.10854-3.06723-.81254-11.29392,4.19308-16.57936,2.98289-3.20353-.73351-4.05112-1.4308-4.95869-2.37a5.82787,5.82787,0,0,1-1.171-5.69772c1.00784-4.1385,5.78692-7.126,10.712-6.05252,6.25322,1.3737,9.158,8.58453,12.31464,9.25435,2.68171.56107,9.002-3.48068,11.50984-2.90648C371.954,228.46076,372.06861,231.39363,371.69,233.04706Z" transform="translate(0.5 0.5)"/></g><g class="cls-3"><path d="M71.90477,87.03458a26.39383,26.39383,0,0,0,19.31895,20.29867L71.99716,76.055A26.28882,26.28882,0,0,0,71.90477,87.03458Z" transform="translate(0.5 0.5)"/><path d="M114.95085,76.896a13.89389,13.89389,0,0,0-3.58679-6.69622c-1.74511-1.86256-3.34152-3.41569-3.77592-5.54558a4.56974,4.56974,0,0,1,3.4059-5.475c.11464-.02338.22628-.03129.33927-.04767A26.38347,26.38347,0,0,0,73.26123,71.96594c.61036-.10553,1.18467-.20934,1.67028-.30838,2.70455-.55161,6.82409-1.73364,6.82409-1.73364A1.09034,1.09034,0,0,1,82.35582,72.02s-1.36712.45051-2.90914.85009L94.575,98.957l2.19726-18.12484-6.27974-10.216c-1.409.20231-2.76172.30652-2.76172.30652a1.09028,1.09028,0,0,1-.27106-2.16321s4.337-.54275,6.87776-1.06094c2.70406-.55151,6.82409-1.73364,6.82409-1.73364a1.09033,1.09033,0,0,1,.60021,2.09607s-1.37007.45111-2.90914.85009l15.0132,25.88955.8213-9.14448C115.07556,81.85177,115.40232,79.10951,114.95085,76.896Z" transform="translate(0.5 0.5)"/><path d="M98.67654,83.93014l-3.16011,24.12547a26.40163,26.40163,0,0,0,15.8067-3.65333,2.31747,2.31747,0,0,1-.25666-.31868Z" transform="translate(0.5 0.5)"/><path d="M117.91978,64.72806a20.24756,20.24756,0,0,1,.71645,2.62327,24.89314,24.89314,0,0,1-.07711,9.6625l-3.24073,24.44632a26.39365,26.39365,0,0,0,2.60139-36.73209Z" transform="translate(0.5 0.5)"/><path d="M91.61432,51.62067a30.7615,30.7615,0,1,0,36.29,23.99244A30.79636,30.79636,0,0,0,91.61432,51.62067Zm12.01311,58.90041a29.35126,29.35126,0,1,1,22.89189-34.62549A29.38542,29.38542,0,0,1,103.62743,110.52108Z" transform="translate(0.5 0.5)"/></g><g class="cls-3"><path d="M130.97057,204.55761a16.42815,16.42815,0,0,0-4.82692-6.9868,16.60482,16.60482,0,0,0-16.29414-2.97882,16.4263,16.4263,0,0,0-6.98683,4.82706,16.524,16.524,0,0,0,4.61245,25.18342.96163.96163,0,0,0,.87227.00678.84019.84019,0,0,0,.39056-.58356q.01159-.0634.198-1.14314.1862-1.08.33314-1.88255l-.50147-.00478a6.30348,6.30348,0,0,1-1.18648-.14041,9.08469,9.08469,0,0,1-1.44169-.41648,3.33643,3.33643,0,0,1-1.30021-.89243,2.72594,2.72594,0,0,1-.69214-1.46949l-.12243-.525a5.36837,5.36837,0,0,0-.46859-1.19937,2.5925,2.5925,0,0,0-.77248-.971l-.1286-.133a1.5772,1.5772,0,0,1-.22829-.304,1.17859,1.17859,0,0,1-.136-.33062q-.03641-.15984.15014-.22415a1.39337,1.39337,0,0,1,.63017.0176l.411.14038a3.13612,3.13612,0,0,1,.95344.69838,3.46753,3.46753,0,0,1,.82406,1.286,3.78712,3.78712,0,0,0,.93144,1.5355,2.52939,2.52939,0,0,0,1.3011.70724,6.10957,6.10957,0,0,0,1.22389.11489,4.273,4.273,0,0,0,1.00895-.14333,3.48094,3.48094,0,0,1,1.4334-1.98769,14.71069,14.71069,0,0,1-2.09662-.77648A8.768,8.768,0,0,1,107.226,214.794a5.78378,5.78378,0,0,1-1.44257-1.72678,6.91726,6.91726,0,0,1-.70368-2.42191,10.72735,10.72735,0,0,1,.14636-3.24925,6.26634,6.26634,0,0,1,2.46564-4.04849,5.77552,5.77552,0,0,1,.93595-4.284,3.0105,3.0105,0,0,1,1.76539.61748,12.91759,12.91759,0,0,1,1.61591,1.13641q.49854.44008.79395.73478a15.516,15.516,0,0,1,8.11583,1.4837l.89575-.36016a11.56223,11.56223,0,0,1,2.114-.5747,2.8155,2.8155,0,0,1,1.75489.08078,5.71978,5.71978,0,0,1-.61943,4.34187,6.26743,6.26743,0,0,1,.87393,4.659,10.84732,10.84732,0,0,1-1.01468,3.10122,6.64864,6.64864,0,0,1-1.52527,2.01443,6.00618,6.00618,0,0,1-1.96913,1.09236,8.78471,8.78471,0,0,1-2.13744.4611,14.69544,14.69544,0,0,1-2.23574-.01508,3.82655,3.82655,0,0,1,.55,3.20162l-.81515,4.45886a.85581.85581,0,0,0,.14854.68211.93311.93311,0,0,0,.80767.30026,16.536,16.536,0,0,0,13.22381-21.922Z" transform="translate(0.5 0.5)"/></g><g class="cls-3"><path class="cls-4" d="M345.00068,104.33345v11.66683a8.3365,8.3365,0,0,1-8.33345,8.33345H319.63367l-13.1085,11.14181a2.17914,2.17914,0,0,1-3.6084-1.51669v-9.63346A8.34418,8.34418,0,0,1,295,116.00027V104.33345A8.33647,8.33647,0,0,1,303.33345,96h33.33379A8.33647,8.33647,0,0,1,345.00068,104.33345Z" transform="translate(0.5 0.5)"/><path d="M312.21337,113.21174H308.48l-.59978,1.74685h-2.7869l3.827-10.05344h2.85323l3.827,10.05344h-2.7869Zm-.693-1.98652-1.17352-3.34681-1.17352,3.34681Z" transform="translate(0.5 0.5)"/><path d="M316.74712,104.90515h3.86643a4.56183,4.56183,0,0,1,1.9267.41342,5.24675,5.24675,0,0,1,1.57351,1.09987,5.109,5.109,0,0,1,1.06,1.6,4.93437,4.93437,0,0,1,.00651,3.81353,5.08166,5.08166,0,0,1-1.05307,1.60647,5.186,5.186,0,0,1-1.57351,1.10679,4.587,4.587,0,0,1-1.94013.41342h-3.86643Zm2.61315,7.84028h.60019a3.24239,3.24239,0,0,0,1.2134-.21363,2.58879,2.58879,0,0,0,.89967-.58676,2.50665,2.50665,0,0,0,.56031-.88665,3.17644,3.17644,0,0,0,.19328-1.12672,3.08965,3.08965,0,0,0-.2002-1.11981,2.50742,2.50742,0,0,0-1.46649-1.47992,3.21186,3.21186,0,0,0-1.2-.21363h-.60019Z" transform="translate(0.5 0.5)"/><path d="M332.7471,107.47843a3.233,3.233,0,0,0-.85369-.51311,2.26616,2.26616,0,0,0-.82643-.16683,1.34231,1.34231,0,0,0-.82683.24007.748.748,0,0,0-.31983.62664.62254.62254,0,0,0,.15991.43987,1.39692,1.39692,0,0,0,.41993.3003,3.57083,3.57083,0,0,0,.58676.21973q.32654.09339.64657.2002a4.03439,4.03439,0,0,1,1.8734,1.13975,2.81372,2.81372,0,0,1,.59327,1.86038,3.61865,3.61865,0,0,1-.26,1.39976,2.92152,2.92152,0,0,1-.75969,1.07342,3.51057,3.51057,0,0,1-1.22682.69337,5.11193,5.11193,0,0,1-1.64675.24659,6.05455,6.05455,0,0,1-3.53317-1.13323l1.11981-2.10656a4.54615,4.54615,0,0,0,1.16009.77312,2.78855,2.78855,0,0,0,1.13323.2535,1.35157,1.35157,0,0,0,.95338-.29338.90952.90952,0,0,0,.23356-1.06.85513.85513,0,0,0-.26693-.30681,2.14666,2.14666,0,0,0-.48666-.26q-.29969-.12024-.72674-.26652-.5066-.15991-.99326-.3536a3.11921,3.11921,0,0,1-.86671-.51311,2.3878,2.3878,0,0,1-.61321-.8069,2.84706,2.84706,0,0,1-.23356-1.23333,3.55846,3.55846,0,0,1,.247-1.35337,3.00782,3.00782,0,0,1,.69337-1.04005,3.0914,3.0914,0,0,1,1.093-.673,4.1276,4.1276,0,0,1,1.447-.24007,6.32712,6.32712,0,0,1,1.56008.20671,6.88556,6.88556,0,0,1,1.56008.6067Z" transform="translate(0.5 0.5)"/></g><g class="cls-3"><path d="M228.12367,247.40413a32.32567,32.32567,0,0,0-5.62528-.099c-1.47966.22883-1.15646.85564-.62986,1.57638,1.82349,2.49575,3.706,4.94841,5.5667,7.41695,1.072,1.42219.67478,2.64973-1.03313,3.18883-3.14364.99229-4.08775.68534-5.71429-2.17913-1.32416-2.33194-2.55738-4.72046-3.71919-7.1376-.60467-1.258-1.1283-2.0699-2.81907-1.66894-2.288.54259-3.25846-1.2976-4.07387-2.94054a9.91486,9.91486,0,0,1-.85081-5.4673,2.71035,2.71035,0,0,1,1.98558-2.70114c8.0759-2.14419,15.28772-6.15091,22.42089-10.335,2.71569-1.59293,4.39581-.241,5.54331,1.68066a26.36938,26.36938,0,0,1,3.63621,13.71051,7.55291,7.55291,0,0,1-.64549,3.16242,2.59686,2.59686,0,0,1-2.59885,1.81465C235.75317,247.36269,231.93808,247.40413,228.12367,247.40413Zm.826-1.51925-.00324.06179c2.4308,0,4.86277-.04417,7.29188.02,1.09515.02892,1.22744-.41327.73692-1.185a24.939,24.939,0,0,1-3.61735-14.1964c.03282-1.77907-.51515-1.44025-1.536-.8826-3.23383,1.76648-6.3896,3.66661-9.79741,5.12051-3.66769,1.56477-3.98944,2.47438-2.99972,6.50586a21.35633,21.35633,0,0,0,1.146,3.23772,1.94122,1.94122,0,0,0,2.1706,1.34518C224.54068,245.81989,226.74656,245.88488,228.94971,245.88488Zm-18.54715-4.41223a14.97663,14.97663,0,0,0,.83328,3.29636c.50822,1.01135.98188,2.41846,2.48145,2.33681,1.31572-.07165,2.60809-.49937,3.92443-.65187,1.40195-.16242,1.51212-.96893,1.02136-1.96315a10.12627,10.12627,0,0,1-1.0888-3.198c-.55915-4.25191-.562-4.17039-4.76847-3.019A2.80038,2.80038,0,0,0,210.40255,241.47265Zm31.06024-.0891a25.60388,25.60388,0,0,0-3.75137-12.39186c-.46051-.68619-1.07719-1.64183-1.84313-1.02928-1.16185.92917-1.15949,2.44386-1.16573,3.90926-.00493,1.15835.53494,1.37009,1.46667,1.72959a4.40262,4.40262,0,0,1,1.35084,7.30584c-.33585.31695-.84014.42926-.47035,1.0754.82055,1.43378,1.25046,3.867,2.914,3.75472,1.7338-.117,1.2938-2.4573,1.44865-3.9491C241.4264,241.653,241.44715,241.51857,241.46279,241.38356Zm-17.12686,17.14093c1.93483-.01994,2.34638-.63954,1.14418-2.43121-1.79138-2.66972-3.7181-5.2492-5.61125-7.84959a1.30449,1.30449,0,0,0-1.62074-.492c-.94068.37364-.39362,1.13547-.19322,1.53783,1.40274,2.81647,2.91444,5.57842,4.35689,8.37555C222.78982,258.39817,223.39891,258.51188,224.33593,258.52449Zm10.95472-23.58139c-.60825,1.0404.07723,2.00152.32712,2.87658.164.57432-.196,2.06986,1.00172,1.74215,1.055-.28868,1.01525-1.454.7609-2.546A2.31125,2.31125,0,0,0,235.29065,234.9431Z" transform="translate(0.5 0.5)"/></g><g class="cls-3"><circle cx="226.90819" cy="44.36262" r="1" transform="translate(-3.75624 40.57628) rotate(-10.00003)"/><circle cx="236.75627" cy="42.62613" r="1" transform="translate(-3.30509 42.26) rotate(-10.00003)"/><circle cx="246.60435" cy="40.88965" r="1" transform="translate(-2.85394 43.94372) rotate(-10.00003)"/><circle cx="256.45242" cy="39.15316" r="1" transform="translate(-2.40278 45.62745) rotate(-10.00003)"/><circle cx="266.3005" cy="37.41667" r="1" transform="translate(-1.95163 47.31117) rotate(-10.00003)"/><circle cx="276.14858" cy="35.68019" r="1" transform="translate(-1.50048 48.9949) rotate(-10.00003)"/><circle cx="285.99665" cy="33.9437" r="1" transform="translate(-1.04932 50.67862) rotate(-10.00003)"/><circle cx="295.84473" cy="32.20721" r="1" transform="translate(-0.59817 52.36235) rotate(-10.00003)"/><circle cx="228.64468" cy="54.2107" r="1" transform="translate(-5.43997 41.02743) rotate(-10.00003)"/><circle cx="238.49276" cy="52.47421" r="1" transform="translate(-4.98882 42.71115) rotate(-10.00003)"/><circle cx="248.34083" cy="50.73772" r="1" transform="translate(-4.53766 44.39488) rotate(-10.00003)"/><circle cx="258.18891" cy="49.00124" r="1" transform="translate(-4.08651 46.0786) rotate(-10.00003)"/><circle cx="268.03699" cy="47.26475" r="1" transform="translate(-3.63535 47.76233) rotate(-10.00003)"/><circle cx="277.88506" cy="45.52826" r="1" transform="translate(-3.1842 49.44605) rotate(-10.00003)"/><circle cx="287.73314" cy="43.79178" r="1" transform="translate(-2.73305 51.12977) rotate(-10.00003)"/><circle cx="297.58122" cy="42.05529" r="1" transform="translate(-2.28189 52.8135) rotate(-10.00003)"/><circle cx="230.38117" cy="64.05877" r="1" transform="translate(-7.12369 41.47858) rotate(-10.00003)"/><circle cx="240.22924" cy="62.32229" r="1" transform="translate(-6.67254 43.16231) rotate(-10.00003)"/><circle cx="250.07732" cy="60.5858" r="1" transform="translate(-6.22139 44.84603) rotate(-10.00003)"/><circle cx="259.9254" cy="58.84931" r="1" transform="translate(-5.77023 46.52976) rotate(-10.00003)"/><circle cx="269.77347" cy="57.11283" r="1" transform="translate(-5.31908 48.21348) rotate(-10.00003)"/><circle cx="279.62155" cy="55.37634" r="1" transform="translate(-4.86792 49.8972) rotate(-10.00003)"/><circle cx="289.46963" cy="53.63985" r="1" transform="translate(-4.41677 51.58093) rotate(-10.00003)"/><circle cx="299.3177" cy="51.90337" r="1" transform="translate(-3.96562 53.26465) rotate(-10.00003)"/><circle cx="232.11765" cy="73.90685" r="1" transform="translate(-8.80742 41.92974) rotate(-10.00003)"/><circle cx="241.96573" cy="72.17036" r="1" transform="translate(-8.35626 43.61346) rotate(-10.00003)"/><circle cx="251.81381" cy="70.43388" r="1" transform="translate(-7.90511 45.29719) rotate(-10.00003)"/><circle cx="261.66188" cy="68.69739" r="1" transform="translate(-7.45396 46.98091) rotate(-10.00003)"/><circle cx="271.50996" cy="66.9609" r="1" transform="translate(-7.0028 48.66463) rotate(-10.00003)"/><circle cx="281.35804" cy="65.22442" r="1" transform="translate(-6.55165 50.34836) rotate(-10.00003)"/><circle cx="291.20611" cy="63.48793" r="1" transform="translate(-6.10049 52.03208) rotate(-10.00003)"/><circle cx="301.05419" cy="61.75144" r="1" transform="translate(-5.64934 53.71581) rotate(-10.00003)"/></g><g class="cls-3"><line class="cls-5" x1="327.5" y1="177.5" x2="330.32843" y2="174.67157"/><line class="cls-5" x1="330.32843" y1="177.5" x2="327.5" y2="174.67157"/></g><g class="cls-3"><line class="cls-6" x1="86.5" y1="178.5" x2="89.32843" y2="175.67157"/><line class="cls-6" x1="89.32843" y1="178.5" x2="86.5" y2="175.67157"/></g><g class="cls-3"><line class="cls-5" x1="159.5" y1="260.5" x2="162.32843" y2="257.67157"/><line class="cls-5" x1="162.32843" y1="260.5" x2="159.5" y2="257.67157"/></g><g class="cls-3"><line class="cls-7" x1="147.5" y1="143.5" x2="150.32843" y2="140.67157"/><line class="cls-7" x1="150.32843" y1="143.5" x2="147.5" y2="140.67157"/></g><g class="cls-3"><line class="cls-8" x1="117.5" y1="133.5" x2="120.32843" y2="130.67157"/><line class="cls-8" x1="120.32843" y1="133.5" x2="117.5" y2="130.67157"/></g><g class="cls-3"><line class="cls-5" x1="156.5" y1="85.5" x2="159.32843" y2="82.67157"/><line class="cls-5" x1="159.32843" y1="85.5" x2="156.5" y2="82.67157"/></g><g class="cls-3"><line class="cls-5" x1="386.5" y1="150.5" x2="389.32843" y2="147.67157"/><line class="cls-5" x1="389.32843" y1="150.5" x2="386.5" y2="147.67157"/></g><g class="cls-3"><line class="cls-8" x1="302.5" y1="255.5" x2="305.32843" y2="252.67157"/><line class="cls-8" x1="305.32843" y1="255.5" x2="302.5" y2="252.67157"/></g><g class="cls-3"><line class="cls-5" x1="69.5" y1="139.5" x2="72.32843" y2="136.67157"/><line class="cls-5" x1="72.32843" y1="139.5" x2="69.5" y2="136.67157"/></g><g class="cls-3"><line class="cls-5" x1="86.5" y1="21.5" x2="89.32843" y2="18.67157"/><line class="cls-5" x1="89.32843" y1="21.5" x2="86.5" y2="18.67157"/></g><g class="cls-3"><line class="cls-6" x1="277.5" y1="296.5" x2="280.32843" y2="293.67157"/><line class="cls-6" x1="280.32843" y1="296.5" x2="277.5" y2="293.67157"/></g><g class="cls-3"><circle cx="66.06688" cy="243.1574" r="1" transform="translate(-184.64411 224.07707) rotate(-70.34262)"/><circle cx="75.48409" cy="246.52135" r="1" transform="translate(-181.56271 235.17779) rotate(-70.34262)"/><circle cx="84.9013" cy="249.88529" r="1" transform="translate(-178.4813 246.2785) rotate(-70.34262)"/><circle cx="94.31851" cy="253.24924" r="1" transform="matrix(0.33639, -0.94172, 0.94172, 0.33639, -175.39989, 257.37922)"/><circle cx="103.73572" cy="256.61319" r="1" transform="translate(-172.31848 268.47994) rotate(-70.34262)"/><circle cx="113.15293" cy="259.97714" r="1" transform="matrix(0.33639, -0.94172, 0.94172, 0.33639, -169.23707, 279.58066)"/><circle cx="122.57014" cy="263.34109" r="1" transform="translate(-166.15567 290.68138) rotate(-70.34262)"/><circle cx="131.98735" cy="266.70504" r="1" transform="translate(-163.07426 301.7821) rotate(-70.34262)"/><circle cx="62.70293" cy="252.57461" r="1" transform="translate(-195.74483 227.15847) rotate(-70.34262)"/><circle cx="72.12014" cy="255.93856" r="1" transform="translate(-192.66342 238.25919) rotate(-70.34262)"/><circle cx="81.53735" cy="259.3025" r="1" transform="translate(-189.58202 249.35991) rotate(-70.34262)"/><circle cx="90.95456" cy="262.66645" r="1" transform="translate(-186.50061 260.46063) rotate(-70.34262)"/><circle cx="100.37177" cy="266.0304" r="1" transform="translate(-183.4192 271.56135) rotate(-70.34262)"/><circle cx="109.78898" cy="269.39435" r="1" transform="translate(-180.33779 282.66207) rotate(-70.34262)"/><circle cx="119.20619" cy="272.7583" r="1" transform="translate(-177.25638 293.76279) rotate(-70.34262)"/><circle cx="128.6234" cy="276.12225" r="1" transform="translate(-174.17498 304.8635) rotate(-70.34262)"/><circle cx="59.33898" cy="261.99182" r="1" transform="translate(-206.84555 230.23988) rotate(-70.34262)"/><circle cx="68.75619" cy="265.35577" r="1" transform="matrix(0.33639, -0.94172, 0.94172, 0.33639, -203.76414, 241.3406)"/><circle cx="78.1734" cy="268.71971" r="1" transform="translate(-200.68273 252.44132) rotate(-70.34262)"/><circle cx="87.59061" cy="272.08366" r="1" transform="translate(-197.60133 263.54204) rotate(-70.34262)"/><circle cx="97.00782" cy="275.44761" r="1" transform="translate(-194.51992 274.64276) rotate(-70.34262)"/><circle cx="106.42503" cy="278.81156" r="1" transform="translate(-191.43851 285.74348) rotate(-70.34262)"/><circle cx="115.84224" cy="282.17551" r="1" transform="translate(-188.3571 296.84419) rotate(-70.34262)"/><circle cx="125.25945" cy="285.53946" r="1" transform="translate(-185.27569 307.94491) rotate(-70.34262)"/><circle cx="55.97503" cy="271.40903" r="1" transform="translate(-217.94627 233.32129) rotate(-70.34262)"/><circle cx="65.39224" cy="274.77298" r="1" transform="translate(-214.86486 244.42201) rotate(-70.34262)"/><circle cx="74.80945" cy="278.13692" r="1" transform="translate(-211.78345 255.52273) rotate(-70.34262)"/><circle cx="84.22666" cy="281.50087" r="1" transform="translate(-208.70205 266.62345) rotate(-70.34262)"/><circle cx="93.64387" cy="284.86482" r="1" transform="matrix(0.33639, -0.94172, 0.94172, 0.33639, -205.62064, 277.72416)"/><circle cx="103.06108" cy="288.22877" r="1" transform="translate(-202.53923 288.82488) rotate(-70.34262)"/><circle cx="112.47829" cy="291.59272" r="1" transform="translate(-199.45782 299.9256) rotate(-70.34262)"/><circle cx="121.8955" cy="294.95667" r="1" transform="matrix(0.33639, -0.94172, 0.94172, 0.33639, -196.37641, 311.02632)"/></g></svg>