<svg xmlns="http://www.w3.org/2000/svg" viewBox="1938 2453 416.472 642"><defs><style>.a,.b,.c,.e,.f,.h{fill:none;}.a,.b{stroke:#bfbfbf;stroke-linecap:round;stroke-linejoin:round;}.a,.b,.c,.d,.e,.f{stroke-width:4px;}.b{stroke-dasharray:12.079 12.079;}.c{stroke:#01adfd;}.d{fill:#fff;stroke:#ff0031;}.e{stroke:#ffcc2f;}.f{stroke:#2ef6a5;}.g{stroke:none;}</style></defs><g transform="translate(1186 565)"><g transform="translate(782 1898)"><g transform="translate(2 2)"><path class="a" d="M162,830.54V826" transform="translate(3.415 -202.54)"/><path class="b" d="M167.016,616.841C165.155,291.491,98.368,27.5,13.8,4.2" transform="translate(-1.601 -2.535)"/><path class="a" d="M8.2,2.454A42.776,42.776,0,0,0,2,2" transform="translate(-2 -2)"/></g></g><g transform="translate(751.883 2177.702)"><g transform="translate(32.117 46.298)"><path class="a" d="M162,828.2V826" transform="translate(3.415 -524.198)"/><path class="b" d="M167.016,300.765C165.155,143.271,98.368,15.481,13.8,4.2" transform="translate(-1.601 -3.394)"/><path class="a" d="M8.2,2.22Q5.1,2,2,2" transform="translate(-2 -2)"/></g></g><g transform="translate(947.415 2010)"><g transform="translate(2 2)"><path class="a" d="M2,829.73V826" transform="translate(-2 -313.73)"/><path class="b" d="M2,507.58C4.009,240.254,76.113,23.348,167.414,4.2" transform="translate(-2 -2.832)"/><path class="a" d="M156,2.373A60.444,60.444,0,0,1,162.7,2" transform="translate(15.888 -2)"/></g></g><g transform="translate(947.415 2310.844)"><g transform="translate(2 2)"><path class="a" d="M2,827.555V826" transform="translate(-2 -612.399)"/><path class="b" d="M2,214.094C4.009,102.628,76.113,12.184,167.414,4.2" transform="translate(-2 -3.63)"/><path class="a" d="M156,2.156Q159.348,2,162.7,2" transform="translate(15.888 -2)"/></g></g><g transform="translate(-20 -141)"><g class="c" transform="translate(772 2029)"><circle class="g" cx="12" cy="12" r="12"/><circle class="h" cx="12" cy="12" r="10"/></g></g><g transform="translate(21 -149)"><g class="d" transform="translate(1123 2149)"><rect class="g" width="24" height="24"/><rect class="h" x="2" y="2" width="20" height="20"/></g></g><g transform="translate(39.728 -90.272)"><g class="e" transform="translate(725 2302.272) rotate(45)"><rect class="g" width="18" height="18"/><rect class="h" x="2" y="2" width="14" height="14"/></g></g><g transform="translate(-49.1 -142)"><path class="f" d="M11.5,0,0,20H23.1Z" transform="translate(1191 2446)"/></g></g></svg>