<svg id="Layer_1" data-name="Layer 1" xmlns="http://www.w3.org/2000/svg" viewBox="0 0 757.65332 234"><defs><style>.cls-1{fill:#01adfd;}.cls-2{fill:#3b1ffa;}.cls-3{fill:#2ba9e0;}</style></defs><title>atm+dp</title><path id="logo" class="cls-1" d="M154.2101,147.86726l10.08777-22.31549,24.89362,55.09938H234L180.22691,61.72222l-3.04636,6.08556L225.815,175.36951l-33.20557.00027-28.31027-62.644-12.98776,28.73065ZM79.7,147.66843l-9.99789-22.11661L44.80852,180.6512H0L53.65936,61.97389l3.04581,6.08444L8.184,175.37146l33.22028-.0145,28.29642-62.631L82.6064,141.24069Zm60.6532-30.44812L143.554,85.9678h24.53592l17.06989-34.09967H48.60049L65.67039,85.9678H90.2063l3.21182,31.3606,4.33916-9.59686-2.7821-27.045H68.93077L57.15553,57.14959H176.622L164.8326,80.675l-26.04752.01157-2.761,26.95911ZM130.221,179.74188H103.59929l2.386-5.2812,21.84991.0006ZM58.22867,51.86806,69.70219,26.49225,81.1734,51.86808H75.36964l-5.672-12.545-5.6722,12.545Zm94.5981,0L164.298,26.49223l11.47354,25.37583h-5.7981l-5.67584-12.55243-5.67438,12.55244Zm-57.254,145.63969H57.16547L116.91017,65.37154l59.74469,132.13622H138.24757l-21.3374-47.228Zm-3.40909-5.28342,24.7464-54.77364,24.75293,54.7757,26.8046-.00516L116.909,78.19464l-51.5553,114.0238Z"/><path class="cls-2" d="M414.253,107.92307v18.35265h-26.7243V153H369.337V126.27571H342.45235V107.92307H369.337V81.03842h18.19174v26.88464Z"/><path class="cls-3" d="M620.28651,143.88383a36.92157,36.92157,0,1,0,36.92156,36.92157A36.92642,36.92642,0,0,0,620.28651,143.88383Z"/><path class="cls-3" d="M666.2458,136.80778A63.62586,63.62586,0,0,1,656.64759,233c30.47605-9.388,55.69761-32.29761,66.97725-60.04131,15.62335-38.39281,1.0509-67.25749-23.32994-93.45989a47.37605,47.37605,0,0,1,1.191,10.509A48.75363,48.75363,0,0,1,666.2458,136.80778Z"/><path class="cls-3" d="M624.4901,90.07784A28.26919,28.26919,0,1,0,652.7943,61.8437,28.24047,28.24047,0,0,0,624.4901,90.07784Z"/><path class="cls-3" d="M571.59489,221.79044A63.621,63.621,0,0,1,612.72,117.68144a48.5973,48.5973,0,0,1,40.07425-76.22515,49.26683,49.26683,0,0,1,6.51557.42036C643.40627,28.14491,627.50267,14.203,614.962-1,621.3374,65.697,554.22,41.45629,529.34877,102.96887,512.74458,144.16407,527.73739,195.09762,571.59489,221.79044Z"/></svg>