<svg id="Layer_1" data-name="Layer 1" xmlns="http://www.w3.org/2000/svg" viewBox="0 0 757.65329 234"><defs><style>.cls-1{fill:#01adfd;isolation:isolate;}.cls-2{fill:#09aada;}.cls-3{fill:#3b1ffa;}</style></defs><title>atm+wp</title><path id="logo" class="cls-1" d="M279.95706,210.86727l10.08776-22.31549,24.89362,55.09938H359.747L305.97387,124.72222l-3.04637,6.08557L351.562,238.36951l-33.20558.00027-28.31026-62.644-12.98776,28.73065Zm-74.51008-.19883-9.99789-22.11661-24.89362,55.09938H125.747l53.65932-118.67731,3.0458,6.08444L133.931,238.37146l33.22027-.0145,28.29642-62.631,12.90567,28.51472ZM266.1002,180.2203l3.20073-31.25251h24.53591l17.0699-34.09967H174.34746l17.0699,34.09967h24.53591l3.21183,31.36059,4.33916-9.59686-2.7821-27.045H194.67774l-11.77523-23.53695H302.369L290.57955,143.675l-26.04752.01156-2.761,26.95911ZM255.968,242.74188H229.34626l2.386-5.28121,21.84991.0006ZM183.97563,114.86806l11.47352-25.37581,11.47121,25.37583h-5.80375l-5.672-12.545-5.67219,12.545Zm94.59809,0,11.47121-25.37583,11.47355,25.37583h-5.79809l-5.67584-12.55243-5.67438,12.55244Zm-57.254,145.6397h-38.4073l59.7447-132.13621,59.7447,132.13621h-38.4073l-21.3374-47.228Zm-3.40909-5.28341,24.7464-54.77364,24.75294,54.7757,26.80461-.00516-51.5586-114.02659L191.10067,255.21845Z" transform="translate(-125.74696 -63)"/><path class="cls-2" d="M665.09617,179.44854a100.34518,100.34518,0,0,0,56.313,90.63964l-47.362-131.43925A99.629,99.629,0,0,0,665.09617,179.44854Z" transform="translate(-125.74696 -63)"/><path class="cls-2" d="M833.96785,175.30264a52.68048,52.68048,0,0,0-8.16062-27.72613c-5.06415-8.29537-9.81492-15.32285-9.76951-23.59044a17.4141,17.4141,0,0,1,17.024-17.72268c.4469.00244.87046.06013,1.30571.08734a100.936,100.936,0,0,0-152.38963,18.06313c2.3645.08352,4.5929.14529,6.48595.15561,10.54315.05737,26.87025-1.12769,26.87025-1.12769a4.14687,4.14687,0,0,1,.601,8.27113s-5.464.61006-11.54194.894l36.10982,108.91595,22.42028-65.75527-15.4693-42.93027c-5.426-.34655-10.56477-1.01435-10.56477-1.01435a4.14664,4.14664,0,0,1,.68216-8.26413s16.639,1.3644,26.54366,1.41834c10.54125.05735,26.87025-1.12769,26.87025-1.12769a4.14684,4.14684,0,0,1,.601,8.2711s-5.4755.61-11.54194.894L815.87834,241.1061,826.116,207.70656C830.54982,193.84791,833.92073,183.89482,833.96785,175.30264Z" transform="translate(-125.74696 -63)"/><path class="cls-2" d="M767.614,188.78613,736.891,276.1274a101.25689,101.25689,0,0,0,61.95584-1.26331,8.80029,8.80029,0,0,1-.70973-1.3866Z" transform="translate(-125.74696 -63)"/><path class="cls-2" d="M854.604,132.32428a76.68858,76.68858,0,0,1,.62234,10.32433,94.33865,94.33865,0,0,1-7.86158,35.90868L816.08889,267.03A100.15909,100.15909,0,0,0,854.604,132.32428Z" transform="translate(-125.74696 -63)"/><path class="cls-2" d="M766.536,63.00175c-64.89267-.34945-117.78307,51.74918-118.134,116.36552s51.97046,117.28152,116.86313,117.631c64.89119.34942,117.78094-51.74688,118.134-116.36171C883.67866,116.0486,831.39936,63.42411,766.536,63.00175Zm-1.2549,228.63365c-61.91771-.33378-111.84018-50.58486-111.505-112.23892S704.57731,68.03253,766.495,68.36632,878.3352,118.95117,878,180.60523l0,.00192C877.59195,242.23038,827.16866,291.89741,765.2811,291.63539Z" transform="translate(-125.74696 -63)"/><path class="cls-3" d="M540,170.92307v18.35264H513.27571V216H495.08395V189.27571H468.1993V170.92307h26.88465V144.03842h18.19176v26.88465Z" transform="translate(-125.74696 -63)"/></svg>