<svg xmlns="http://www.w3.org/2000/svg" viewBox="0 0 115 115"><defs><style>.cls-1,.cls-2,.cls-3{fill:none;stroke-linecap:round;stroke-linejoin:round;stroke-width:3px;}.cls-1{stroke:#3b1ffa;}.cls-2{stroke:#2ef6a5;}.cls-3{stroke:#09f;}</style></defs><title>ux-icon</title><g id="Layer_2" data-name="Layer 2"><g id="Layer_1-2" data-name="Layer 1"><path class="cls-1" d="M53.481,66.92581V41.8826a4.06781,4.06781,0,1,1,8.10221,0V58.087a4.06781,4.06781,0,1,1,8.10221,0v2.94626a4.06781,4.06781,0,1,1,8.10221,0v1.47313a3.69636,3.69636,0,0,1,4.5374-3.58414,3.75572,3.75572,0,0,1,2.82825,3.69094V80.184A18.479,18.479,0,0,1,77.43842,91.984a4.13375,4.13375,0,0,1-2.35671.72154H60.97477a5.27535,5.27535,0,0,1-3.04342-.94657,23.93326,23.93326,0,0,1-5.187-4.94595c-2.3188-3.01037-3.00906-5.45123-5.156-10.31191-1.10642-2.505-2.78824-6.0794-5.156-10.31191a4.42175,4.42175,0,0,1,1.47313-5.89252,4.36785,4.36785,0,0,1,5.156.73656Q51.27127,63.97957,53.481,66.92581Z"/><line class="cls-1" x1="61.58318" y1="58.08703" x2="61.58327" y2="65.82096"/><line class="cls-1" x1="69.68539" y1="61.03329" x2="69.68548" y2="67.63935"/><line class="cls-1" x1="77.7876" y1="62.50642" x2="77.78769" y2="70.81579"/><path class="cls-2" d="M46.71915,48.56524H34.912a8.86476,8.86476,0,0,1-8.83878-8.83878V31.1332A8.86476,8.86476,0,0,1,34.912,22.29442H80.088a8.86476,8.86476,0,0,1,8.83878,8.83878v8.59326A8.86476,8.86476,0,0,1,80.088,48.56524H68.03531"/><circle class="cls-3" cx="57.5" cy="57.5" r="56"/></g></g></svg>