<svg xmlns="http://www.w3.org/2000/svg" viewBox="0 0 115 115"><defs><style>.cls-1,.cls-2,.cls-3{fill:none;stroke-linecap:round;stroke-linejoin:round;stroke-width:3px;}.cls-1{stroke:#09f;}.cls-2{stroke:#2ef6a5;}.cls-3{stroke:#3b1ffa;}</style></defs><title>white-label-icon</title><g id="Layer_2" data-name="Layer 2"><g id="Layer_1-2" data-name="Layer 1"><circle class="cls-1" cx="57.5" cy="57.5" r="56"/><path class="cls-2" d="M37.21635,38.44007c-1.75018-5.04184-4.57111-7.17985-11.74586-12.75713"/><line class="cls-2" x1="38.94165" y1="48.14436" x2="37.61276" y2="43.92506"/><circle class="cls-3" cx="38.94165" cy="48.14436" r="4.42657" transform="translate(-21.9477 59.40573) rotate(-61.51062)"/><path class="cls-3" d="M88.69459,64.46315l-13.82485,21.771a5.40473,5.40473,0,0,1-7.43793,1.66038L36.19209,68.05688a6.92809,6.92809,0,0,1-2.95185-3.95371L28.32889,46.84936a6.15437,6.15437,0,0,1,4.92742-7.75957l3.96-.64972,13.74446-2.24273a6.92828,6.92828,0,0,1,4.83368.99026L87.03421,57.02522A5.4047,5.4047,0,0,1,88.69459,64.46315Z"/><path class="cls-2" d="M38.94165,48.14436A18.72074,18.72074,0,0,0,33.261,22.27058"/></g></g></svg>