<?xml version="1.0" encoding="iso-8859-1"?>
<!DOCTYPE svg PUBLIC "-//W3C//DTD SVG 1.1//EN" "http://www.w3.org/Graphics/SVG/1.1/DTD/svg11.dtd">
<svg version="1.1" xmlns="http://www.w3.org/2000/svg" xmlns:xlink="http://www.w3.org/1999/xlink" x="0px" y="0px" viewBox="0 0 59 60">
    <g id="Page-1" stroke="none" stroke-width="1" fill="none" fill-rule="evenodd">
        <g id="Group">
            <path d="M31.9110021,34.245367 C31.9110021,28.2026394 27.9837296,23.1405709 22.6024786,21.4096299 L22.6024786,19.0560483 C22.6024786,18.3119927 22.0055822,17.704918 21.2740014,17.704918 L15.9539705,17.704918 C15.2223898,17.704918 14.6254933,18.3119927 14.6254933,19.0560483 L14.6254933,21.4096299 C9.24424233,23.1405709 5.32003085,28.2026394 5.32003085,34.2484802 L5.32003085,39.2109262 L0,44.2325231 L0,48.0306311 L37.2310329,48.0306311 L37.2310329,44.2325231 L31.9110021,39.207813 L31.9110021,34.245367 Z" id="Fill-1" fill="#666666"></path>
            <path d="M18.9583606,59.4590164 C24.2803103,59.4590164 28.5926059,54.6255738 28.5926059,50.1639344 L9.31302021,50.1639344 C9.31302021,54.6255738 13.6327125,59.4590164 18.9583606,59.4590164" id="Fill-2" fill="#666666"></path>
            <path d="M18,9.46153846 L18,31.5384615 C18,31.5384615 18,41 27.4615385,41 L49.5384615,41 C49.5384615,41 59,41 59,31.5384615 L59,9.46153846 C59,9.46153846 59,0 49.5384615,0 L27.4615385,0 C27.4615385,0 18,0 18,9.46153846 Z" id="Fill-3" fill="#D31E25"></path>
            <path d="M32.0781807,30.8688525 L32.0781807,27.0480389 L36.340856,27.0480389 L36.340856,13.7042147 L32.0781807,14.6602717 L32.0781807,11.4165069 C34.9061203,10.2214356 36.3786122,9.47024795 38.8705216,7.86885246 L41.928774,7.86885246 L41.928774,27.0480389 L46.0781807,27.0480389 L46.0781807,30.8688525 L32.0781807,30.8688525" id="Fill-4" fill="#FFFFFF"></path>
        </g>
    </g>
</svg>