<?xml version="1.0" encoding="UTF-8"?>
<svg height="100%" width="100%" xmlns="http://www.w3.org/2000/svg">
	<defs>
		<font horiz-adv-x="500" id="web">
			<font-face alphabetic="0" ascent="978" descent="-245" font-family="" panose-1="2 11 5 4 2 2 2 2 2 4"/>
			<missing-glyph d=""/>
			<glyph d="" horiz-adv-x="266" unicode=" "/>
			<glyph d="M81 744H182V511L158 216H107L81 511ZM78 110H187V0H78Z" horiz-adv-x="264" unicode="!"/>
			<glyph d="M216 744H300V496H216ZM53 744H137V496H53Z" horiz-adv-x="353" unicode="&quot;"/>
			<glyph d="M218 713H292L264 519H402L430 713H505L477 519H582L569 439H466L444 284H547L534 203H433L404 0H329L358 203H220L192 0H117L146 203H40L53 284H157L179 439H75L87 519H190ZM253 439L232 284H369L391 439Z" horiz-adv-x="622" unicode="#"/>
			<glyph d="M293 797H352V724Q457 716 512 667T578 537H484Q478 585 444 613T352 649V408Q403 397 447 383T524 347T575 290T594 203Q594 156 575 118T524 54T447 12T352 -6V-110H293V-5Q226 -1 178 20T99 72T52 143T34 225H130Q137 160 175 119T293 71V331Q244 342 202 355T130 390T83 445T66 529Q66 573 82 608T129 668T200 707T293 724ZM352 317V71Q382 74 408 83T455 109T487 148T499 199Q499 226 489 245T461 277T415 299T352 317ZM293 650Q232 645 194 615T157 534Q157 486 190 461T293 420Z" horiz-adv-x="640" unicode="$"/>
			<glyph d="M207 729Q244 729 275 715T328 674T364 609T377 523Q377 476 364 437T329 372T276 330T207 316Q169 316 138 330T84 372T49 437T37 523Q37 570 50 608T86 673T140 714T207 729ZM615 712H688L282 0H208ZM689 397Q726 397 757 383T810 342T846 277T859 191Q859 144 846 106T811 41T758 0T689 -15Q651 -15 620 0T566 41T531 106T519 191Q519 239 532 277T568 341T622 382T689 397ZM207 664Q165 664 143 624T121 523Q121 463 143 422T207 382Q252 382 273 421T295 523Q295 553 289 578T272 623T244 653T207 664ZM689 333Q647 333 625 293T603 191Q603 131 625 91T689 51Q734 51 755 90T776 191Q776 251 753 292T689 333Z" horiz-adv-x="896" unicode="%"/>
			<glyph d="M304 757Q337 757 368 747T422 716T460 665T475 595Q475 560 463 532T432 483T387 442T333 407Q343 395 362 371T403 319T448 263T486 217Q499 249 506 286T514 365H595Q594 305 581 250T543 147L661 0H547Q491 71 489 73Q450 31 398 8T280 -15Q234 -15 191 0T115 41T62 106T42 193Q42 235 55 267T91 326T145 375T212 418L201 433Q165 478 148 518T132 601Q132 634 145 662T181 712T235 745T304 757ZM257 362Q231 345 209 327T172 290T147 246T138 194Q138 165 149 142T181 102T228 76T285 67Q330 67 368 85T437 137ZM304 681Q268 681 244 658T221 601Q221 568 235 539T275 480L289 462Q337 493 360 524T384 597Q384 635 362 658T304 681Z" horiz-adv-x="660" unicode="&amp;"/>
			<glyph d="M53 744H137V496H53Z" horiz-adv-x="190" unicode="'"/>
			<glyph d="M238 784H313Q258 696 222 585T187 344Q187 275 195 212T220 93T259 -18T313 -125H238Q204 -77 175 -25T125 84T92 206T80 344Q80 412 92 474T127 591T177 695T238 784Z" horiz-adv-x="338" unicode="("/>
			<glyph d="M25 784H102Q133 743 161 695T211 591T245 474T258 344Q258 271 246 206T213 84T163 -25T102 -125H25Q56 -72 79 -18T119 93T144 212T153 344Q153 475 117 585T25 784Z" horiz-adv-x="338" unicode=")"/>
			<glyph d="M172 744H236V621L343 655L363 602L255 565L326 462L277 429L205 538L132 429L83 462L153 565L44 602L64 655L172 621Z" horiz-adv-x="407" unicode="*"/>
			<glyph d="M262 582H339V376H538V303H339V96H262V303H63V376H262Z" horiz-adv-x="601" unicode="+"/>
			<glyph d="M54 110H162V-10Q162 -141 55 -155V-103Q76 -96 90 -76T104 -10V0H54Z" horiz-adv-x="216" unicode=","/>
			<glyph d="M48 327H326V243H48Z" horiz-adv-x="374" unicode="-"/>
			<glyph d="M54 110H162V0H54Z" horiz-adv-x="216" unicode="."/>
			<glyph d="M338 783H432L70 -125H-23Z" horiz-adv-x="438" unicode="/"/>
			<glyph d="M334 729Q398 729 450 703T538 630T594 513T614 357Q614 272 595 203T541 85T452 10T333 -16Q267 -16 215 10T127 85T72 203T53 357Q53 443 73 512T129 629T218 703T334 729ZM334 648Q288 648 254 627T197 569T163 478T152 357Q152 291 163 237T197 145T254 86T334 66Q427 66 470 144T514 357Q514 423 503 477T469 569T413 627T334 648Z" horiz-adv-x="667" unicode="0"/>
			<glyph d="M230 717H305V0H208V513H43V577Q77 578 108 585T165 608T208 651T230 717Z" horiz-adv-x="394" unicode="1"/>
			<glyph d="M313 728Q368 728 412 711T487 665T536 596T553 509Q553 459 537 424T496 363T434 314T359 270Q331 253 300 234T242 194T192 149T160 97L158 89H540V0H40Q43 65 63 112T116 196Q157 241 209 274T312 338Q345 357 371 374T416 411T443 453T453 507Q453 570 413 609T305 648Q235 648 196 604Q175 582 165 551T156 476H57Q57 536 74 580T123 657Q156 692 205 710T313 728Z" horiz-adv-x="598" unicode="2"/>
			<glyph d="M306 729Q356 729 400 715T476 677T527 615T546 533Q546 473 513 437T428 384V381Q503 361 537 315T571 200Q571 148 551 107T496 39T414 -2T313 -16Q253 -16 201 0T112 48Q73 80 51 125T28 231H122Q124 152 173 107T310 63Q381 63 426 99T472 208Q472 274 425 307T292 341H247V415H291Q371 415 411 446T452 534Q452 562 440 584T408 622T361 646T303 654Q265 654 236 642T186 610T155 561T144 500H51Q51 550 68 592T119 664T199 712T306 729Z" horiz-adv-x="613" unicode="3"/>
			<glyph d="M402 720H481V248H597V173H481V0H387V173H42V259ZM390 595Q381 579 370 562Q361 548 350 532T328 502L196 334Q185 320 171 305T147 277Q133 261 120 246V244Q140 245 158 246Q174 247 192 247T226 248H387V490Q387 504 387 522T389 557Q390 575 392 595Z" horiz-adv-x="623" unicode="4"/>
			<glyph d="M126 712H506V628H194L148 416H150Q180 447 220 463T315 480Q360 480 402 463T477 415T529 338T549 233Q549 176 529 130T475 51T393 2T291 -15Q235 -15 188 1T108 45T55 110T32 191H127Q138 137 177 102T289 68Q364 68 407 113T451 235Q451 274 439 304T406 356T357 388T297 399Q237 399 199 379T141 333H49Z" horiz-adv-x="590" unicode="5"/>
			<glyph d="M332 729Q386 729 426 713T494 670T538 611T559 546H464Q461 564 452 582T426 616T387 640T334 650Q284 650 248 630T190 572T157 480T144 357H146Q181 416 229 442T342 469Q391 469 434 450T509 398T560 322T579 229Q579 178 560 133T508 56T430 3T334 -16Q274 -16 229 2T152 52Q96 103 74 177T53 360Q53 444 71 512T124 629Q159 677 211 703T332 729ZM329 391Q254 391 208 346T162 227Q162 190 175 159T211 107T265 73T332 61Q366 61 394 73T444 106T477 158T489 226Q489 263 477 293T443 345T392 379T329 391Z" horiz-adv-x="626" unicode="6"/>
			<glyph d="M32 712H533V635Q479 587 427 521T335 374T267 199T235 0H133Q139 94 165 185T232 359T326 511T440 629V631Q423 630 403 629Q386 628 361 627T309 627H32Z" horiz-adv-x="555" unicode="7"/>
			<glyph d="M314 730Q365 730 408 717T484 679T534 620T552 543Q552 488 521 449T433 392V389Q502 372 544 324T586 204Q586 144 563 102T502 34T416 -4T317 -16Q266 -16 216 -4T128 34T65 103T41 204Q41 242 52 272T85 325T134 364T197 389V392Q139 409 108 448T77 542Q77 585 95 619T145 678T220 716T314 730ZM314 652Q247 652 208 622T170 539Q170 485 208 455T314 425Q381 425 419 455T458 539Q458 593 419 622T314 652ZM314 352Q232 352 186 312T140 205Q140 137 186 100T317 63Q398 63 444 100T490 205Q490 273 443 312T314 352Z" horiz-adv-x="628" unicode="8"/>
			<glyph d="M301 729Q355 729 396 713T469 674Q530 627 553 549T576 354Q576 247 553 169T478 45Q412 -16 305 -16Q252 -16 208 -1T132 40T80 102T58 176H155Q158 154 169 133T198 97T243 72T303 63Q380 63 422 111Q453 145 467 202T485 344H483Q448 296 399 269T287 243Q237 243 194 262T118 314T67 391T48 485Q48 536 67 580T119 658T199 710T301 729ZM301 652Q265 652 235 640T183 606T150 554T138 487Q138 451 150 420T185 368T236 333T300 321Q339 321 370 333T424 367T458 419T470 487Q470 524 457 554T421 606T367 640T301 652Z" horiz-adv-x="626" unicode="9"/>
			<glyph d="M57 426H165V316H57ZM57 110H165V0H57Z" horiz-adv-x="222" unicode=":"/>
			<glyph d="M57 426H165V316H57ZM57 110H165V-10Q165 -141 58 -155V-103Q79 -96 93 -76T107 -10V0H57Z" horiz-adv-x="222" unicode=";"/>
			<glyph d="M484 550V467L255 374Q235 366 211 358T168 342Q144 333 121 325V323Q144 315 168 307Q188 300 211 291T255 275L484 182V97L60 277V370Z" horiz-adv-x="548" unicode="&lt;"/>
			<glyph d="M64 455H537V382H64ZM64 269H537V196H64Z" horiz-adv-x="601" unicode="="/>
			<glyph d="M64 550L488 370V277L64 97V181L294 273Q313 281 336 289T380 305Q404 314 427 322V324Q404 332 380 340Q360 347 336 355T294 372L64 465Z" horiz-adv-x="548" unicode="&gt;"/>
			<glyph d="M204 110H313V0H204ZM279 757Q332 757 374 742T446 701T492 640T508 565Q508 534 500 509T479 464T449 427T414 396Q382 369 361 349T326 312Q312 293 307 271T302 216H215Q215 253 221 281T240 334T272 379T321 426Q338 441 354 455T382 485T402 520T410 563Q410 611 376 643T279 675Q240 675 210 663T161 629T131 579T120 516H26Q27 561 42 604T89 682T167 736T279 757Z" horiz-adv-x="547" unicode="?"/>
			<glyph d="M486 741Q564 741 637 716T766 643T857 523T892 356Q892 294 877 246T835 165T772 116T691 99Q645 99 613 120T571 178H570Q547 139 511 117T430 95Q392 95 361 108T308 146T274 205T263 281Q263 337 278 382T321 459T384 508T463 526Q508 526 537 506T582 457H584L591 517H679L646 246Q641 208 654 187T696 167Q718 167 739 176T778 208T806 265T817 354Q817 435 791 495T721 594T615 653T484 673Q411 673 345 647T229 573T149 454T120 295Q120 222 142 160T207 52T313 -18T457 -44Q563 -44 655 -7L680 -65Q626 -90 572 -100T461 -110Q369 -110 292 -81T159 1T73 129T43 296Q43 403 81 486T181 625T322 711T486 741ZM471 458Q441 458 419 444T382 407T361 352T354 283Q354 231 375 197T443 163Q474 163 497 176T537 214T561 270T569 341Q569 395 544 426T471 458Z" horiz-adv-x="935" unicode="@"/>
			<glyph d="M291 744H405L679 0H567L493 217H200L124 0H19ZM347 663Q340 637 333 610Q326 587 318 559T301 505L228 297H466L395 505Q385 532 377 560T363 611Q356 637 350 663Z" horiz-adv-x="698" unicode="A"/>
			<glyph d="M77 744H397Q512 744 575 681Q598 657 611 625T625 552Q625 491 592 452T499 396V393Q533 385 561 370T611 332T643 280T655 214Q655 169 640 132T598 69Q566 36 519 18T412 0H77ZM179 656V427H383Q449 427 485 457T522 545Q522 598 488 627T395 656ZM179 344V90H406Q481 90 518 127Q551 158 551 211Q551 278 508 311T400 344Z" horiz-adv-x="691" unicode="B"/>
			<glyph d="M402 760Q468 760 519 742T609 694Q649 662 672 617T704 519H602Q589 588 537 629T400 671Q341 671 295 648T217 586T169 491T153 372Q153 305 170 250T220 156T299 95T401 74Q452 74 489 90T552 133T592 195T610 271H712Q712 243 705 214T687 159T659 107T623 64Q544 -15 399 -15Q319 -15 254 14T144 94T74 217T49 372Q49 454 73 525T142 648T253 730T402 760Z" horiz-adv-x="756" unicode="C"/>
			<glyph d="M77 744H352Q435 744 497 717T601 640T663 522T684 369Q684 286 662 218T598 101T492 26T345 0H77ZM180 655V89H341Q404 89 449 108T522 164T564 253T578 369Q578 433 565 486T525 576T454 634T347 655Z" horiz-adv-x="732" unicode="D"/>
			<glyph d="M77 744H606V654H179V429H565V344H179V93H617V0H77Z" horiz-adv-x="666" unicode="E"/>
			<glyph d="M77 744H586V654H179V431H518V344H179V0H77Z" horiz-adv-x="622" unicode="F"/>
			<glyph d="M407 759Q473 759 524 742T614 694T676 621T711 528H605Q588 591 540 631T406 671Q341 671 293 648T214 584T168 488T153 369Q153 303 171 248T223 155T302 94T403 73Q458 73 499 90T568 138T608 207T622 291V307H406V394H723V0H658L631 105H628Q588 44 529 14T398 -16Q320 -16 256 12T146 92Q99 143 74 213T49 369Q49 454 73 525T144 650Q189 701 254 730T407 759Z" horiz-adv-x="781" unicode="G"/>
			<glyph d="M77 744H179V431H563V744H666V0H563V348H179V0H77Z" horiz-adv-x="743" unicode="H"/>
			<glyph d="M79 744H181V0H79Z" horiz-adv-x="260" unicode="I"/>
			<glyph d="M370 744H472V191Q472 146 459 109T419 45Q392 17 351 1T254 -15Q150 -15 90 43T31 230V246H131V233Q131 186 138 154T161 104T200 78T255 70Q310 70 340 100T370 197Z" horiz-adv-x="539" unicode="J"/>
			<glyph d="M534 745H662L363 446L686 0H567L292 380L179 269V0H77V744H179V514Q179 476 178 440T175 377Z" horiz-adv-x="686" unicode="K"/>
			<glyph d="M77 744H179V93H564V0H77Z" horiz-adv-x="595" unicode="L"/>
			<glyph d="M77 744H209L364 340Q375 309 388 269T413 193Q426 151 439 107H441Q455 151 468 193Q479 229 492 269T517 340L669 744H805V0H707V450Q707 475 707 507T710 570Q711 604 713 641H711L693 578Q685 552 676 522T659 471L478 0H398L217 471Q209 493 200 522T183 578L165 641H163Q164 604 166 570Q167 540 168 507T169 450V0H77Z" horiz-adv-x="881" unicode="M"/>
			<glyph d="M77 744H184L489 278Q503 257 517 231T544 183Q558 157 572 130H575Q573 158 571 186Q569 210 568 238T568 289V744H664V0H558L254 466Q240 487 225 512T198 560Q183 586 169 613H167Q168 585 170 557Q171 533 172 506T173 456V0H77Z" horiz-adv-x="741" unicode="N"/>
			<glyph d="M413 760Q497 760 564 730T679 649T752 527T778 372Q778 289 752 218T679 95T564 13T413 -16Q329 -16 261 13T146 95T74 218T49 372Q49 456 74 527T146 649T261 730T413 760ZM413 672Q350 672 301 649T220 586T170 491T153 372Q153 308 170 253T220 159T301 96T413 74Q476 74 524 96T606 159T655 253T672 372Q672 436 655 491T606 586T524 649T413 672Z" horiz-adv-x="826" unicode="O"/>
			<glyph d="M77 744H390Q450 744 494 725T568 672Q593 643 607 607T621 526Q621 423 561 364T380 306H180V0H77ZM180 655V389H370Q446 389 482 424T519 523Q519 589 481 622T374 655Z" horiz-adv-x="647" unicode="P"/>
			<glyph d="M413 760Q497 760 564 730T679 649T751 527T777 372Q777 283 748 209T667 82L774 -4L723 -66L602 32Q562 9 514 -3T413 -16Q329 -16 261 13T146 95T74 218T49 372Q49 456 74 527T146 649T261 730T413 760ZM413 672Q350 672 301 649T220 586T170 491T153 372Q153 308 170 253T220 158T301 95T413 72Q475 72 524 95L428 173L478 235L592 143Q631 184 651 242T672 372Q672 436 655 491T606 586T524 649T413 672Z" horiz-adv-x="825" unicode="Q"/>
			<glyph d="M77 744H425Q475 744 516 729T586 688T632 623T648 539Q648 471 617 423T512 353V350Q543 341 564 326T598 289T617 238T627 168Q630 124 634 94T642 46T650 18T661 5V0H552Q546 5 542 15T535 44T530 92T525 167Q520 246 485 278T377 310H179V0H77ZM179 656V392H392Q468 392 505 427T543 524Q543 590 509 623T397 656Z" horiz-adv-x="700" unicode="R"/>
			<glyph d="M320 758Q389 758 439 741T523 696T577 627T603 539H504Q494 607 447 642T321 678Q247 678 203 649T159 564Q159 534 173 513T213 479T274 455T352 437Q406 426 455 412T543 372T604 307T627 205Q627 152 606 111T549 42T461 0T350 -15Q272 -15 213 5T115 59T55 141T31 241H132Q141 156 196 111T353 67Q390 67 421 75T475 100T511 142T524 201Q524 237 508 261T464 301T396 328T308 350Q258 360 213 374T135 411T81 470T62 559Q62 606 81 643T134 705T215 744T320 758Z" horiz-adv-x="672" unicode="S"/>
			<glyph d="M31 744H623V654H378V0H275V654H31Z" horiz-adv-x="654" unicode="T"/>
			<glyph d="M65 744H167V251Q167 159 215 117T354 76Q441 76 489 117T537 251V744H639V242Q639 175 617 127T556 48T465 3T352 -11Q289 -11 236 3T146 48T86 127T65 242Z" horiz-adv-x="704" unicode="U"/>
			<glyph d="M18 744H128L291 248Q298 228 305 200T320 148Q328 119 335 89H337Q344 120 352 149Q359 174 366 201T380 248L541 744H647L387 0H275Z" horiz-adv-x="664" unicode="V"/>
			<glyph d="M18 744H125L232 306Q239 278 245 244T256 180Q261 145 267 109H269Q275 146 281 181Q286 211 293 245T308 307L428 744H536L652 307Q659 279 666 245T679 181Q685 146 691 109H693Q699 145 705 180Q710 210 716 244T730 306L841 744H946L739 0H640L518 476Q511 501 505 533T494 594Q488 627 483 662H481Q475 627 469 594Q464 565 457 533T445 477L314 0H212Z" horiz-adv-x="965" unicode="W"/>
			<glyph d="M42 744H160L271 565Q282 547 294 526T316 486Q327 464 339 443H341Q353 464 365 486Q376 505 388 526T411 565L523 744H635L394 381L644 0H522L404 194Q393 212 381 233T359 274Q348 296 336 318H334Q321 296 309 274Q298 255 285 233T261 194L139 0H23L279 382Z" horiz-adv-x="667" unicode="X"/>
			<glyph d="M18 744H132L266 520Q277 500 290 476T314 431L339 381H341Q353 406 366 431Q377 452 390 476T415 520L550 744H659L388 307V0H286V312Z" horiz-adv-x="678" unicode="Y"/>
			<glyph d="M66 744H605V664L247 201Q233 184 216 165T184 129Q166 110 149 90V87Q173 88 198 89Q219 90 243 90T288 91H622V0H39V95L402 558Q414 573 429 590T458 623Q474 641 491 658V661Q468 660 444 659Q424 658 400 657T358 657H66Z" horiz-adv-x="668" unicode="Z"/>
			<glyph d="M87 784H315V710H181V-47H315V-125H87Z" horiz-adv-x="356" unicode="["/>
			<glyph d="M6 783H100L461 -125H368Z" horiz-adv-x="438" unicode="\"/>
			<glyph d="M40 784H269V-125H40V-47H173V710H40Z" horiz-adv-x="356" unicode="]"/>
			<glyph d="M196 744H295L470 445H371L247 663H245L120 445H21Z" horiz-adv-x="491" unicode="^"/>
			<glyph d="M-2 -105H429V-173H-2Z" horiz-adv-x="427" unicode="_"/>
			<glyph d="M148 770H262L315 625H237Z" horiz-adv-x="538" unicode="`"/>
			<glyph d="M287 550Q325 550 358 543T417 521Q451 501 470 465T489 375V124Q489 92 500 76T546 68H550V3Q540 0 528 -2T500 -5Q457 -5 435 15T405 79H404Q391 61 374 45T335 16T285 -3T224 -11Q186 -11 152 -1T94 27T56 74T42 142Q42 189 58 219T105 267T178 295T273 311Q303 314 327 319T368 332T394 354T403 388Q403 432 373 457T288 482Q224 482 192 454T159 378H69Q70 412 84 443T125 498T192 536T287 550ZM404 286Q384 273 351 263T286 248T226 235T180 217T150 188T140 143Q140 117 149 100T173 74T207 60T247 57Q287 57 316 70T365 104T394 150T404 198Z" horiz-adv-x="562" unicode="a"/>
			<glyph d="M64 744H157V554Q157 523 156 496T154 452H157Q183 495 227 522T330 550Q381 550 423 530T495 474T542 385T559 267Q559 202 543 149T497 60T424 4T327 -16Q273 -16 229 7T159 76H156V0H64ZM318 472Q275 472 244 456T192 412T162 346T152 266Q152 222 162 184T193 119T245 76T317 61Q354 61 381 76T427 119T455 184T464 266Q464 310 455 348T428 413T382 456T318 472Z" horiz-adv-x="594" unicode="b"/>
			<glyph d="M297 550Q394 550 454 499T529 362H436Q426 415 391 445T297 475Q256 475 224 459T172 415T140 349T130 268Q130 224 140 186T172 121T224 77T297 61Q360 61 396 95T438 190H530Q521 93 460 39T297 -15Q237 -15 188 7T106 67T53 157T35 268Q35 326 53 377T106 467T188 528T297 550Z" horiz-adv-x="560" unicode="c"/>
			<glyph d="M439 744H532V0H440V77H438Q412 33 370 8T272 -16Q218 -16 174 4T99 60T51 149T35 267Q35 333 53 385T102 474T177 530T270 550Q327 550 370 524T440 455H442Q440 473 439 500T439 554ZM279 472Q242 472 214 456T167 413T139 348T130 266Q130 222 139 184T167 119T214 76T279 61Q322 61 353 76T404 119T434 184T444 266Q444 311 433 349T402 414T350 457T279 472Z" horiz-adv-x="596" unicode="d"/>
			<glyph d="M292 550Q352 550 398 528T476 467Q509 427 525 371T542 246H130Q133 207 145 173T178 114T229 75T298 61Q354 61 390 85T440 153H531Q513 78 451 31T297 -15Q235 -15 186 7T104 67T52 157T35 268Q35 326 53 377T105 467T186 528T292 550ZM292 478Q256 478 228 465T180 431T148 379T132 313H443Q439 391 400 434T292 478Z" horiz-adv-x="577" unicode="e"/>
			<glyph d="M270 749Q281 749 293 748T318 747V670Q285 672 263 670T229 661T212 641T207 607V537H317V464H207V0H114V464H31V537H114V611Q114 685 152 718Q172 735 201 742T270 749Z" horiz-adv-x="350" unicode="f"/>
			<glyph d="M273 550Q331 550 370 528T436 466H438V537H530V22Q530 -32 513 -71T465 -137Q433 -163 389 -175T291 -188Q185 -188 126 -148T60 -37H147Q153 -79 191 -97T289 -116Q361 -116 399 -83T438 18V33Q438 56 438 76T440 110H438Q410 70 372 47T278 24Q227 24 183 43T109 97T60 180T43 287Q43 349 61 398T110 480T184 532T273 550ZM286 473Q212 473 175 422T138 286Q138 200 176 150T287 100Q331 100 361 114T409 154T436 215T444 291Q444 376 405 424T286 473Z" horiz-adv-x="595" unicode="g"/>
			<glyph d="M64 744H157V549Q157 529 156 504T154 459H157Q187 502 228 526T329 550Q414 550 462 505T510 375V0H418V364Q418 416 386 444T300 472Q269 472 242 461T197 432T167 386T157 327V0H64Z" horiz-adv-x="571" unicode="h"/>
			<glyph d="M62 744H159V636H62ZM64 537H157V0H64Z" horiz-adv-x="221" unicode="i"/>
			<glyph d="M64 537H157V-46Q157 -85 147 -108T121 -146Q103 -160 80 -165T30 -170Q15 -170 2 -168T-22 -165V-91H-19Q-4 -94 10 -94Q37 -93 50 -81T64 -41ZM62 744H159V636H62Z" horiz-adv-x="222" unicode="j"/>
			<glyph d="M64 744H157V391Q157 377 156 352T153 308L386 537H502L297 344L526 0H417L233 283L157 211V0H64Z" horiz-adv-x="542" unicode="k"/>
			<glyph d="M67 744H160V0H67Z" horiz-adv-x="227" unicode="l"/>
			<glyph d="M318 550Q367 550 403 525T457 450H459Q488 501 532 525T625 550Q699 550 745 505T791 375V0H698V367Q698 417 670 444T601 472Q575 472 552 461T512 432T484 387T474 331V0H382V367Q382 417 357 444T290 472Q266 472 242 461T199 432T169 387T157 331V0H64V537H156V457H159Q184 501 225 525T318 550Z" horiz-adv-x="852" unicode="m"/>
			<glyph d="M329 550Q414 550 462 505T510 375V0H418V364Q418 416 386 444T300 472Q269 472 242 461T197 432T167 386T157 327V0H64V537H156V461H159Q188 502 229 526T329 550Z" horiz-adv-x="571" unicode="n"/>
			<glyph d="M298 550Q359 550 407 528T489 467T541 377T559 268Q559 209 541 157T489 67T407 7T298 -15Q237 -15 188 7T106 67T53 157T35 268Q35 326 53 377T106 467T188 528T298 550ZM297 476Q256 476 224 460T172 415T140 349T130 268Q130 224 140 186T172 121T224 77T297 61Q338 61 369 77T422 121T453 186T464 268Q464 311 453 349T422 415T369 460T297 476Z" horiz-adv-x="594" unicode="o"/>
			<glyph d="M330 550Q381 550 423 530T496 474T544 385T561 267Q561 202 545 150T498 61T424 4T327 -16Q272 -16 229 6T158 71H155Q156 57 156 34T157 -19V-182H64V537H156V453H159Q189 499 230 524T330 550ZM318 471Q275 471 244 455T192 411T162 345T152 265Q152 223 161 185T190 120T241 77T317 61Q354 61 382 76T428 119T456 183T466 265Q466 309 457 347T429 412T383 455T318 471Z" horiz-adv-x="596" unicode="p"/>
			<glyph d="M269 550Q327 550 369 525T437 457H440V537H531V-182H439V-19Q439 -16 439 -6T440 17T441 44T442 71H439Q408 28 368 6T272 -16Q218 -16 174 4T100 61T54 150T38 267Q38 333 55 385T103 474T176 530T269 550ZM279 471Q242 471 214 455T168 412T141 347T132 265Q132 221 141 183T168 119T214 76T280 61Q324 61 355 76T406 119T435 183T444 265Q444 310 434 348T404 413T352 456T279 471Z" horiz-adv-x="596" unicode="q"/>
			<glyph d="M318 544Q329 544 336 542T352 538V450H349Q339 453 331 454T311 455Q280 455 252 443T203 411T169 360T157 292V0H64V537H156V440H159Q184 487 224 515T318 544Z" horiz-adv-x="379" unicode="r"/>
			<glyph d="M250 549Q351 549 403 506T464 393H371Q365 435 335 457T248 479Q193 479 168 457T144 404Q144 383 153 369T181 347T226 332T287 319Q327 311 363 301T426 273T470 225T486 149Q486 108 470 77T425 25T357 -5T270 -16Q158 -16 97 32T30 163H124Q128 134 141 114T173 82T218 64T272 59Q336 59 364 83T393 144Q393 188 358 205T253 237Q214 245 177 255T113 282T69 327T53 399Q53 468 104 508T250 549Z" horiz-adv-x="522" unicode="s"/>
			<glyph d="M115 706H207V537H318V465H207V126Q207 97 221 86T262 76Q274 76 287 78T309 83H312V5Q274 -4 237 -4Q183 -3 149 21T115 105V465H31V537H115Z" horiz-adv-x="351" unicode="t"/>
			<glyph d="M61 537H154V172Q154 121 184 92T271 64Q302 64 327 75T369 105T396 152T406 210V537H499V0H407V75H405Q376 35 338 11T243 -12Q159 -12 110 35T61 167Z" horiz-adv-x="564" unicode="u"/>
			<glyph d="M5 537H104L198 247Q206 220 215 190T231 134Q239 104 247 76H249Q255 104 263 134Q270 160 278 190T296 247L392 537H488L295 0H192Z" horiz-adv-x="493" unicode="v"/>
			<glyph d="M10 537H109L193 239Q199 216 205 189T217 138Q223 110 228 82H230Q235 108 241 135Q246 158 252 185T266 237L347 537H435L515 237Q520 215 526 188T538 138Q544 110 549 81H551Q556 108 561 135Q566 158 572 186T586 239L675 537H771L596 0H503L424 296Q419 316 413 341T402 390Q396 417 390 446H388Q382 417 376 390Q371 367 365 341T355 296L274 0H180Z" horiz-adv-x="781" unicode="w"/>
			<glyph d="M43 537H151L231 414Q237 403 244 390T259 367Q267 354 274 340H276Q284 354 292 367Q299 378 306 391T320 414L403 537H504L329 290L536 0H428L325 152Q317 163 309 176T293 203Q284 218 276 233H274Q266 218 257 203Q249 190 241 176T226 152L124 0H20L222 281Z" horiz-adv-x="556" unicode="x"/>
			<glyph d="M5 537H106L217 239Q225 216 233 191T248 144Q255 118 262 94H264Q271 118 279 144Q286 166 294 191T310 239L417 537H514L286 -49Q269 -91 252 -118T217 -160T177 -181T130 -187Q107 -187 84 -184T51 -176V-96H55Q63 -101 78 -103T111 -106Q139 -106 158 -92T191 -41Q191 -40 194 -30T201 -9T208 14T210 27Z" horiz-adv-x="519" unicode="y"/>
			<glyph d="M62 537H465V479L221 160Q212 149 200 135T178 110Q166 96 153 82V79Q173 79 192 80Q209 81 227 81T260 82H477V0H44V72L284 385Q292 396 303 408T324 432Q335 445 348 458V461Q329 460 311 459Q295 458 278 458Q261 458 247 458H62Z" horiz-adv-x="512" unicode="z"/>
			<glyph d="M284 784H315V710H287Q246 710 228 690T210 615V434Q210 352 149 335V332Q210 312 210 233V47Q210 19 214 1T228 -27T251 -42T287 -47H315V-125H284Q202 -125 158 -87T115 46V225Q115 260 96 277T33 296V371Q78 373 96 389T115 441V616Q115 664 126 696T158 747T211 775T284 784Z" horiz-adv-x="338" unicode="{"/>
			<glyph d="M87 784H163V-125H87Z" horiz-adv-x="250" unicode="|"/>
			<glyph d="M40 784H60Q101 784 132 775T185 746T218 693T229 614V439Q229 404 244 387T304 368V292Q262 290 245 273T229 222V44Q229 -4 218 -36T185 -88T132 -116T60 -125H40V-47H58Q78 -47 92 -43T116 -29T130 -1T135 44V230Q135 272 149 295T196 329V332Q164 342 149 365T135 431V613Q135 669 117 689T58 710H40Z" horiz-adv-x="338" unicode="}"/>
			<glyph d="M142 409Q165 409 185 402T223 385Q243 374 255 369T280 364Q314 364 316 407H387Q385 351 363 315T291 280Q271 280 252 286T216 301Q190 312 176 318T148 325Q119 325 117 281H45Q47 341 73 375T142 409Z" horiz-adv-x="432" unicode="~"/>
			<glyph d="" horiz-adv-x="245" unicode=" "/>
			<glyph d="M107 396H158L183 101V-132H82V101ZM78 612H187V502H78Z" horiz-adv-x="264" unicode="¡"/>
			<glyph d="M265 635H324V550Q410 542 463 492T530 362H437Q428 408 399 437T324 474V63Q375 70 404 103T439 190H530Q522 99 468 46T324 -14V-119H265V-13Q211 -7 168 17T96 78T51 164T35 268Q35 322 51 370T97 456T169 518T265 549ZM265 473Q231 467 205 449T163 403T137 341T129 268Q129 229 137 194T163 132T205 87T265 63Z" horiz-adv-x="561" unicode="¢"/>
			<glyph d="M317 728Q364 728 406 715T481 673Q514 644 534 600T555 494H460Q459 535 448 564T417 612T371 639T315 648Q248 648 212 614T177 522Q177 487 188 452T212 382H359V312H232Q234 298 236 284T238 255Q238 202 214 165T143 90L145 87Q174 102 193 107T240 113Q268 113 290 106T332 92T371 78T413 72Q445 72 471 86T521 121L573 52Q541 24 501 6T411 -12Q375 -12 348 -3T298 15T251 33T197 42Q166 42 141 27T94 -3L40 72Q62 88 82 105T117 141T140 185T149 239Q149 258 145 276T137 312H49V382H111Q97 415 87 449T77 524Q77 568 93 605T141 670T216 712T317 728Z" horiz-adv-x="595" unicode="£"/>
			<glyph d="M253 509Q224 509 202 498T164 467T141 421T133 365Q133 334 141 308T164 263T202 233T253 222Q310 222 341 262T372 365Q372 395 364 421T341 467T303 498T253 509ZM64 603L131 534Q155 552 185 563T253 574Q289 574 320 563T375 534L442 603L487 560L418 489Q455 435 455 365Q455 330 445 298T417 240L487 168L442 125L374 194Q325 157 253 157Q181 157 132 194L64 125L19 168L88 239Q50 294 50 365Q50 436 88 489L19 560Z" horiz-adv-x="506" unicode="¤"/>
			<glyph d="M21 712H129L217 553Q231 528 247 497T277 438Q293 405 309 371H311Q327 405 343 438Q357 466 373 497T403 553L491 712H595L372 338H544V281H358V200H544V143H358V0H262V143H76V200H262V281H76V338H246Z" horiz-adv-x="611" unicode="¥"/>
			<glyph d="M87 784H163V375H87ZM87 301H163V-125H87Z" horiz-adv-x="250" unicode="¦"/>
			<glyph d="M314 730Q363 730 401 716T466 679T507 622T525 550H432Q427 595 398 622T313 650Q259 650 233 629T208 576Q208 556 218 540T249 509T300 477T369 441Q414 417 454 394T524 346T572 288T590 216Q590 156 557 120T468 69Q491 46 505 20T519 -37Q519 -107 466 -149T319 -192Q266 -192 224 -176T153 -134T108 -72T91 2H184Q188 -48 221 -80T320 -113Q373 -113 398 -91T424 -38Q424 -17 412 0T377 35T319 71T238 117Q191 143 154 166T91 213T52 266T38 331Q38 388 71 421T161 470Q138 493 126 517T114 573Q114 609 128 638T168 687T232 719T314 730ZM209 429Q169 419 149 394T129 341Q129 320 136 304T161 272T207 239T278 197Q313 177 349 156T417 113Q462 126 480 152T498 210Q498 232 488 249T457 283T403 318T326 360Q293 378 263 395T209 429Z" horiz-adv-x="628" unicode="§"/>
			<glyph d="M303 744H395V636H303ZM105 744H197V636H105Z" unicode="¨"/>
			<glyph d="M431 757Q511 757 581 727T702 646T783 524T813 369Q813 286 783 215T702 92T581 11T431 -18Q351 -18 281 11T161 92T80 215T51 369Q51 453 80 524T161 646T281 727T431 757ZM431 716Q360 716 299 690T194 617T124 507T99 369Q99 295 124 231T194 122T299 50T431 24Q502 24 563 50T668 122T738 231T763 369Q763 444 738 507T668 617T563 690T431 716ZM436 599Q475 599 506 588T561 558Q585 538 599 511T618 453H532Q527 484 503 505T436 527Q406 527 383 514T345 481T322 431T315 369Q315 301 347 259T437 217Q483 217 508 242T537 303H620Q619 272 606 241T570 191Q546 168 514 155T436 143Q390 143 351 160T285 207T242 278T227 369Q227 418 242 460T284 533T349 581T436 599Z" horiz-adv-x="863" unicode="©"/>
			<glyph d="M268 729Q307 729 339 721T395 697Q420 679 434 649T448 577V315Q448 289 453 272T465 251V246H378Q372 253 368 267T364 311H362Q342 282 307 259T214 237Q180 237 150 245T97 271T62 313T49 372Q49 414 65 440T108 483T174 508T257 521Q311 526 338 539T366 589Q366 665 270 665Q214 665 187 642T155 577H71Q73 608 86 635T124 684T184 717T268 729ZM367 491Q350 481 321 474T263 463Q233 459 210 453T172 437T148 413T140 375Q140 353 148 338T168 316T197 304T232 301Q267 301 292 312T334 340T359 378T367 420Z" horiz-adv-x="520" unicode="ª"/>
			<glyph d="M436 479V379L337 282V280L436 182V82L287 232V329ZM229 479V379L129 282V280L229 182V82L79 232V329Z" horiz-adv-x="515" unicode="«"/>
			<glyph d="M63 435H488V175H411V362H63Z" horiz-adv-x="568" unicode="¬"/>
			<glyph d="M48 327H326V243H48Z" horiz-adv-x="374" unicode="­"/>
			<glyph d="M328 757Q388 757 440 735T531 674T592 581T615 464Q615 401 592 347T531 255T440 194T328 172Q268 172 215 194T124 255T62 347T40 464Q40 527 62 581T124 674T215 735T328 757ZM328 719Q276 719 231 700T155 647T104 566T86 464Q86 409 104 362T155 282T231 230T328 211Q380 211 425 230T502 282T552 362T571 464Q571 519 552 566T502 647T425 700T328 719ZM214 623H359Q402 623 430 599T459 535Q459 508 444 488T396 460V459Q423 452 434 437T448 394Q452 362 453 340T463 315V310H403Q396 313 394 334T390 383Q387 436 331 436H275V310H214ZM275 572V483H345Q371 483 384 495T398 528Q398 548 385 560T346 572Z" horiz-adv-x="655" unicode="®"/>
			<glyph d="M114 734H387V659H114Z" unicode="¯"/>
			<glyph d="M191 729Q223 729 251 717T299 685T332 637T344 579Q344 548 332 521T299 473T251 441T191 430Q159 430 131 441T83 473T51 521T39 579Q39 610 51 637T83 685T131 717T191 729ZM191 673Q153 673 129 646T105 579Q105 538 129 511T191 485Q231 485 254 511T277 579Q277 619 254 646T191 673Z" horiz-adv-x="382" unicode="°"/>
			<glyph d="M262 582H339V406H538V333H339V156H262V333H63V406H262ZM63 73H538V0H63Z" horiz-adv-x="601" unicode="±"/>
			<glyph d="M205 754Q241 754 270 742T319 711T351 666T362 610Q362 577 351 553T323 510T283 477T237 448Q222 439 204 428T171 406T143 380T126 352H361V286H28Q29 325 42 354T74 408T118 450T166 485Q188 500 208 512T245 539T270 570T280 609Q280 645 258 666T200 687Q160 687 138 661T115 592H38Q38 666 83 710T205 754Z" horiz-adv-x="394" unicode="²"/>
			<glyph d="M202 755Q270 755 313 721T357 629Q357 591 335 568T276 534V532Q374 510 374 417Q374 382 360 356T323 312T269 286T203 277Q118 277 69 320T20 435H95Q97 392 122 366T200 340Q242 340 267 360T293 423Q293 460 267 479T194 499H165V560H193Q235 560 257 577T280 627Q280 659 258 677T201 695Q157 695 134 670T110 608H34Q35 640 46 667T79 713T132 744T202 755Z" horiz-adv-x="403" unicode="³"/>
			<glyph d="M257 770H371L282 625H204Z" unicode="´"/>
			<glyph d="M65 537H158V172Q158 121 188 92T275 64Q306 64 331 75T373 105T400 152T410 210V537H503V0H411V75H409Q380 35 343 11T256 -12Q221 -12 198 -4T158 22H155Q155 11 156 -4Q157 -17 157 -35T158 -77V-182H65Z" horiz-adv-x="568" unicode="µ"/>
			<glyph d="M243 744H494V-140H426V660H344V-140H276V365H247Q144 365 91 416T39 556Q39 598 53 632T92 693T155 731T243 744Z" horiz-adv-x="571" unicode="¶"/>
			<glyph d="M63 381H171V271H63Z" horiz-adv-x="234" unicode="·"/>
			<glyph d="M242 0H301L237 -56V-58Q252 -56 270 -58T303 -67T329 -89T340 -127Q340 -167 308 -187T227 -208Q189 -208 162 -199T116 -177L132 -146Q167 -162 207 -162Q233 -162 251 -154T270 -127Q270 -109 258 -101T228 -94Q214 -94 204 -96T185 -101L169 -76Z" unicode="¸"/>
			<glyph d="M152 748H221V286H141V609H30V662Q77 663 111 682T152 748Z" horiz-adv-x="283" unicode="¹"/>
			<glyph d="M275 729Q329 729 371 709T443 656T488 577T504 480Q504 428 488 383T443 304T371 251T275 232Q221 232 178 251T106 304T60 383T44 480Q44 532 60 577T106 656T178 709T275 729ZM275 660Q240 660 213 646T169 608T143 551T135 480Q135 442 143 409T169 352T213 314T275 301Q310 301 336 314T379 352T405 409T414 480Q414 518 405 551T379 608T336 646T275 660Z" horiz-adv-x="548" unicode="º"/>
			<glyph d="M79 479L229 329V232L79 82V182L179 279V281L79 379ZM287 479L436 329V232L287 82V182L386 279V281L287 379Z" horiz-adv-x="515" unicode="»"/>
			<glyph d="M665 354H741V56H814V-5H741V-110H664V-5H438V74ZM682 744H768L118 -130H33ZM155 748H224V286H144V609H33V662Q80 663 114 682T155 748ZM668 268L650 241Q642 230 632 217T615 194L548 114Q540 104 530 94T513 75Q503 64 493 54V52Q506 53 518 54Q529 55 541 55T564 56H664V184Q664 196 664 210T667 238Q669 253 671 268Z" horiz-adv-x="835" unicode="¼"/>
			<glyph d="M155 748H224V286H144V609H33V662Q80 663 114 682T155 748ZM683 744H769L119 -130H34ZM700 358Q736 358 765 346T814 315T846 270T857 214Q857 181 846 157T818 114T778 81T732 52Q717 43 699 32T666 10T638 -15T621 -44H856V-110H523Q524 -71 537 -41T569 12T613 54T661 89Q683 104 703 116T740 143T765 174T775 213Q775 249 753 270T695 291Q655 291 633 265T610 196H533Q533 270 578 314T700 358Z" horiz-adv-x="892" unicode="½"/>
			<glyph d="M753 354H829V56H902V-5H829V-110H752V-5H526V74ZM205 755Q273 755 316 721T360 629Q360 591 338 568T279 534V532Q377 510 377 417Q377 382 363 356T326 312T272 286T206 277Q121 277 72 320T23 435H98Q100 392 125 366T203 340Q245 340 270 360T296 423Q296 460 270 479T197 499H168V560H196Q238 560 260 577T283 627Q283 659 261 677T204 695Q160 695 137 670T113 608H37Q38 640 49 667T82 713T135 744T205 755ZM771 744H857L207 -130H122ZM756 268L738 241Q730 230 720 217T703 194L636 114Q628 104 618 94T601 75Q591 64 581 54V52Q594 53 606 54Q617 55 629 55T652 56H752V184Q752 196 752 210T755 238Q757 253 759 268Z" horiz-adv-x="923" unicode="¾"/>
			<glyph d="M234 612H343V502H234ZM245 396H331Q331 358 325 330T306 278T273 232T225 186Q208 171 192 156T164 126T144 92T137 49Q137 1 171 -31T268 -63Q307 -63 336 -51T384 -17T414 33T427 96H520Q519 51 503 7T457 -70T379 -124T267 -145Q214 -145 171 -130T99 -89T54 -29T39 47Q39 78 46 102T67 147T97 184T132 216Q165 243 186 262T220 300Q234 319 239 341T245 396Z" horiz-adv-x="547" unicode="¿"/>
			<glyph d="M291 744H405L679 0H567L493 217H200L124 0H19ZM347 663Q340 637 333 610Q326 587 318 559T301 505L228 297H466L395 505Q385 532 377 560T363 611Q356 637 350 663ZM222 910H336L389 785H311Z" horiz-adv-x="698" unicode="À"/>
			<glyph d="M291 744H405L679 0H567L493 217H200L124 0H19ZM347 663Q340 637 333 610Q326 587 318 559T301 505L228 297H466L395 505Q385 532 377 560T363 611Q356 637 350 663ZM359 910H473L384 785H306Z" horiz-adv-x="698" unicode="Á"/>
			<glyph d="M291 744H405L679 0H567L493 217H200L124 0H19ZM347 663Q340 637 333 610Q326 587 318 559T301 505L228 297H466L395 505Q385 532 377 560T363 611Q356 637 350 663ZM299 898H402L500 785H404L350 846H348L292 785H198Z" horiz-adv-x="698" unicode="Â"/>
			<glyph d="M291 744H405L679 0H567L493 217H200L124 0H19ZM347 663Q340 637 333 610Q326 587 318 559T301 505L228 297H466L395 505Q385 532 377 560T363 611Q356 637 350 663ZM284 894Q305 894 321 888T352 874T380 861T407 855Q422 855 427 866T435 892H499Q497 842 477 814T416 786Q396 786 378 792T345 805T316 819T293 825Q281 825 273 813T264 787H200Q202 839 224 866T284 894Z" horiz-adv-x="698" unicode="Ã"/>
			<glyph d="M291 744H405L679 0H567L493 217H200L124 0H19ZM347 663Q340 637 333 610Q326 587 318 559T301 505L228 297H466L395 505Q385 532 377 560T363 611Q356 637 350 663ZM403 893H497V785H403ZM201 893H295V785H201Z" horiz-adv-x="698" unicode="Ä"/>
			<glyph d="M291 744H405L679 0H567L493 217H200L124 0H19ZM347 663Q340 637 333 610Q326 587 318 559T301 505L228 297H466L395 505Q385 532 377 560T363 611Q356 637 350 663ZM350 978Q371 978 389 970T422 949T444 918T452 879Q452 858 444 839T422 807T389 786T350 778Q329 778 310 786T277 807T255 839T247 879Q247 900 255 918T277 949T310 970T350 978ZM350 937Q325 937 309 920T294 879Q294 853 309 836T350 820Q374 820 389 836T405 879Q405 904 389 920T350 937Z" horiz-adv-x="698" unicode="Å"/>
			<glyph d="M293 744H949V654H566V429H908V344H566V94H961V0H463V217H203L127 0H24ZM358 654L232 299H463V654Z" horiz-adv-x="1010" unicode="Æ"/>
			<glyph d="M402 760Q468 760 519 742T609 694Q649 662 672 617T704 519H602Q589 588 537 629T400 671Q341 671 295 648T217 586T169 491T153 372Q153 305 170 250T220 156T299 95T401 74Q452 74 489 90T552 133T592 195T610 271H712Q712 243 705 214T687 159T659 107T623 64Q549 -10 416 -15L369 -56V-58Q384 -56 402 -58T435 -67T461 -89T472 -127Q472 -167 440 -187T359 -208Q321 -208 294 -199T248 -177L264 -146Q299 -162 339 -162Q365 -162 383 -154T402 -127Q402 -109 390 -101T360 -94Q346 -94 336 -96T317 -101L301 -76L361 -13Q289 -6 231 25T133 107T71 225T49 372Q49 454 73 525T142 648T253 730T402 760Z" horiz-adv-x="756" unicode="Ç"/>
			<glyph d="M77 744H606V654H179V429H565V344H179V93H617V0H77ZM226 910H340L393 785H315Z" horiz-adv-x="666" unicode="È"/>
			<glyph d="M77 744H606V654H179V429H565V344H179V93H617V0H77ZM363 910H477L388 785H310Z" horiz-adv-x="666" unicode="É"/>
			<glyph d="M77 744H606V654H179V429H565V344H179V93H617V0H77ZM303 898H406L504 785H408L354 846H352L296 785H202Z" horiz-adv-x="666" unicode="Ê"/>
			<glyph d="M77 744H606V654H179V429H565V344H179V93H617V0H77ZM205 893H299V785H205ZM407 893H501V785H407Z" horiz-adv-x="666" unicode="Ë"/>
			<glyph d="M79 744H181V0H79ZM3 910H117L170 785H92Z" horiz-adv-x="260" unicode="Ì"/>
			<glyph d="M79 744H181V0H79ZM140 910H254L165 785H87Z" horiz-adv-x="260" unicode="Í"/>
			<glyph d="M79 744H181V0H79ZM80 898H183L281 785H185L131 846H129L73 785H-21Z" horiz-adv-x="260" unicode="Î"/>
			<glyph d="M79 744H181V0H79ZM174 893H268V785H174ZM-8 893H86V785H-8Z" horiz-adv-x="260" unicode="Ï"/>
			<glyph d="M87 744H362Q446 744 508 717T611 640T673 522T694 369Q694 286 672 218T608 101T502 26T355 0H87V331H13V417H87ZM190 655V417H400V331H190V89H351Q414 89 459 108T533 164T575 253T589 369Q589 433 576 486T536 576T464 634T357 655Z" horiz-adv-x="742" unicode="Ð"/>
			<glyph d="M77 744H184L489 278Q503 257 517 231T544 183Q558 157 572 130H575Q573 158 571 186Q569 210 568 238T568 289V744H664V0H558L254 466Q240 487 225 512T198 560Q183 586 169 613H167Q168 585 170 557Q171 533 172 506T173 456V0H77ZM313 894Q334 894 350 888T381 874T409 861T436 855Q451 855 456 866T464 892H528Q526 842 506 814T445 786Q425 786 407 792T374 805T345 819T322 825Q310 825 302 813T293 787H229Q231 839 253 866T313 894Z" horiz-adv-x="741" unicode="Ñ"/>
			<glyph d="M413 760Q497 760 564 730T679 649T752 527T778 372Q778 289 752 218T679 95T564 13T413 -16Q329 -16 261 13T146 95T74 218T49 372Q49 456 74 527T146 649T261 730T413 760ZM413 672Q350 672 301 649T220 586T170 491T153 372Q153 308 170 253T220 159T301 96T413 74Q476 74 524 96T606 159T655 253T672 372Q672 436 655 491T606 586T524 649T413 672ZM286 910H400L453 785H375Z" horiz-adv-x="826" unicode="Ò"/>
			<glyph d="M413 760Q497 760 564 730T679 649T752 527T778 372Q778 289 752 218T679 95T564 13T413 -16Q329 -16 261 13T146 95T74 218T49 372Q49 456 74 527T146 649T261 730T413 760ZM413 672Q350 672 301 649T220 586T170 491T153 372Q153 308 170 253T220 159T301 96T413 74Q476 74 524 96T606 159T655 253T672 372Q672 436 655 491T606 586T524 649T413 672ZM423 910H537L448 785H370Z" horiz-adv-x="826" unicode="Ó"/>
			<glyph d="M413 760Q497 760 564 730T679 649T752 527T778 372Q778 289 752 218T679 95T564 13T413 -16Q329 -16 261 13T146 95T74 218T49 372Q49 456 74 527T146 649T261 730T413 760ZM413 672Q350 672 301 649T220 586T170 491T153 372Q153 308 170 253T220 159T301 96T413 74Q476 74 524 96T606 159T655 253T672 372Q672 436 655 491T606 586T524 649T413 672ZM363 898H466L564 785H468L414 846H412L356 785H262Z" horiz-adv-x="826" unicode="Ô"/>
			<glyph d="M413 760Q497 760 564 730T679 649T752 527T778 372Q778 289 752 218T679 95T564 13T413 -16Q329 -16 261 13T146 95T74 218T49 372Q49 456 74 527T146 649T261 730T413 760ZM413 672Q350 672 301 649T220 586T170 491T153 372Q153 308 170 253T220 159T301 96T413 74Q476 74 524 96T606 159T655 253T672 372Q672 436 655 491T606 586T524 649T413 672ZM348 894Q369 894 385 888T416 874T444 861T471 855Q486 855 491 866T499 892H563Q561 842 541 814T480 786Q460 786 442 792T409 805T380 819T357 825Q345 825 337 813T328 787H264Q266 839 288 866T348 894Z" horiz-adv-x="826" unicode="Õ"/>
			<glyph d="M413 760Q497 760 564 730T679 649T752 527T778 372Q778 289 752 218T679 95T564 13T413 -16Q329 -16 261 13T146 95T74 218T49 372Q49 456 74 527T146 649T261 730T413 760ZM413 672Q350 672 301 649T220 586T170 491T153 372Q153 308 170 253T220 159T301 96T413 74Q476 74 524 96T606 159T655 253T672 372Q672 436 655 491T606 586T524 649T413 672ZM467 893H561V785H467ZM265 893H359V785H265Z" horiz-adv-x="826" unicode="Ö"/>
			<glyph d="M132 560L301 390L469 560L521 510L351 339L521 168L469 118L300 288L132 118L81 167L250 338L81 510Z" horiz-adv-x="601" unicode="×"/>
			<glyph d="M747 769L789 732L695 631Q735 580 756 514T778 372Q778 289 752 218T679 95T564 13T413 -16Q338 -16 277 6T171 70L70 -38L28 1L132 112Q91 163 70 229T49 372Q49 456 74 527T146 649T261 730T413 760Q488 760 549 737T656 672ZM413 672Q350 672 301 649T220 586T170 491T153 372Q153 318 165 270T200 185L591 602Q559 635 514 653T413 672ZM626 557L237 140Q269 109 312 91T413 74Q476 74 524 96T606 159T655 253T672 372Q672 426 660 472T626 557Z" horiz-adv-x="826" unicode="Ø"/>
			<glyph d="M65 744H167V251Q167 159 215 117T354 76Q441 76 489 117T537 251V744H639V242Q639 175 617 127T556 48T465 3T352 -11Q289 -11 236 3T146 48T86 127T65 242ZM225 910H339L392 785H314Z" horiz-adv-x="704" unicode="Ù"/>
			<glyph d="M65 744H167V251Q167 159 215 117T354 76Q441 76 489 117T537 251V744H639V242Q639 175 617 127T556 48T465 3T352 -11Q289 -11 236 3T146 48T86 127T65 242ZM362 910H476L387 785H309Z" horiz-adv-x="704" unicode="Ú"/>
			<glyph d="M65 744H167V251Q167 159 215 117T354 76Q441 76 489 117T537 251V744H639V242Q639 175 617 127T556 48T465 3T352 -11Q289 -11 236 3T146 48T86 127T65 242ZM302 898H405L503 785H407L353 846H351L295 785H201Z" horiz-adv-x="704" unicode="Û"/>
			<glyph d="M65 744H167V251Q167 159 215 117T354 76Q441 76 489 117T537 251V744H639V242Q639 175 617 127T556 48T465 3T352 -11Q289 -11 236 3T146 48T86 127T65 242ZM406 893H500V785H406ZM204 893H298V785H204Z" horiz-adv-x="704" unicode="Ü"/>
			<glyph d="M18 744H132L266 520Q277 500 290 476T314 431L339 381H341Q353 406 366 431Q377 452 390 476T415 520L550 744H659L388 307V0H286V312ZM351 910H465L376 785H298Z" horiz-adv-x="678" unicode="Ý"/>
			<glyph d="M77 744H180V615H390Q450 615 494 596T568 543Q593 514 607 477T621 397Q621 294 561 235T380 176H180V0H77ZM180 525V259H370Q446 259 482 295T519 393Q519 459 481 492T374 525Z" horiz-adv-x="647" unicode="Þ"/>
			<glyph d="M279 753Q322 753 359 740T423 703T466 646T482 573Q482 459 360 421V419Q430 402 472 353T514 223Q514 169 498 125T452 52T379 5T282 -11Q269 -11 254 -9T227 -5V68H229Q270 60 305 67T365 94T405 146T420 221Q420 296 379 338T262 380H234V447H263Q320 447 355 480T391 569Q391 618 361 648T276 678Q218 678 187 645T157 558V0H64V563Q64 605 78 640T121 700T189 739T279 753Z" horiz-adv-x="549" unicode="ß"/>
			<glyph d="M287 550Q325 550 358 543T417 521Q451 501 470 465T489 375V124Q489 92 500 76T546 68H550V3Q540 0 528 -2T500 -5Q457 -5 435 15T405 79H404Q391 61 374 45T335 16T285 -3T224 -11Q186 -11 152 -1T94 27T56 74T42 142Q42 189 58 219T105 267T178 295T273 311Q303 314 327 319T368 332T394 354T403 388Q403 432 373 457T288 482Q224 482 192 454T159 378H69Q70 412 84 443T125 498T192 536T287 550ZM404 286Q384 273 351 263T286 248T226 235T180 217T150 188T140 143Q140 117 149 100T173 74T207 60T247 57Q287 57 316 70T365 104T394 150T404 198ZM159 770H273L326 625H248Z" horiz-adv-x="562" unicode="à"/>
			<glyph d="M287 550Q325 550 358 543T417 521Q451 501 470 465T489 375V124Q489 92 500 76T546 68H550V3Q540 0 528 -2T500 -5Q457 -5 435 15T405 79H404Q391 61 374 45T335 16T285 -3T224 -11Q186 -11 152 -1T94 27T56 74T42 142Q42 189 58 219T105 267T178 295T273 311Q303 314 327 319T368 332T394 354T403 388Q403 432 373 457T288 482Q224 482 192 454T159 378H69Q70 412 84 443T125 498T192 536T287 550ZM404 286Q384 273 351 263T286 248T226 235T180 217T150 188T140 143Q140 117 149 100T173 74T207 60T247 57Q287 57 316 70T365 104T394 150T404 198ZM292 770H406L317 625H239Z" horiz-adv-x="562" unicode="á"/>
			<glyph d="M287 550Q325 550 358 543T417 521Q451 501 470 465T489 375V124Q489 92 500 76T546 68H550V3Q540 0 528 -2T500 -5Q457 -5 435 15T405 79H404Q391 61 374 45T335 16T285 -3T224 -11Q186 -11 152 -1T94 27T56 74T42 142Q42 189 58 219T105 267T178 295T273 311Q303 314 327 319T368 332T394 354T403 388Q403 432 373 457T288 482Q224 482 192 454T159 378H69Q70 412 84 443T125 498T192 536T287 550ZM404 286Q384 273 351 263T286 248T226 235T180 217T150 188T140 143Q140 117 149 100T173 74T207 60T247 57Q287 57 316 70T365 104T394 150T404 198ZM232 752H335L429 629H335L283 704H281L227 629H135Z" horiz-adv-x="562" unicode="â"/>
			<glyph d="M287 550Q325 550 358 543T417 521Q451 501 470 465T489 375V124Q489 92 500 76T546 68H550V3Q540 0 528 -2T500 -5Q457 -5 435 15T405 79H404Q391 61 374 45T335 16T285 -3T224 -11Q186 -11 152 -1T94 27T56 74T42 142Q42 189 58 219T105 267T178 295T273 311Q303 314 327 319T368 332T394 354T403 388Q403 432 373 457T288 482Q224 482 192 454T159 378H69Q70 412 84 443T125 498T192 536T287 550ZM404 286Q384 273 351 263T286 248T226 235T180 217T150 188T140 143Q140 117 149 100T173 74T207 60T247 57Q287 57 316 70T365 104T394 150T404 198ZM217 739Q238 739 254 733T285 719T313 706T340 700Q355 700 360 711T368 737H432Q430 687 410 659T349 631Q329 631 311 637T278 650T249 664T226 670Q214 670 206 658T197 632H133Q135 684 157 711T217 739Z" horiz-adv-x="562" unicode="ã"/>
			<glyph d="M287 550Q325 550 358 543T417 521Q451 501 470 465T489 375V124Q489 92 500 76T546 68H550V3Q540 0 528 -2T500 -5Q457 -5 435 15T405 79H404Q391 61 374 45T335 16T285 -3T224 -11Q186 -11 152 -1T94 27T56 74T42 142Q42 189 58 219T105 267T178 295T273 311Q303 314 327 319T368 332T394 354T403 388Q403 432 373 457T288 482Q224 482 192 454T159 378H69Q70 412 84 443T125 498T192 536T287 550ZM404 286Q384 273 351 263T286 248T226 235T180 217T150 188T140 143Q140 117 149 100T173 74T207 60T247 57Q287 57 316 70T365 104T394 150T404 198ZM335 744H427V636H335ZM137 744H229V636H137Z" horiz-adv-x="562" unicode="ä"/>
			<glyph d="M287 550Q325 550 358 543T417 521Q451 501 470 465T489 375V124Q489 92 500 76T546 68H550V3Q540 0 528 -2T500 -5Q457 -5 435 15T405 79H404Q391 61 374 45T335 16T285 -3T224 -11Q186 -11 152 -1T94 27T56 74T42 142Q42 189 58 219T105 267T178 295T273 311Q303 314 327 319T368 332T394 354T403 388Q403 432 373 457T288 482Q224 482 192 454T159 378H69Q70 412 84 443T125 498T192 536T287 550ZM404 286Q384 273 351 263T286 248T226 235T180 217T150 188T140 143Q140 117 149 100T173 74T207 60T247 57Q287 57 316 70T365 104T394 150T404 198ZM283 799Q304 799 322 791T355 770T377 739T385 700Q385 679 377 660T355 628T322 607T283 599Q262 599 243 607T210 628T188 660T180 700Q180 721 188 739T210 770T243 791T283 799ZM283 758Q258 758 242 741T227 700Q227 674 242 657T283 641Q307 641 322 657T338 700Q338 725 322 741T283 758Z" horiz-adv-x="562" unicode="å"/>
			<glyph d="M287 550Q352 550 398 529T465 459Q494 501 538 525T642 550Q702 550 746 528T821 467Q853 426 868 369T883 246H492Q494 207 505 173T535 114T584 75T654 61Q705 61 739 86T784 153H875Q867 114 848 83T800 30T734 -3T654 -15Q577 -15 526 17T448 103H446Q405 39 352 13T236 -12Q149 -12 95 26T42 142Q42 189 58 219T105 267T178 295T273 311Q303 314 327 319T368 332T394 354T403 388Q403 432 373 457T288 482Q224 482 192 454T159 378H69Q70 412 84 443T125 498T192 536T287 550ZM404 286Q384 273 351 263T286 248T226 235T180 217T150 188T140 143Q140 117 149 100T173 74T207 60T247 57Q287 57 316 70T365 104T394 150T404 198ZM642 478Q608 478 582 465T537 431T508 379T493 313H785Q783 391 744 434T642 478Z" horiz-adv-x="918" unicode="æ"/>
			<glyph d="M297 550Q394 550 454 499T529 362H436Q426 415 391 445T297 475Q256 475 224 459T172 415T140 349T130 268Q130 224 140 186T172 121T224 77T297 61Q360 61 396 95T438 190H530Q521 99 466 45T318 -14L271 -56V-58Q286 -56 304 -58T337 -67T363 -89T374 -127Q374 -167 342 -187T261 -208Q223 -208 196 -199T150 -177L166 -146Q201 -162 241 -162Q267 -162 285 -154T304 -127Q304 -109 292 -101T262 -94Q248 -94 238 -96T219 -101L203 -76L263 -13Q210 -7 168 17T96 78T51 164T35 268Q35 326 53 377T106 467T188 528T297 550Z" horiz-adv-x="560" unicode="ç"/>
			<glyph d="M292 550Q352 550 398 528T476 467Q509 427 525 371T542 246H130Q133 207 145 173T178 114T229 75T298 61Q354 61 390 85T440 153H531Q513 78 451 31T297 -15Q235 -15 186 7T104 67T52 157T35 268Q35 326 53 377T105 467T186 528T292 550ZM292 478Q256 478 228 465T180 431T148 379T132 313H443Q439 391 400 434T292 478ZM170 770H284L337 625H259Z" horiz-adv-x="577" unicode="è"/>
			<glyph d="M292 550Q352 550 398 528T476 467Q509 427 525 371T542 246H130Q133 207 145 173T178 114T229 75T298 61Q354 61 390 85T440 153H531Q513 78 451 31T297 -15Q235 -15 186 7T104 67T52 157T35 268Q35 326 53 377T105 467T186 528T292 550ZM292 478Q256 478 228 465T180 431T148 379T132 313H443Q439 391 400 434T292 478ZM303 770H417L328 625H250Z" horiz-adv-x="577" unicode="é"/>
			<glyph d="M292 550Q352 550 398 528T476 467Q509 427 525 371T542 246H130Q133 207 145 173T178 114T229 75T298 61Q354 61 390 85T440 153H531Q513 78 451 31T297 -15Q235 -15 186 7T104 67T52 157T35 268Q35 326 53 377T105 467T186 528T292 550ZM292 478Q256 478 228 465T180 431T148 379T132 313H443Q439 391 400 434T292 478ZM243 752H346L440 629H346L294 704H292L238 629H146Z" horiz-adv-x="577" unicode="ê"/>
			<glyph d="M292 550Q352 550 398 528T476 467Q509 427 525 371T542 246H130Q133 207 145 173T178 114T229 75T298 61Q354 61 390 85T440 153H531Q513 78 451 31T297 -15Q235 -15 186 7T104 67T52 157T35 268Q35 326 53 377T105 467T186 528T292 550ZM292 478Q256 478 228 465T180 431T148 379T132 313H443Q439 391 400 434T292 478ZM346 744H438V636H346ZM148 744H240V636H148Z" horiz-adv-x="577" unicode="ë"/>
			<glyph d="M64 537H157V0H64ZM-13 770H101L154 625H76Z" horiz-adv-x="221" unicode="ì"/>
			<glyph d="M64 537H157V0H64ZM120 770H234L145 625H67Z" horiz-adv-x="221" unicode="í"/>
			<glyph d="M64 537H157V0H64ZM60 752H163L257 629H163L111 704H109L55 629H-37Z" horiz-adv-x="221" unicode="î"/>
			<glyph d="M64 537H157V0H64ZM143 744H235V636H143ZM-15 744H77V636H-15Z" horiz-adv-x="221" unicode="ï"/>
			<glyph d="M205 744H315Q346 723 380 694L491 728L508 680L422 654Q450 624 474 587T518 507T548 411T559 299Q559 231 541 173T490 74T408 8T298 -15Q237 -15 188 7T106 68T53 157T35 268Q35 326 52 377T101 466T178 526T281 548Q325 548 365 533T432 483H435Q418 525 392 560T336 627L200 586L184 634L293 667Q271 687 249 703T205 737ZM294 476Q253 476 222 460T171 416T140 350T130 268Q130 224 140 186T172 121T224 77T297 61Q338 61 369 77T422 122T453 189T464 271Q464 314 453 351T420 416T367 460T294 476Z" horiz-adv-x="597" unicode="ð"/>
			<glyph d="M329 550Q414 550 462 505T510 375V0H418V364Q418 416 386 444T300 472Q269 472 242 461T197 432T167 386T157 327V0H64V537H156V461H159Q188 502 229 526T329 550ZM225 739Q246 739 262 733T293 719T321 706T348 700Q363 700 368 711T376 737H440Q438 687 418 659T357 631Q337 631 319 637T286 650T257 664T234 670Q222 670 214 658T205 632H141Q143 684 165 711T225 739Z" horiz-adv-x="571" unicode="ñ"/>
			<glyph d="M298 550Q359 550 407 528T489 467T541 377T559 268Q559 209 541 157T489 67T407 7T298 -15Q237 -15 188 7T106 67T53 157T35 268Q35 326 53 377T106 467T188 528T298 550ZM297 476Q256 476 224 460T172 415T140 349T130 268Q130 224 140 186T172 121T224 77T297 61Q338 61 369 77T422 121T453 186T464 268Q464 311 453 349T422 415T369 460T297 476ZM174 770H288L341 625H263Z" horiz-adv-x="594" unicode="ò"/>
			<glyph d="M298 550Q359 550 407 528T489 467T541 377T559 268Q559 209 541 157T489 67T407 7T298 -15Q237 -15 188 7T106 67T53 157T35 268Q35 326 53 377T106 467T188 528T298 550ZM297 476Q256 476 224 460T172 415T140 349T130 268Q130 224 140 186T172 121T224 77T297 61Q338 61 369 77T422 121T453 186T464 268Q464 311 453 349T422 415T369 460T297 476ZM307 770H421L332 625H254Z" horiz-adv-x="594" unicode="ó"/>
			<glyph d="M298 550Q359 550 407 528T489 467T541 377T559 268Q559 209 541 157T489 67T407 7T298 -15Q237 -15 188 7T106 67T53 157T35 268Q35 326 53 377T106 467T188 528T298 550ZM297 476Q256 476 224 460T172 415T140 349T130 268Q130 224 140 186T172 121T224 77T297 61Q338 61 369 77T422 121T453 186T464 268Q464 311 453 349T422 415T369 460T297 476ZM247 752H350L444 629H350L298 704H296L242 629H150Z" horiz-adv-x="594" unicode="ô"/>
			<glyph d="M298 550Q359 550 407 528T489 467T541 377T559 268Q559 209 541 157T489 67T407 7T298 -15Q237 -15 188 7T106 67T53 157T35 268Q35 326 53 377T106 467T188 528T298 550ZM297 476Q256 476 224 460T172 415T140 349T130 268Q130 224 140 186T172 121T224 77T297 61Q338 61 369 77T422 121T453 186T464 268Q464 311 453 349T422 415T369 460T297 476ZM232 739Q253 739 269 733T300 719T328 706T355 700Q370 700 375 711T383 737H447Q445 687 425 659T364 631Q344 631 326 637T293 650T264 664T241 670Q229 670 221 658T212 632H148Q150 684 172 711T232 739Z" horiz-adv-x="594" unicode="õ"/>
			<glyph d="M298 550Q359 550 407 528T489 467T541 377T559 268Q559 209 541 157T489 67T407 7T298 -15Q237 -15 188 7T106 67T53 157T35 268Q35 326 53 377T106 467T188 528T298 550ZM297 476Q256 476 224 460T172 415T140 349T130 268Q130 224 140 186T172 121T224 77T297 61Q338 61 369 77T422 121T453 186T464 268Q464 311 453 349T422 415T369 460T297 476ZM350 744H442V636H350ZM152 744H244V636H152Z" horiz-adv-x="594" unicode="ö"/>
			<glyph d="M246 576H355V467H246ZM63 376H537V303H63ZM246 211H355V103H246Z" horiz-adv-x="600" unicode="÷"/>
			<glyph d="M538 563L574 531L501 452Q529 415 544 368T559 268Q559 209 541 157T489 67T407 7T298 -15Q245 -15 202 1T126 47L55 -29L19 3L93 83Q64 120 49 167T35 268Q35 326 53 377T106 467T188 528T298 550Q350 550 393 533T468 488ZM297 476Q256 476 224 460T172 415T140 349T129 268Q129 198 154 149L412 428Q392 451 363 463T297 476ZM440 386L182 108Q203 86 231 73T297 61Q338 61 369 77T422 121T454 186T465 268Q465 334 440 386Z" horiz-adv-x="594" unicode="ø"/>
			<glyph d="M61 537H154V172Q154 121 184 92T271 64Q302 64 327 75T369 105T396 152T406 210V537H499V0H407V75H405Q376 35 338 11T243 -12Q159 -12 110 35T61 167ZM157 770H271L324 625H246Z" horiz-adv-x="564" unicode="ù"/>
			<glyph d="M61 537H154V172Q154 121 184 92T271 64Q302 64 327 75T369 105T396 152T406 210V537H499V0H407V75H405Q376 35 338 11T243 -12Q159 -12 110 35T61 167ZM290 770H404L315 625H237Z" horiz-adv-x="564" unicode="ú"/>
			<glyph d="M61 537H154V172Q154 121 184 92T271 64Q302 64 327 75T369 105T396 152T406 210V537H499V0H407V75H405Q376 35 338 11T243 -12Q159 -12 110 35T61 167ZM230 752H333L427 629H333L281 704H279L225 629H133Z" horiz-adv-x="564" unicode="û"/>
			<glyph d="M61 537H154V172Q154 121 184 92T271 64Q302 64 327 75T369 105T396 152T406 210V537H499V0H407V75H405Q376 35 338 11T243 -12Q159 -12 110 35T61 167ZM135 744H227V636H135ZM333 744H425V636H333Z" horiz-adv-x="564" unicode="ü"/>
			<glyph d="M5 537H106L217 239Q225 216 233 191T248 144Q255 118 262 94H264Q271 118 279 144Q286 166 294 191T310 239L417 537H514L286 -49Q269 -91 252 -118T217 -160T177 -181T130 -187Q107 -187 84 -184T51 -176V-96H55Q63 -101 78 -103T111 -106Q139 -106 158 -92T191 -41Q191 -40 194 -30T201 -9T208 14T210 27ZM272 770H386L297 625H219Z" horiz-adv-x="519" unicode="ý"/>
			<glyph d="M64 744H157V554Q157 523 156 496T154 452H157Q183 495 227 522T330 550Q381 550 423 530T496 474T544 385T561 267Q561 202 545 150T498 61T424 4T327 -16Q273 -16 229 6T158 71H155Q156 57 156 34T157 -19V-173H64ZM318 471Q275 471 244 455T192 411T162 345T152 265Q152 223 161 185T190 120T241 77T317 61Q354 61 382 76T428 119T456 183T466 265Q466 309 457 347T429 412T383 455T318 471Z" horiz-adv-x="596" unicode="þ"/>
			<glyph d="M5 537H106L217 239Q225 216 233 191T248 144Q255 118 262 94H264Q271 118 279 144Q286 166 294 191T310 239L417 537H514L286 -49Q269 -91 252 -118T217 -160T177 -181T130 -187Q107 -187 84 -184T51 -176V-96H55Q63 -101 78 -103T111 -106Q139 -106 158 -92T191 -41Q191 -40 194 -30T201 -9T208 14T210 27ZM315 744H407V636H315ZM117 744H209V636H117Z" horiz-adv-x="519" unicode="ÿ"/>
			<glyph d="M291 744H405L679 0H567L493 217H200L124 0H19ZM347 663Q340 637 333 610Q326 587 318 559T301 505L228 297H466L395 505Q385 532 377 560T363 611Q356 637 350 663ZM207 870H492V795H207Z" horiz-adv-x="698" unicode="Ā"/>
			<glyph d="M287 550Q325 550 358 543T417 521Q451 501 470 465T489 375V124Q489 92 500 76T546 68H550V3Q540 0 528 -2T500 -5Q457 -5 435 15T405 79H404Q391 61 374 45T335 16T285 -3T224 -11Q186 -11 152 -1T94 27T56 74T42 142Q42 189 58 219T105 267T178 295T273 311Q303 314 327 319T368 332T394 354T403 388Q403 432 373 457T288 482Q224 482 192 454T159 378H69Q70 412 84 443T125 498T192 536T287 550ZM404 286Q384 273 351 263T286 248T226 235T180 217T150 188T140 143Q140 117 149 100T173 74T207 60T247 57Q287 57 316 70T365 104T394 150T404 198ZM146 734H419V659H146Z" horiz-adv-x="562" unicode="ā"/>
			<glyph d="M291 744H405L679 0H567L493 217H200L124 0H19ZM347 663Q340 637 333 610Q326 587 318 559T301 505L228 297H466L395 505Q385 532 377 560T363 611Q356 637 350 663ZM213 908H279Q284 880 300 864T348 849Q379 849 397 864T420 908H485Q484 881 474 857T446 817T403 790T349 780Q294 780 255 814T213 908Z" horiz-adv-x="698" unicode="Ă"/>
			<glyph d="M287 550Q325 550 358 543T417 521Q451 501 470 465T489 375V124Q489 92 500 76T546 68H550V3Q540 0 528 -2T500 -5Q457 -5 435 15T405 79H404Q391 61 374 45T335 16T285 -3T224 -11Q186 -11 152 -1T94 27T56 74T42 142Q42 189 58 219T105 267T178 295T273 311Q303 314 327 319T368 332T394 354T403 388Q403 432 373 457T288 482Q224 482 192 454T159 378H69Q70 412 84 443T125 498T192 536T287 550ZM404 286Q384 273 351 263T286 248T226 235T180 217T150 188T140 143Q140 117 149 100T173 74T207 60T247 57Q287 57 316 70T365 104T394 150T404 198ZM146 748H212Q217 720 233 704T281 689Q312 689 330 704T353 748H418Q417 721 407 697T379 657T336 630T282 620Q227 620 188 654T146 748Z" horiz-adv-x="562" unicode="ă"/>
			<glyph d="M291 744H405L679 0Q644 -17 621 -42T599 -89Q599 -124 642 -124Q653 -124 664 -122T683 -117H686V-182Q676 -185 661 -188T625 -191Q568 -191 540 -166T513 -103Q513 -84 520 -68T539 -40T565 -17T593 0H567L493 217H200L124 0H19ZM347 663Q340 637 333 610Q326 587 318 559T301 505L228 297H466L395 505Q385 532 377 560T363 611Q356 637 350 663Z" horiz-adv-x="698" unicode="Ą"/>
			<glyph d="M287 550Q325 550 358 543T417 521Q451 501 470 465T489 375V124Q489 92 500 76T546 68H550V3Q508 -11 486 -38T465 -89Q465 -124 508 -124Q519 -124 530 -122T549 -117H552V-182Q542 -185 527 -188T491 -191Q434 -191 406 -166T379 -103Q379 -85 386 -69T404 -40T429 -16T458 2Q415 18 406 79H404Q391 61 374 45T335 16T285 -3T224 -11Q186 -11 152 -1T94 27T56 74T42 142Q42 189 58 219T105 267T178 295T273 311Q303 314 327 319T368 332T394 354T403 388Q403 432 373 457T288 482Q224 482 192 454T159 378H69Q70 412 84 443T125 498T192 536T287 550ZM404 286Q384 273 351 263T286 248T226 235T180 217T150 188T140 143Q140 117 149 100T173 74T207 60T247 57Q287 57 316 70T365 104T394 150T404 198Z" horiz-adv-x="562" unicode="ą"/>
			<glyph d="M402 760Q468 760 519 742T609 694Q649 662 672 617T704 519H602Q589 588 537 629T400 671Q341 671 295 648T217 586T169 491T153 372Q153 305 170 250T220 156T299 95T401 74Q452 74 489 90T552 133T592 195T610 271H712Q712 243 705 214T687 159T659 107T623 64Q544 -15 399 -15Q319 -15 254 14T144 94T74 217T49 372Q49 454 73 525T142 648T253 730T402 760ZM399 910H513L424 785H346Z" horiz-adv-x="756" unicode="Ć"/>
			<glyph d="M297 550Q394 550 454 499T529 362H436Q426 415 391 445T297 475Q256 475 224 459T172 415T140 349T130 268Q130 224 140 186T172 121T224 77T297 61Q360 61 396 95T438 190H530Q521 93 460 39T297 -15Q237 -15 188 7T106 67T53 157T35 268Q35 326 53 377T106 467T188 528T297 550ZM301 770H415L326 625H248Z" horiz-adv-x="560" unicode="ć"/>
			<glyph d="M402 760Q468 760 519 742T609 694Q649 662 672 617T704 519H602Q589 588 537 629T400 671Q341 671 295 648T217 586T169 491T153 372Q153 305 170 250T220 156T299 95T401 74Q452 74 489 90T552 133T592 195T610 271H712Q712 243 705 214T687 159T659 107T623 64Q544 -15 399 -15Q319 -15 254 14T144 94T74 217T49 372Q49 454 73 525T142 648T253 730T402 760ZM339 898H442L540 785H444L390 846H388L332 785H238Z" horiz-adv-x="756" unicode="Ĉ"/>
			<glyph d="M297 550Q394 550 454 499T529 362H436Q426 415 391 445T297 475Q256 475 224 459T172 415T140 349T130 268Q130 224 140 186T172 121T224 77T297 61Q360 61 396 95T438 190H530Q521 93 460 39T297 -15Q237 -15 188 7T106 67T53 157T35 268Q35 326 53 377T106 467T188 528T297 550ZM241 752H344L438 629H344L292 704H290L236 629H144Z" horiz-adv-x="560" unicode="ĉ"/>
			<glyph d="M402 760Q468 760 519 742T609 694Q649 662 672 617T704 519H602Q589 588 537 629T400 671Q341 671 295 648T217 586T169 491T153 372Q153 305 170 250T220 156T299 95T401 74Q452 74 489 90T552 133T592 195T610 271H712Q712 243 705 214T687 159T659 107T623 64Q544 -15 399 -15Q319 -15 254 14T144 94T74 217T49 372Q49 454 73 525T142 648T253 730T402 760ZM341 893H438V785H341Z" horiz-adv-x="756" unicode="Ċ"/>
			<glyph d="M297 550Q394 550 454 499T529 362H436Q426 415 391 445T297 475Q256 475 224 459T172 415T140 349T130 268Q130 224 140 186T172 121T224 77T297 61Q360 61 396 95T438 190H530Q521 93 460 39T297 -15Q237 -15 188 7T106 67T53 157T35 268Q35 326 53 377T106 467T188 528T297 550ZM243 744H340V636H243Z" horiz-adv-x="560" unicode="ċ"/>
			<glyph d="M402 760Q468 760 519 742T609 694Q649 662 672 617T704 519H602Q589 588 537 629T400 671Q341 671 295 648T217 586T169 491T153 372Q153 305 170 250T220 156T299 95T401 74Q452 74 489 90T552 133T592 195T610 271H712Q712 243 705 214T687 159T659 107T623 64Q544 -15 399 -15Q319 -15 254 14T144 94T74 217T49 372Q49 454 73 525T142 648T253 730T402 760ZM238 898H334L388 837H390L446 898H540L439 785H336Z" horiz-adv-x="756" unicode="Č"/>
			<glyph d="M297 550Q394 550 454 499T529 362H436Q426 415 391 445T297 475Q256 475 224 459T172 415T140 349T130 268Q130 224 140 186T172 121T224 77T297 61Q360 61 396 95T438 190H530Q521 93 460 39T297 -15Q237 -15 188 7T106 67T53 157T35 268Q35 326 53 377T106 467T188 528T297 550ZM144 749H238L290 673H292L346 749H438L341 625H238Z" horiz-adv-x="560" unicode="č"/>
			<glyph d="M77 744H352Q435 744 497 717T601 640T663 522T684 369Q684 286 662 218T598 101T492 26T345 0H77ZM180 655V89H341Q404 89 449 108T522 164T564 253T578 369Q578 433 565 486T525 576T454 634T347 655ZM187 898H283L337 837H339L395 898H489L388 785H285Z" horiz-adv-x="732" unicode="Ď"/>
			<glyph d="M439 744H532V0H440V77H438Q412 33 370 8T272 -16Q218 -16 174 4T99 60T51 149T35 267Q35 333 53 385T102 474T177 530T270 550Q327 550 370 524T440 455H442Q440 473 439 500T439 554ZM279 472Q242 472 214 456T167 413T139 348T130 266Q130 222 139 184T167 119T214 76T279 61Q322 61 353 76T404 119T434 184T444 266Q444 311 433 349T402 414T350 457T279 472ZM589 744H689V661Q689 610 661 584T587 557V601Q613 605 624 618T635 655H589Z" horiz-adv-x="596" unicode="ď"/>
			<glyph d="M87 744H362Q446 744 508 717T611 640T673 522T694 369Q694 286 672 218T608 101T502 26T355 0H87V331H13V417H87ZM190 655V417H400V331H190V89H351Q414 89 459 108T533 164T575 253T589 369Q589 433 576 486T536 576T464 634T357 655Z" horiz-adv-x="742" unicode="Đ"/>
			<glyph d="M439 744H532V670H604V608H532V0H440V77H438Q412 33 370 8T272 -16Q218 -16 174 4T99 60T51 149T35 267Q35 333 53 385T102 474T177 530T270 550Q327 550 370 524T440 455H442Q440 473 439 500T439 554V608H287V670H439ZM279 472Q242 472 214 456T167 413T139 348T130 266Q130 222 139 184T167 119T214 76T279 61Q322 61 353 76T404 119T434 184T444 266Q444 311 433 349T402 414T350 457T279 472Z" horiz-adv-x="596" unicode="đ"/>
			<glyph d="M77 744H606V654H179V429H565V344H179V93H617V0H77ZM211 870H496V795H211Z" horiz-adv-x="666" unicode="Ē"/>
			<glyph d="M292 550Q352 550 398 528T476 467Q509 427 525 371T542 246H130Q133 207 145 173T178 114T229 75T298 61Q354 61 390 85T440 153H531Q513 78 451 31T297 -15Q235 -15 186 7T104 67T52 157T35 268Q35 326 53 377T105 467T186 528T292 550ZM292 478Q256 478 228 465T180 431T148 379T132 313H443Q439 391 400 434T292 478ZM157 734H430V659H157Z" horiz-adv-x="577" unicode="ē"/>
			<glyph d="M77 744H606V654H179V429H565V344H179V93H617V0H77ZM217 908H283Q288 880 304 864T352 849Q383 849 401 864T424 908H489Q488 881 478 857T450 817T407 790T353 780Q298 780 259 814T217 908Z" horiz-adv-x="666" unicode="Ĕ"/>
			<glyph d="M292 550Q352 550 398 528T476 467Q509 427 525 371T542 246H130Q133 207 145 173T178 114T229 75T298 61Q354 61 390 85T440 153H531Q513 78 451 31T297 -15Q235 -15 186 7T104 67T52 157T35 268Q35 326 53 377T105 467T186 528T292 550ZM292 478Q256 478 228 465T180 431T148 379T132 313H443Q439 391 400 434T292 478ZM157 748H223Q228 720 244 704T292 689Q323 689 341 704T364 748H429Q428 721 418 697T390 657T347 630T293 620Q238 620 199 654T157 748Z" horiz-adv-x="577" unicode="ĕ"/>
			<glyph d="M77 744H606V654H179V429H565V344H179V93H617V0H77ZM305 893H402V785H305Z" horiz-adv-x="666" unicode="Ė"/>
			<glyph d="M292 550Q352 550 398 528T476 467Q509 427 525 371T542 246H130Q133 207 145 173T178 114T229 75T298 61Q354 61 390 85T440 153H531Q513 78 451 31T297 -15Q235 -15 186 7T104 67T52 157T35 268Q35 326 53 377T105 467T186 528T292 550ZM292 478Q256 478 228 465T180 431T148 379T132 313H443Q439 391 400 434T292 478ZM245 744H342V636H245Z" horiz-adv-x="577" unicode="ė"/>
			<glyph d="M77 744H606V654H179V429H565V344H179V93H617V0H561Q535 -21 516 -44T498 -89Q498 -124 541 -124Q552 -124 563 -122T582 -117H585V-182Q575 -185 560 -188T524 -191Q467 -191 439 -166T412 -103Q412 -84 419 -68T438 -40T464 -17T492 0H77Z" horiz-adv-x="666" unicode="Ę"/>
			<glyph d="M292 550Q352 550 398 528T476 467Q509 427 525 371T542 246H130Q133 207 145 173T178 114T229 75T298 61Q354 61 390 85T440 153H531Q524 123 511 101T485 62T456 34T431 16Q344 -43 344 -89Q344 -124 387 -124Q398 -124 409 -122T428 -117H431V-182Q421 -185 406 -188T370 -191Q313 -191 285 -166T258 -103Q258 -74 274 -51T313 -14Q309 -15 305 -15Q301 -15 297 -15Q235 -15 186 7T104 67T52 157T35 268Q35 326 53 377T105 467T186 528T292 550ZM292 478Q256 478 228 465T180 431T148 379T132 313H443Q439 391 400 434T292 478Z" horiz-adv-x="577" unicode="ę"/>
			<glyph d="M77 744H606V654H179V429H565V344H179V93H617V0H77ZM202 898H298L352 837H354L410 898H504L403 785H300Z" horiz-adv-x="666" unicode="Ě"/>
			<glyph d="M292 550Q352 550 398 528T476 467Q509 427 525 371T542 246H130Q133 207 145 173T178 114T229 75T298 61Q354 61 390 85T440 153H531Q513 78 451 31T297 -15Q235 -15 186 7T104 67T52 157T35 268Q35 326 53 377T105 467T186 528T292 550ZM292 478Q256 478 228 465T180 431T148 379T132 313H443Q439 391 400 434T292 478ZM146 749H240L292 673H294L348 749H440L343 625H240Z" horiz-adv-x="577" unicode="ě"/>
			<glyph d="M407 759Q473 759 524 742T614 694T676 621T711 528H605Q588 591 540 631T406 671Q341 671 293 648T214 584T168 488T153 369Q153 303 171 248T223 155T302 94T403 73Q458 73 499 90T568 138T608 207T622 291V307H406V394H723V0H658L631 105H628Q588 44 529 14T398 -16Q320 -16 256 12T146 92Q99 143 74 213T49 369Q49 454 73 525T144 650Q189 701 254 730T407 759ZM351 898H454L552 785H456L402 846H400L344 785H250Z" horiz-adv-x="781" unicode="Ĝ"/>
			<glyph d="M273 550Q331 550 370 528T436 466H438V537H530V22Q530 -32 513 -71T465 -137Q433 -163 389 -175T291 -188Q185 -188 126 -148T60 -37H147Q153 -79 191 -97T289 -116Q361 -116 399 -83T438 18V33Q438 56 438 76T440 110H438Q410 70 372 47T278 24Q227 24 183 43T109 97T60 180T43 287Q43 349 61 398T110 480T184 532T273 550ZM286 473Q212 473 175 422T138 286Q138 200 176 150T287 100Q331 100 361 114T409 154T436 215T444 291Q444 376 405 424T286 473ZM242 752H345L439 629H345L293 704H291L237 629H145Z" horiz-adv-x="595" unicode="ĝ"/>
			<glyph d="M407 759Q473 759 524 742T614 694T676 621T711 528H605Q588 591 540 631T406 671Q341 671 293 648T214 584T168 488T153 369Q153 303 171 248T223 155T302 94T403 73Q458 73 499 90T568 138T608 207T622 291V307H406V394H723V0H658L631 105H628Q588 44 529 14T398 -16Q320 -16 256 12T146 92Q99 143 74 213T49 369Q49 454 73 525T144 650Q189 701 254 730T407 759ZM265 908H331Q336 880 352 864T400 849Q431 849 449 864T472 908H537Q536 881 526 857T498 817T455 790T401 780Q346 780 307 814T265 908Z" horiz-adv-x="781" unicode="Ğ"/>
			<glyph d="M273 550Q331 550 370 528T436 466H438V537H530V22Q530 -32 513 -71T465 -137Q433 -163 389 -175T291 -188Q185 -188 126 -148T60 -37H147Q153 -79 191 -97T289 -116Q361 -116 399 -83T438 18V33Q438 56 438 76T440 110H438Q410 70 372 47T278 24Q227 24 183 43T109 97T60 180T43 287Q43 349 61 398T110 480T184 532T273 550ZM286 473Q212 473 175 422T138 286Q138 200 176 150T287 100Q331 100 361 114T409 154T436 215T444 291Q444 376 405 424T286 473ZM156 748H222Q227 720 243 704T291 689Q322 689 340 704T363 748H428Q427 721 417 697T389 657T346 630T292 620Q237 620 198 654T156 748Z" horiz-adv-x="595" unicode="ğ"/>
			<glyph d="M407 759Q473 759 524 742T614 694T676 621T711 528H605Q588 591 540 631T406 671Q341 671 293 648T214 584T168 488T153 369Q153 303 171 248T223 155T302 94T403 73Q458 73 499 90T568 138T608 207T622 291V307H406V394H723V0H658L631 105H628Q588 44 529 14T398 -16Q320 -16 256 12T146 92Q99 143 74 213T49 369Q49 454 73 525T144 650Q189 701 254 730T407 759ZM353 893H450V785H353Z" horiz-adv-x="781" unicode="Ġ"/>
			<glyph d="M273 550Q331 550 370 528T436 466H438V537H530V22Q530 -32 513 -71T465 -137Q433 -163 389 -175T291 -188Q185 -188 126 -148T60 -37H147Q153 -79 191 -97T289 -116Q361 -116 399 -83T438 18V33Q438 56 438 76T440 110H438Q410 70 372 47T278 24Q227 24 183 43T109 97T60 180T43 287Q43 349 61 398T110 480T184 532T273 550ZM286 473Q212 473 175 422T138 286Q138 200 176 150T287 100Q331 100 361 114T409 154T436 215T444 291Q444 376 405 424T286 473ZM244 744H341V636H244Z" horiz-adv-x="595" unicode="ġ"/>
			<glyph d="M407 759Q473 759 524 742T614 694T676 621T711 528H605Q588 591 540 631T406 671Q341 671 293 648T214 584T168 488T153 369Q153 303 171 248T223 155T302 94T403 73Q458 73 499 90T568 138T608 207T622 291V307H406V394H723V0H658L631 105H628Q588 44 529 14T398 -16Q320 -16 256 12T146 92Q99 143 74 213T49 369Q49 454 73 525T144 650Q189 701 254 730T407 759ZM348 -51H456V-141Q456 -192 427 -217T347 -245V-201Q402 -194 402 -149V-147H348Z" horiz-adv-x="781" unicode="Ģ"/>
			<glyph d="M273 550Q331 550 370 528T436 466H438V537H530V22Q530 -32 513 -71T465 -137Q433 -163 389 -175T291 -188Q185 -188 126 -148T60 -37H147Q153 -79 191 -97T289 -116Q361 -116 399 -83T438 18V33Q438 56 438 76T440 110H438Q410 70 372 47T278 24Q227 24 183 43T109 97T60 180T43 287Q43 349 61 398T110 480T184 532T273 550ZM286 473Q212 473 175 422T138 286Q138 200 176 150T287 100Q331 100 361 114T409 154T436 215T444 291Q444 376 405 424T286 473ZM347 830V786Q292 779 292 734V732H346V636H238V726Q238 777 267 802T347 830Z" horiz-adv-x="595" unicode="ģ"/>
			<glyph d="M77 744H179V431H563V744H666V0H563V348H179V0H77ZM321 898H424L522 785H426L372 846H370L314 785H220Z" horiz-adv-x="743" unicode="Ĥ"/>
			<glyph d="M64 744H157V549Q157 529 156 504T154 459H157Q187 502 228 526T329 550Q414 550 462 505T510 375V0H418V364Q418 416 386 444T300 472Q269 472 242 461T197 432T167 386T157 327V0H64ZM237 898H340L438 785H342L288 846H286L230 785H136Z" horiz-adv-x="571" unicode="ĥ"/>
			<glyph d="M77 744H179V613H563V744H666V613H741V540H666V0H563V348H179V0H77V540H2V613H77ZM179 540V431H563V540Z" horiz-adv-x="743" unicode="Ħ"/>
			<glyph d="M64 744H157V670H309V608H157V549Q157 529 156 504T154 459H157Q187 502 228 526T329 550Q414 550 462 505T510 375V0H418V364Q418 416 386 444T300 472Q269 472 242 461T197 432T167 386T157 327V0H64V608H-8V670H64Z" horiz-adv-x="571" unicode="ħ"/>
			<glyph d="M79 744H181V0H79ZM65 894Q86 894 102 888T133 874T161 861T188 855Q203 855 208 866T216 892H280Q278 842 258 814T197 786Q177 786 159 792T126 805T97 819T74 825Q62 825 54 813T45 787H-19Q-17 839 5 866T65 894Z" horiz-adv-x="260" unicode="Ĩ"/>
			<glyph d="M64 537H157V0H64ZM45 739Q66 739 82 733T113 719T141 706T168 700Q183 700 188 711T196 737H260Q258 687 238 659T177 631Q157 631 139 637T106 650T77 664T54 670Q42 670 34 658T25 632H-39Q-37 684 -15 711T45 739Z" horiz-adv-x="221" unicode="ĩ"/>
			<glyph d="M79 744H181V0H79ZM8 870H253V795H8Z" horiz-adv-x="260" unicode="Ī"/>
			<glyph d="M64 537H157V0H64ZM4 734H218V659H4Z" horiz-adv-x="221" unicode="ī"/>
			<glyph d="M79 744H181V0H79ZM-6 908H60Q65 880 81 864T129 849Q160 849 178 864T201 908H266Q265 881 255 857T227 817T184 790T130 780Q75 780 36 814T-6 908Z" horiz-adv-x="260" unicode="Ĭ"/>
			<glyph d="M64 537H157V0H64ZM-26 748H40Q45 720 61 704T109 689Q140 689 158 704T181 748H246Q245 721 235 697T207 657T164 630T110 620Q55 620 16 654T-26 748Z" horiz-adv-x="221" unicode="ĭ"/>
			<glyph d="M79 744H181V0Q150 -17 130 -42T110 -89Q110 -124 153 -124Q164 -124 175 -122T194 -117H197V-182Q187 -185 172 -188T136 -191Q79 -191 51 -166T24 -103Q24 -84 31 -68T50 -40T76 -17T104 0H79Z" horiz-adv-x="260" unicode="Į"/>
			<glyph d="M64 537H157V0Q127 -18 107 -42T87 -89Q87 -124 130 -124Q141 -124 152 -122T171 -117H174V-182Q164 -185 149 -188T113 -191Q56 -191 28 -166T1 -103Q1 -84 8 -68T27 -40T53 -17T81 0H64ZM62 744H159V636H62Z" horiz-adv-x="221" unicode="į"/>
			<glyph d="M79 744H181V0H79ZM82 893H179V785H82Z" horiz-adv-x="260" unicode="İ"/>
			<glyph d="M64 537H157V0H64Z" horiz-adv-x="221" unicode="ı"/>
			<glyph d="M79 744H181V0H79ZM600 744H702V191Q702 146 689 109T649 45Q622 17 581 1T484 -15Q380 -15 320 43T261 230V246H361V233Q361 186 368 154T391 104T430 78T485 70Q540 70 570 100T600 197Z" horiz-adv-x="769" unicode="Ĳ"/>
			<glyph d="M285 537H378V-46Q378 -85 368 -108T342 -146Q324 -160 301 -165T251 -170Q236 -170 223 -168T199 -165V-91H202Q217 -94 231 -94Q258 -93 271 -81T285 -41ZM64 537H157V0H64ZM283 744H380V636H283ZM62 744H159V636H62Z" horiz-adv-x="443" unicode="ĳ"/>
			<glyph d="M370 744H472V191Q472 146 459 109T419 45Q392 17 351 1T254 -15Q150 -15 90 43T31 230V246H131V233Q131 186 138 154T161 104T200 78T255 70Q310 70 340 100T370 197ZM369 898H472L570 785H474L420 846H418L362 785H268Z" horiz-adv-x="539" unicode="Ĵ"/>
			<glyph d="M64 537H157V-46Q157 -85 147 -108T121 -146Q103 -160 80 -165T30 -170Q15 -170 2 -168T-22 -165V-91H-19Q-4 -94 10 -94Q37 -93 50 -81T64 -41ZM59 752H162L256 629H162L110 704H108L54 629H-38Z" horiz-adv-x="222" unicode="ĵ"/>
			<glyph d="M534 745H662L363 446L686 0H567L292 380L179 269V0H77V744H179V514Q179 476 178 440T175 377ZM295 -51H403V-141Q403 -192 374 -217T294 -245V-201Q349 -194 349 -149V-147H295Z" horiz-adv-x="686" unicode="Ķ"/>
			<glyph d="M64 744H157V391Q157 377 156 352T153 308L386 537H502L297 344L526 0H417L233 283L157 211V0H64ZM218 -51H326V-141Q326 -192 297 -217T217 -245V-201Q272 -194 272 -149V-147H218Z" horiz-adv-x="542" unicode="ķ"/>
			<glyph d="M64 537H157V391Q157 377 156 352T153 308L386 537H502L297 344L526 0H417L233 283L157 211V0H64Z" horiz-adv-x="542" unicode="ĸ"/>
			<glyph d="M77 744H179V93H564V0H77ZM137 910H251L162 785H84Z" horiz-adv-x="595" unicode="Ĺ"/>
			<glyph d="M67 744H160V0H67ZM123 910H237L148 785H70Z" horiz-adv-x="227" unicode="ĺ"/>
			<glyph d="M77 744H179V93H564V0H77ZM270 -51H378V-141Q378 -192 349 -217T269 -245V-201Q324 -194 324 -149V-147H270Z" horiz-adv-x="595" unicode="Ļ"/>
			<glyph d="M67 744H160V0H67ZM60 -51H168V-141Q168 -192 139 -217T59 -245V-201Q114 -194 114 -149V-147H60Z" horiz-adv-x="227" unicode="ļ"/>
			<glyph d="M342 744H445V648Q445 595 416 569T340 541V586Q367 591 378 604T389 642H342ZM77 744H179V93H564V0H77Z" horiz-adv-x="595" unicode="Ľ"/>
			<glyph d="M67 744H160V0H67ZM217 744H317V661Q317 610 289 584T215 557V601Q241 605 252 618T263 655H217Z" horiz-adv-x="227" unicode="ľ"/>
			<glyph d="M77 744H179V93H564V0H77ZM385 413H493V303H385Z" horiz-adv-x="595" unicode="Ŀ"/>
			<glyph d="M67 744H160V0H67ZM234 413H342V303H234Z" horiz-adv-x="349" unicode="ŀ"/>
			<glyph d="M78 744H180V386L432 521V437L180 301V93H564V0H78V247L4 207V292L78 331Z" horiz-adv-x="596" unicode="Ł"/>
			<glyph d="M87 744H180V459L270 529V445L180 375V0H87V302L7 240V324L87 386Z" horiz-adv-x="267" unicode="ł"/>
			<glyph d="M77 744H184L489 278Q503 257 517 231T544 183Q558 157 572 130H575Q573 158 571 186Q569 210 568 238T568 289V744H664V0H558L254 466Q240 487 225 512T198 560Q183 586 169 613H167Q168 585 170 557Q171 533 172 506T173 456V0H77ZM388 910H502L413 785H335Z" horiz-adv-x="741" unicode="Ń"/>
			<glyph d="M329 550Q414 550 462 505T510 375V0H418V364Q418 416 386 444T300 472Q269 472 242 461T197 432T167 386T157 327V0H64V537H156V461H159Q188 502 229 526T329 550ZM300 770H414L325 625H247Z" horiz-adv-x="571" unicode="ń"/>
			<glyph d="M77 744H184L489 278Q503 257 517 231T544 183Q558 157 572 130H575Q573 158 571 186Q569 210 568 238T568 289V744H664V0H558L254 466Q240 487 225 512T198 560Q183 586 169 613H167Q168 585 170 557Q171 533 172 506T173 456V0H77ZM325 -51H433V-141Q433 -192 404 -217T324 -245V-201Q379 -194 379 -149V-147H325Z" horiz-adv-x="741" unicode="Ņ"/>
			<glyph d="M329 550Q414 550 462 505T510 375V0H418V364Q418 416 386 444T300 472Q269 472 242 461T197 432T167 386T157 327V0H64V537H156V461H159Q188 502 229 526T329 550ZM237 -51H345V-141Q345 -192 316 -217T236 -245V-201Q291 -194 291 -149V-147H237Z" horiz-adv-x="571" unicode="ņ"/>
			<glyph d="M77 744H184L489 278Q503 257 517 231T544 183Q558 157 572 130H575Q573 158 571 186Q569 210 568 238T568 289V744H664V0H558L254 466Q240 487 225 512T198 560Q183 586 169 613H167Q168 585 170 557Q171 533 172 506T173 456V0H77ZM227 898H323L377 837H379L435 898H529L428 785H325Z" horiz-adv-x="741" unicode="Ň"/>
			<glyph d="M329 550Q414 550 462 505T510 375V0H418V364Q418 416 386 444T300 472Q269 472 242 461T197 432T167 386T157 327V0H64V537H156V461H159Q188 502 229 526T329 550ZM143 749H237L289 673H291L345 749H437L340 625H237Z" horiz-adv-x="571" unicode="ň"/>
			<glyph d="M329 550Q414 550 462 505T510 375V0H418V364Q418 416 386 444T300 472Q269 472 242 461T197 432T167 386T157 327V0H64V537H156V461H159Q188 502 229 526T329 550ZM-36 744H64V661Q64 610 36 584T-38 557V601Q-12 605 -1 618T10 655H-36Z" horiz-adv-x="571" unicode="ŉ"/>
			<glyph d="M77 744H184L489 278Q503 257 517 231T544 183Q558 157 572 130H575Q573 158 571 186Q569 210 568 238T568 289V744H664V18Q664 -27 653 -63T615 -128Q588 -157 548 -172T452 -188Q437 -188 420 -186T394 -183V-100H397Q412 -103 434 -103Q488 -103 522 -81T565 -10L254 466Q240 487 225 512T198 560Q183 586 169 613H167Q168 585 170 557Q171 533 172 506T173 456V0H77Z" horiz-adv-x="741" unicode="Ŋ"/>
			<glyph d="M329 550Q414 550 462 505T510 375V-46Q510 -85 500 -108T474 -146Q456 -160 433 -165T383 -170Q368 -170 355 -168T331 -165V-91H334Q349 -94 363 -94Q390 -93 404 -81T418 -41V364Q418 416 386 444T300 472Q269 472 242 461T197 432T167 386T157 327V0H64V537H156V461H159Q188 502 229 526T329 550Z" horiz-adv-x="571" unicode="ŋ"/>
			<glyph d="M413 760Q497 760 564 730T679 649T752 527T778 372Q778 289 752 218T679 95T564 13T413 -16Q329 -16 261 13T146 95T74 218T49 372Q49 456 74 527T146 649T261 730T413 760ZM413 672Q350 672 301 649T220 586T170 491T153 372Q153 308 170 253T220 159T301 96T413 74Q476 74 524 96T606 159T655 253T672 372Q672 436 655 491T606 586T524 649T413 672ZM271 870H556V795H271Z" horiz-adv-x="826" unicode="Ō"/>
			<glyph d="M298 550Q359 550 407 528T489 467T541 377T559 268Q559 209 541 157T489 67T407 7T298 -15Q237 -15 188 7T106 67T53 157T35 268Q35 326 53 377T106 467T188 528T298 550ZM297 476Q256 476 224 460T172 415T140 349T130 268Q130 224 140 186T172 121T224 77T297 61Q338 61 369 77T422 121T453 186T464 268Q464 311 453 349T422 415T369 460T297 476ZM161 734H434V659H161Z" horiz-adv-x="594" unicode="ō"/>
			<glyph d="M413 760Q497 760 564 730T679 649T752 527T778 372Q778 289 752 218T679 95T564 13T413 -16Q329 -16 261 13T146 95T74 218T49 372Q49 456 74 527T146 649T261 730T413 760ZM413 672Q350 672 301 649T220 586T170 491T153 372Q153 308 170 253T220 159T301 96T413 74Q476 74 524 96T606 159T655 253T672 372Q672 436 655 491T606 586T524 649T413 672ZM277 908H343Q348 880 364 864T412 849Q443 849 461 864T484 908H549Q548 881 538 857T510 817T467 790T413 780Q358 780 319 814T277 908Z" horiz-adv-x="826" unicode="Ŏ"/>
			<glyph d="M298 550Q359 550 407 528T489 467T541 377T559 268Q559 209 541 157T489 67T407 7T298 -15Q237 -15 188 7T106 67T53 157T35 268Q35 326 53 377T106 467T188 528T298 550ZM297 476Q256 476 224 460T172 415T140 349T130 268Q130 224 140 186T172 121T224 77T297 61Q338 61 369 77T422 121T453 186T464 268Q464 311 453 349T422 415T369 460T297 476ZM161 748H227Q232 720 248 704T296 689Q327 689 345 704T368 748H433Q432 721 422 697T394 657T351 630T297 620Q242 620 203 654T161 748Z" horiz-adv-x="594" unicode="ŏ"/>
			<glyph d="M413 760Q497 760 564 730T679 649T752 527T778 372Q778 289 752 218T679 95T564 13T413 -16Q329 -16 261 13T146 95T74 218T49 372Q49 456 74 527T146 649T261 730T413 760ZM413 672Q350 672 301 649T220 586T170 491T153 372Q153 308 170 253T220 159T301 96T413 74Q476 74 524 96T606 159T655 253T672 372Q672 436 655 491T606 586T524 649T413 672ZM478 910H575L516 785H447ZM331 910H430L372 785H301Z" horiz-adv-x="826" unicode="Ő"/>
			<glyph d="M298 550Q359 550 407 528T489 467T541 377T559 268Q559 209 541 157T489 67T407 7T298 -15Q237 -15 188 7T106 67T53 157T35 268Q35 326 53 377T106 467T188 528T298 550ZM297 476Q256 476 224 460T172 415T140 349T130 268Q130 224 140 186T172 121T224 77T297 61Q338 61 369 77T422 121T453 186T464 268Q464 311 453 349T422 415T369 460T297 476ZM370 770H463L404 625H337ZM228 770H322L262 625H194Z" horiz-adv-x="594" unicode="ő"/>
			<glyph d="M390 760Q454 760 500 736T579 667V744H1072V654H678V429H1030V344H678V94H1084V0H579V72Q548 30 501 7T390 -16Q314 -16 251 13T144 95T74 218T49 372Q49 456 74 527T145 649T253 730T390 760ZM393 672Q336 672 291 649T216 586T169 491T153 372Q153 308 169 253T215 158T291 95T393 72Q428 72 461 82T521 112T562 158T578 220V511Q578 548 562 577T521 628T461 660T393 672Z" horiz-adv-x="1132" unicode="Œ"/>
			<glyph d="M286 550Q360 550 411 515T491 423Q520 480 571 515T693 550Q750 550 794 528T868 467Q899 427 914 371T930 246H537Q540 207 551 173T583 114T633 75T699 61Q753 61 784 85T829 153H919Q902 78 844 31T698 -15Q623 -15 571 19T491 111Q462 54 410 19T286 -15Q228 -15 181 7T102 67T52 157T35 268Q35 326 52 377T102 467T181 528T286 550ZM286 476Q247 476 217 460T168 415T139 349T130 268Q130 224 139 186T168 121T217 77T286 61Q325 61 355 77T405 121T436 186T446 268Q446 311 436 349T405 415T355 460T286 476ZM693 478Q658 478 631 465T585 431T554 379T539 313H832Q828 391 793 434T693 478Z" horiz-adv-x="965" unicode="œ"/>
			<glyph d="M77 744H425Q475 744 516 729T586 688T632 623T648 539Q648 471 617 423T512 353V350Q543 341 564 326T598 289T617 238T627 168Q630 124 634 94T642 46T650 18T661 5V0H552Q546 5 542 15T535 44T530 92T525 167Q520 246 485 278T377 310H179V0H77ZM179 656V392H392Q468 392 505 427T543 524Q543 590 509 623T397 656ZM362 910H476L387 785H309Z" horiz-adv-x="700" unicode="Ŕ"/>
			<glyph d="M318 544Q329 544 336 542T352 538V450H349Q339 453 331 454T311 455Q280 455 252 443T203 411T169 360T157 292V0H64V537H156V440H159Q184 487 224 515T318 544ZM230 770H344L255 625H177Z" horiz-adv-x="379" unicode="ŕ"/>
			<glyph d="M77 744H425Q475 744 516 729T586 688T632 623T648 539Q648 471 617 423T512 353V350Q543 341 564 326T598 289T617 238T627 168Q630 124 634 94T642 46T650 18T661 5V0H552Q546 5 542 15T535 44T530 92T525 167Q520 246 485 278T377 310H179V0H77ZM179 656V392H392Q468 392 505 427T543 524Q543 590 509 623T397 656ZM301 -51H409V-141Q409 -192 380 -217T300 -245V-201Q355 -194 355 -149V-147H301Z" horiz-adv-x="700" unicode="Ŗ"/>
			<glyph d="M318 544Q329 544 336 542T352 538V450H349Q339 453 331 454T311 455Q280 455 252 443T203 411T169 360T157 292V0H64V537H156V440H159Q184 487 224 515T318 544ZM58 -51H166V-141Q166 -192 137 -217T57 -245V-201Q112 -194 112 -149V-147H58Z" horiz-adv-x="379" unicode="ŗ"/>
			<glyph d="M77 744H425Q475 744 516 729T586 688T632 623T648 539Q648 471 617 423T512 353V350Q543 341 564 326T598 289T617 238T627 168Q630 124 634 94T642 46T650 18T661 5V0H552Q546 5 542 15T535 44T530 92T525 167Q520 246 485 278T377 310H179V0H77ZM179 656V392H392Q468 392 505 427T543 524Q543 590 509 623T397 656ZM201 898H297L351 837H353L409 898H503L402 785H299Z" horiz-adv-x="700" unicode="Ř"/>
			<glyph d="M318 544Q329 544 336 542T352 538V450H349Q339 453 331 454T311 455Q280 455 252 443T203 411T169 360T157 292V0H64V537H156V440H159Q184 487 224 515T318 544ZM73 749H167L219 673H221L275 749H367L270 625H167Z" horiz-adv-x="379" unicode="ř"/>
			<glyph d="M320 758Q389 758 439 741T523 696T577 627T603 539H504Q494 607 447 642T321 678Q247 678 203 649T159 564Q159 534 173 513T213 479T274 455T352 437Q406 426 455 412T543 372T604 307T627 205Q627 152 606 111T549 42T461 0T350 -15Q272 -15 213 5T115 59T55 141T31 241H132Q141 156 196 111T353 67Q390 67 421 75T475 100T511 142T524 201Q524 237 508 261T464 301T396 328T308 350Q258 360 213 374T135 411T81 470T62 559Q62 606 81 643T134 705T215 744T320 758ZM340 910H454L365 785H287Z" horiz-adv-x="672" unicode="Ś"/>
			<glyph d="M250 549Q351 549 403 506T464 393H371Q365 435 335 457T248 479Q193 479 168 457T144 404Q144 383 153 369T181 347T226 332T287 319Q327 311 363 301T426 273T470 225T486 149Q486 108 470 77T425 25T357 -5T270 -16Q158 -16 97 32T30 163H124Q128 134 141 114T173 82T218 64T272 59Q336 59 364 83T393 144Q393 188 358 205T253 237Q214 245 177 255T113 282T69 327T53 399Q53 468 104 508T250 549ZM267 770H381L292 625H214Z" horiz-adv-x="522" unicode="ś"/>
			<glyph d="M320 758Q389 758 439 741T523 696T577 627T603 539H504Q494 607 447 642T321 678Q247 678 203 649T159 564Q159 534 173 513T213 479T274 455T352 437Q406 426 455 412T543 372T604 307T627 205Q627 152 606 111T549 42T461 0T350 -15Q272 -15 213 5T115 59T55 141T31 241H132Q141 156 196 111T353 67Q390 67 421 75T475 100T511 142T524 201Q524 237 508 261T464 301T396 328T308 350Q258 360 213 374T135 411T81 470T62 559Q62 606 81 643T134 705T215 744T320 758ZM274 898H377L475 785H379L325 846H323L267 785H173Z" horiz-adv-x="672" unicode="Ŝ"/>
			<glyph d="M250 549Q351 549 403 506T464 393H371Q365 435 335 457T248 479Q193 479 168 457T144 404Q144 383 153 369T181 347T226 332T287 319Q327 311 363 301T426 273T470 225T486 149Q486 108 470 77T425 25T357 -5T270 -16Q158 -16 97 32T30 163H124Q128 134 141 114T173 82T218 64T272 59Q336 59 364 83T393 144Q393 188 358 205T253 237Q214 245 177 255T113 282T69 327T53 399Q53 468 104 508T250 549ZM209 752H312L406 629H312L260 704H258L204 629H112Z" horiz-adv-x="522" unicode="ŝ"/>
			<glyph d="M320 758Q389 758 439 741T523 696T577 627T603 539H504Q494 607 447 642T321 678Q247 678 203 649T159 564Q159 534 173 513T213 479T274 455T352 437Q406 426 455 412T543 372T604 307T627 205Q627 153 607 112T552 44T467 1T360 -15L313 -56V-58Q328 -56 346 -58T379 -67T405 -89T416 -127Q416 -167 384 -187T303 -208Q265 -208 238 -199T192 -177L208 -146Q243 -162 283 -162Q309 -162 327 -154T346 -127Q346 -109 334 -101T304 -94Q290 -94 280 -96T261 -101L245 -76L305 -13Q238 -7 188 14T104 70T52 147T31 241H132Q141 156 196 111T353 67Q390 67 421 75T475 100T511 142T524 201Q524 237 508 261T464 301T396 328T308 350Q258 360 213 374T135 411T81 470T62 559Q62 606 81 643T134 705T215 744T320 758Z" horiz-adv-x="672" unicode="Ş"/>
			<glyph d="M250 549Q351 549 403 506T464 393H371Q365 435 335 457T248 479Q193 479 168 457T144 404Q144 383 153 369T181 347T226 332T287 319Q327 311 363 301T426 273T470 225T486 149Q486 110 471 80T429 29T366 -2T285 -15L239 -56V-58Q254 -56 272 -58T305 -67T331 -89T342 -127Q342 -167 310 -187T229 -208Q191 -208 164 -199T118 -177L134 -146Q169 -162 209 -162Q235 -162 253 -154T272 -127Q272 -109 260 -101T230 -94Q216 -94 206 -96T187 -101L171 -76L230 -14Q137 -6 86 41T30 163H124Q128 134 141 114T173 82T218 64T272 59Q336 59 364 83T393 144Q393 188 358 205T253 237Q214 245 177 255T113 282T69 327T53 399Q53 468 104 508T250 549Z" horiz-adv-x="522" unicode="ş"/>
			<glyph d="M320 758Q389 758 439 741T523 696T577 627T603 539H504Q494 607 447 642T321 678Q247 678 203 649T159 564Q159 534 173 513T213 479T274 455T352 437Q406 426 455 412T543 372T604 307T627 205Q627 152 606 111T549 42T461 0T350 -15Q272 -15 213 5T115 59T55 141T31 241H132Q141 156 196 111T353 67Q390 67 421 75T475 100T511 142T524 201Q524 237 508 261T464 301T396 328T308 350Q258 360 213 374T135 411T81 470T62 559Q62 606 81 643T134 705T215 744T320 758ZM170 898H266L320 837H322L378 898H472L371 785H268Z" horiz-adv-x="672" unicode="Š"/>
			<glyph d="M250 549Q351 549 403 506T464 393H371Q365 435 335 457T248 479Q193 479 168 457T144 404Q144 383 153 369T181 347T226 332T287 319Q327 311 363 301T426 273T470 225T486 149Q486 108 470 77T425 25T357 -5T270 -16Q158 -16 97 32T30 163H124Q128 134 141 114T173 82T218 64T272 59Q336 59 364 83T393 144Q393 188 358 205T253 237Q214 245 177 255T113 282T69 327T53 399Q53 468 104 508T250 549ZM108 749H202L254 673H256L310 749H402L305 625H202Z" horiz-adv-x="522" unicode="š"/>
			<glyph d="M31 744H623V654H378V0H275V654H31ZM274 -51H382V-141Q382 -192 353 -217T273 -245V-201Q328 -194 328 -149V-147H274Z" horiz-adv-x="654" unicode="Ţ"/>
			<glyph d="M115 706H207V537H318V465H207V126Q207 97 221 86T262 76Q274 76 287 78T309 83H312V5Q274 -4 237 -4Q183 -3 149 21T115 105V465H31V537H115ZM149 -51H257V-141Q257 -192 228 -217T148 -245V-201Q203 -194 203 -149V-147H149Z" horiz-adv-x="351" unicode="ţ"/>
			<glyph d="M31 744H623V654H378V0H275V654H31ZM176 898H272L326 837H328L384 898H478L377 785H274Z" horiz-adv-x="654" unicode="Ť"/>
			<glyph d="M115 706H207V537H318V465H207V126Q207 97 221 86T262 76Q274 76 287 78T309 83H312V5Q274 -4 237 -4Q183 -3 149 21T115 105V465H31V537H115ZM275 744H375V668Q375 618 347 593T273 567V611Q299 615 310 627T321 662H275Z" horiz-adv-x="351" unicode="ť"/>
			<glyph d="M31 744H623V654H378V433H545V353H378V0H275V353H109V433H275V654H31Z" horiz-adv-x="654" unicode="Ŧ"/>
			<glyph d="M115 706H207V537H318V465H207V362H318V294H207V126Q207 97 221 86T262 76Q274 76 287 78T309 83H312V5Q274 -4 237 -4Q183 -3 149 21T115 105V294H31V362H115V465H31V537H115Z" horiz-adv-x="351" unicode="ŧ"/>
			<glyph d="M65 744H167V251Q167 159 215 117T354 76Q441 76 489 117T537 251V744H639V242Q639 175 617 127T556 48T465 3T352 -11Q289 -11 236 3T146 48T86 127T65 242ZM287 894Q308 894 324 888T355 874T383 861T410 855Q425 855 430 866T438 892H502Q500 842 480 814T419 786Q399 786 381 792T348 805T319 819T296 825Q284 825 276 813T267 787H203Q205 839 227 866T287 894Z" horiz-adv-x="704" unicode="Ũ"/>
			<glyph d="M61 537H154V172Q154 121 184 92T271 64Q302 64 327 75T369 105T396 152T406 210V537H499V0H407V75H405Q376 35 338 11T243 -12Q159 -12 110 35T61 167ZM215 739Q236 739 252 733T283 719T311 706T338 700Q353 700 358 711T366 737H430Q428 687 408 659T347 631Q327 631 309 637T276 650T247 664T224 670Q212 670 204 658T195 632H131Q133 684 155 711T215 739Z" horiz-adv-x="564" unicode="ũ"/>
			<glyph d="M65 744H167V251Q167 159 215 117T354 76Q441 76 489 117T537 251V744H639V242Q639 175 617 127T556 48T465 3T352 -11Q289 -11 236 3T146 48T86 127T65 242ZM210 870H495V795H210Z" horiz-adv-x="704" unicode="Ū"/>
			<glyph d="M61 537H154V172Q154 121 184 92T271 64Q302 64 327 75T369 105T396 152T406 210V537H499V0H407V75H405Q376 35 338 11T243 -12Q159 -12 110 35T61 167ZM144 734H417V659H144Z" horiz-adv-x="564" unicode="ū"/>
			<glyph d="M65 744H167V251Q167 159 215 117T354 76Q441 76 489 117T537 251V744H639V242Q639 175 617 127T556 48T465 3T352 -11Q289 -11 236 3T146 48T86 127T65 242ZM216 908H282Q287 880 303 864T351 849Q382 849 400 864T423 908H488Q487 881 477 857T449 817T406 790T352 780Q297 780 258 814T216 908Z" horiz-adv-x="704" unicode="Ŭ"/>
			<glyph d="M61 537H154V172Q154 121 184 92T271 64Q302 64 327 75T369 105T396 152T406 210V537H499V0H407V75H405Q376 35 338 11T243 -12Q159 -12 110 35T61 167ZM144 748H210Q215 720 231 704T279 689Q310 689 328 704T351 748H416Q415 721 405 697T377 657T334 630T280 620Q225 620 186 654T144 748Z" horiz-adv-x="564" unicode="ŭ"/>
			<glyph d="M65 744H167V251Q167 159 215 117T354 76Q441 76 489 117T537 251V744H639V242Q639 175 617 127T556 48T465 3T352 -11Q289 -11 236 3T146 48T86 127T65 242ZM353 938Q374 938 392 930T425 909T447 878T455 839Q455 818 447 799T425 767T392 746T353 738Q332 738 313 746T280 767T258 799T250 839Q250 860 258 878T280 909T313 930T353 938ZM353 897Q328 897 312 880T297 839Q297 813 312 796T353 780Q377 780 392 796T408 839Q408 864 392 880T353 897Z" horiz-adv-x="704" unicode="Ů"/>
			<glyph d="M61 537H154V172Q154 121 184 92T271 64Q302 64 327 75T369 105T396 152T406 210V537H499V0H407V75H405Q376 35 338 11T243 -12Q159 -12 110 35T61 167ZM281 799Q302 799 320 791T353 770T375 739T383 700Q383 679 375 660T353 628T320 607T281 599Q260 599 241 607T208 628T186 660T178 700Q178 721 186 739T208 770T241 791T281 799ZM281 758Q256 758 240 741T225 700Q225 674 240 657T281 641Q305 641 320 657T336 700Q336 725 320 741T281 758Z" horiz-adv-x="564" unicode="ů"/>
			<glyph d="M65 744H167V251Q167 159 215 117T354 76Q441 76 489 117T537 251V744H639V242Q639 175 617 127T556 48T465 3T352 -11Q289 -11 236 3T146 48T86 127T65 242ZM417 910H514L455 785H386ZM270 910H369L311 785H240Z" horiz-adv-x="704" unicode="Ű"/>
			<glyph d="M61 537H154V172Q154 121 184 92T271 64Q302 64 327 75T369 105T396 152T406 210V537H499V0H407V75H405Q376 35 338 11T243 -12Q159 -12 110 35T61 167ZM211 770H305L245 625H177ZM353 770H446L387 625H320Z" horiz-adv-x="564" unicode="ű"/>
			<glyph d="M65 744H167V251Q167 159 215 117T354 76Q441 76 489 117T537 251V744H639V242Q639 147 597 91T486 10Q465 2 445 -7T409 -29T383 -57T374 -89Q374 -124 417 -124Q428 -124 439 -122T458 -117H461V-182Q451 -185 436 -188T400 -191Q343 -191 315 -166T288 -103Q288 -71 307 -48T349 -11Q287 -11 234 3T144 49T86 127T65 242Z" horiz-adv-x="704" unicode="Ų"/>
			<glyph d="M61 537H154V172Q154 121 184 92T271 64Q302 64 327 75T369 105T396 152T406 210V537H499V0Q468 -17 447 -41T426 -89Q426 -124 469 -124Q480 -124 491 -122T510 -117H513V-182Q503 -185 488 -188T452 -191Q395 -191 367 -166T340 -103Q340 -84 347 -68T366 -40T392 -17T420 0H407V75H405Q376 35 338 11T243 -12Q159 -12 110 35T61 167Z" horiz-adv-x="564" unicode="ų"/>
			<glyph d="M18 744H125L232 306Q239 278 245 244T256 180Q261 145 267 109H269Q275 146 281 181Q286 211 293 245T308 307L428 744H536L652 307Q659 279 666 245T679 181Q685 146 691 109H693Q699 145 705 180Q710 210 716 244T730 306L841 744H946L739 0H640L518 476Q511 501 505 533T494 594Q488 627 483 662H481Q475 627 469 594Q464 565 457 533T445 477L314 0H212ZM432 898H535L633 785H537L483 846H481L425 785H331Z" horiz-adv-x="965" unicode="Ŵ"/>
			<glyph d="M10 537H109L193 239Q199 216 205 189T217 138Q223 110 228 82H230Q235 108 241 135Q246 158 252 185T266 237L347 537H435L515 237Q520 215 526 188T538 138Q544 110 549 81H551Q556 108 561 135Q566 158 572 186T586 239L675 537H771L596 0H503L424 296Q419 316 413 341T402 390Q396 417 390 446H388Q382 417 376 390Q371 367 365 341T355 296L274 0H180ZM340 752H443L537 629H443L391 704H389L335 629H243Z" horiz-adv-x="781" unicode="ŵ"/>
			<glyph d="M18 744H132L266 520Q277 500 290 476T314 431L339 381H341Q353 406 366 431Q377 452 390 476T415 520L550 744H659L388 307V0H286V312ZM291 898H394L492 785H396L342 846H340L284 785H190Z" horiz-adv-x="678" unicode="Ŷ"/>
			<glyph d="M5 537H106L217 239Q225 216 233 191T248 144Q255 118 262 94H264Q271 118 279 144Q286 166 294 191T310 239L417 537H514L286 -49Q269 -91 252 -118T217 -160T177 -181T130 -187Q107 -187 84 -184T51 -176V-96H55Q63 -101 78 -103T111 -106Q139 -106 158 -92T191 -41Q191 -40 194 -30T201 -9T208 14T210 27ZM212 752H315L409 629H315L263 704H261L207 629H115Z" horiz-adv-x="519" unicode="ŷ"/>
			<glyph d="M18 744H132L266 520Q277 500 290 476T314 431L339 381H341Q353 406 366 431Q377 452 390 476T415 520L550 744H659L388 307V0H286V312ZM193 893H287V785H193ZM395 893H489V785H395Z" horiz-adv-x="678" unicode="Ÿ"/>
			<glyph d="M66 744H605V664L247 201Q233 184 216 165T184 129Q166 110 149 90V87Q173 88 198 89Q219 90 243 90T288 91H622V0H39V95L402 558Q414 573 429 590T458 623Q474 641 491 658V661Q468 660 444 659Q424 658 400 657T358 657H66ZM341 910H455L366 785H288Z" horiz-adv-x="668" unicode="Ź"/>
			<glyph d="M62 537H465V479L221 160Q212 149 200 135T178 110Q166 96 153 82V79Q173 79 192 80Q209 81 227 81T260 82H477V0H44V72L284 385Q292 396 303 408T324 432Q335 445 348 458V461Q329 460 311 459Q295 458 278 458Q261 458 247 458H62ZM277 770H391L302 625H224Z" horiz-adv-x="512" unicode="ź"/>
			<glyph d="M66 744H605V664L247 201Q233 184 216 165T184 129Q166 110 149 90V87Q173 88 198 89Q219 90 243 90T288 91H622V0H39V95L402 558Q414 573 429 590T458 623Q474 641 491 658V661Q468 660 444 659Q424 658 400 657T358 657H66ZM283 893H380V785H283Z" horiz-adv-x="668" unicode="Ż"/>
			<glyph d="M62 537H465V479L221 160Q212 149 200 135T178 110Q166 96 153 82V79Q173 79 192 80Q209 81 227 81T260 82H477V0H44V72L284 385Q292 396 303 408T324 432Q335 445 348 458V461Q329 460 311 459Q295 458 278 458Q261 458 247 458H62ZM219 744H316V636H219Z" horiz-adv-x="512" unicode="ż"/>
			<glyph d="M66 744H605V664L247 201Q233 184 216 165T184 129Q166 110 149 90V87Q173 88 198 89Q219 90 243 90T288 91H622V0H39V95L402 558Q414 573 429 590T458 623Q474 641 491 658V661Q468 660 444 659Q424 658 400 657T358 657H66ZM180 898H276L330 837H332L388 898H482L381 785H278Z" horiz-adv-x="668" unicode="Ž"/>
			<glyph d="M62 537H465V479L221 160Q212 149 200 135T178 110Q166 96 153 82V79Q173 79 192 80Q209 81 227 81T260 82H477V0H44V72L284 385Q292 396 303 408T324 432Q335 445 348 458V461Q329 460 311 459Q295 458 278 458Q261 458 247 458H62ZM120 749H214L266 673H268L322 749H414L317 625H214Z" horiz-adv-x="512" unicode="ž"/>
			<glyph d="M375 724V648Q314 653 287 640T255 584L232 423H350V353H222L168 -32Q159 -95 128 -126Q105 -149 69 -155T-15 -155V-81Q22 -84 45 -74T74 -25L129 353H33V423H139L164 596Q172 654 201 685Q228 714 271 723T375 724Z" horiz-adv-x="396" unicode="ƒ"/>
			<glyph d="M293 744H949V654H566V429H908V344H566V94H961V0H463V217H203L127 0H24ZM358 654L232 299H463V654ZM608 910H722L633 785H555Z" horiz-adv-x="1010" unicode="Ǽ"/>
			<glyph d="M287 550Q352 550 398 529T465 459Q494 501 538 525T642 550Q702 550 746 528T821 467Q853 426 868 369T883 246H492Q494 207 505 173T535 114T584 75T654 61Q705 61 739 86T784 153H875Q867 114 848 83T800 30T734 -3T654 -15Q577 -15 526 17T448 103H446Q405 39 352 13T236 -12Q149 -12 95 26T42 142Q42 189 58 219T105 267T178 295T273 311Q303 314 327 319T368 332T394 354T403 388Q403 432 373 457T288 482Q224 482 192 454T159 378H69Q70 412 84 443T125 498T192 536T287 550ZM404 286Q384 273 351 263T286 248T226 235T180 217T150 188T140 143Q140 117 149 100T173 74T207 60T247 57Q287 57 316 70T365 104T394 150T404 198ZM642 478Q608 478 582 465T537 431T508 379T493 313H785Q783 391 744 434T642 478ZM482 770H596L507 625H429Z" horiz-adv-x="918" unicode="ǽ"/>
			<glyph d="M747 769L789 732L695 631Q735 580 756 514T778 372Q778 289 752 218T679 95T564 13T413 -16Q338 -16 277 6T171 70L70 -38L28 1L132 112Q91 163 70 229T49 372Q49 456 74 527T146 649T261 730T413 760Q488 760 549 737T656 672ZM413 672Q350 672 301 649T220 586T170 491T153 372Q153 318 165 270T200 185L591 602Q559 635 514 653T413 672ZM626 557L237 140Q269 109 312 91T413 74Q476 74 524 96T606 159T655 253T672 372Q672 426 660 472T626 557ZM418 910H532L443 785H365Z" horiz-adv-x="826" unicode="Ǿ"/>
			<glyph d="M538 563L574 531L501 452Q529 415 544 368T559 268Q559 209 541 157T489 67T407 7T298 -15Q245 -15 202 1T126 47L55 -29L19 3L93 83Q64 120 49 167T35 268Q35 326 53 377T106 467T188 528T298 550Q350 550 393 533T468 488ZM297 476Q256 476 224 460T172 415T140 349T129 268Q129 198 154 149L412 428Q392 451 363 463T297 476ZM440 386L182 108Q203 86 231 73T297 61Q338 61 369 77T422 121T454 186T465 268Q465 334 440 386ZM306 770H420L331 625H253Z" horiz-adv-x="594" unicode="ǿ"/>
			<glyph d="M320 758Q389 758 439 741T523 696T577 627T603 539H504Q494 607 447 642T321 678Q247 678 203 649T159 564Q159 534 173 513T213 479T274 455T352 437Q406 426 455 412T543 372T604 307T627 205Q627 152 606 111T549 42T461 0T350 -15Q272 -15 213 5T115 59T55 141T31 241H132Q141 156 196 111T353 67Q390 67 421 75T475 100T511 142T524 201Q524 237 508 261T464 301T396 328T308 350Q258 360 213 374T135 411T81 470T62 559Q62 606 81 643T134 705T215 744T320 758ZM280 -51H388V-141Q388 -192 359 -217T279 -245V-201Q334 -194 334 -149V-147H280Z" horiz-adv-x="672" unicode="Ș"/>
			<glyph d="M250 549Q351 549 403 506T464 393H371Q365 435 335 457T248 479Q193 479 168 457T144 404Q144 383 153 369T181 347T226 332T287 319Q327 311 363 301T426 273T470 225T486 149Q486 108 470 77T425 25T357 -5T270 -16Q158 -16 97 32T30 163H124Q128 134 141 114T173 82T218 64T272 59Q336 59 364 83T393 144Q393 188 358 205T253 237Q214 245 177 255T113 282T69 327T53 399Q53 468 104 508T250 549ZM206 -51H314V-141Q314 -192 285 -217T205 -245V-201Q260 -194 260 -149V-147H206Z" horiz-adv-x="522" unicode="ș"/>
			<glyph d="M31 744H623V654H378V0H275V654H31ZM274 -51H382V-141Q382 -192 353 -217T273 -245V-201Q328 -194 328 -149V-147H274Z" horiz-adv-x="654" unicode="Ț"/>
			<glyph d="M115 706H207V537H318V465H207V126Q207 97 221 86T262 76Q274 76 287 78T309 83H312V5Q274 -4 237 -4Q183 -3 149 21T115 105V465H31V537H115ZM149 -51H257V-141Q257 -192 228 -217T148 -245V-201Q203 -194 203 -149V-147H149Z" horiz-adv-x="351" unicode="ț"/>
			<glyph d="M64 537H157V-46Q157 -85 147 -108T121 -146Q103 -160 80 -165T30 -170Q15 -170 2 -168T-22 -165V-91H-19Q-4 -94 10 -94Q37 -93 50 -81T64 -41Z" horiz-adv-x="222" unicode="ȷ"/>
			<glyph d="M200 752H303L397 629H303L251 704H249L195 629H103Z" unicode="ˆ"/>
			<glyph d="M103 749H197L249 673H251L305 749H397L300 625H197Z" unicode="ˇ"/>
			<glyph d="M114 734H387V659H114Z" unicode="ˉ"/>
			<glyph d="M133 748H199Q204 720 220 704T268 689Q299 689 317 704T340 748H405Q404 721 394 697T366 657T323 630T269 620Q214 620 175 654T133 748Z" unicode="˘"/>
			<glyph d="M202 744H299V636H202Z" unicode="˙"/>
			<glyph d="M250 799Q271 799 289 791T322 770T344 739T352 700Q352 679 344 660T322 628T289 607T250 599Q229 599 210 607T177 628T155 660T147 700Q147 721 155 739T177 770T210 791T250 799ZM250 758Q225 758 209 741T194 700Q194 674 209 657T250 641Q274 641 289 657T305 700Q305 725 289 741T250 758Z" unicode="˚"/>
			<glyph d="M208 0H277Q251 -21 232 -44T214 -89Q214 -124 257 -124Q268 -124 279 -122T298 -117H301V-182Q291 -185 276 -188T240 -191Q183 -191 155 -166T128 -103Q128 -84 135 -68T154 -40T180 -17T208 0Z" unicode="˛"/>
			<glyph d="M183 739Q204 739 220 733T251 719T279 706T306 700Q321 700 326 711T334 737H398Q396 687 376 659T315 631Q295 631 277 637T244 650T215 664T192 670Q180 670 172 658T163 632H99Q101 684 123 711T183 739Z" unicode="˜"/>
			<glyph d="M304 770H397L338 625H271ZM162 770H256L196 625H128Z" unicode="˝"/>
			<glyph d="M293 744H414L680 88V0H29V89ZM351 667Q345 646 337 622Q330 602 321 574T300 517L127 83H575L403 517Q391 547 381 574T366 622Q358 646 353 667Z" horiz-adv-x="709" unicode="Δ"/>
			<glyph d="M385 761Q461 761 524 734T632 657T703 539T728 387Q728 280 691 205T584 87V85H722V0H428L427 81Q479 89 516 117T578 187T613 281T625 390Q625 453 608 505T560 594T484 651T385 672Q329 672 285 651T209 594T161 505T145 390Q145 334 156 281T192 187T253 117T343 81L342 0H47V85H185V87Q115 130 78 205T42 387Q42 471 67 539T137 657T246 734T385 761Z" horiz-adv-x="770" unicode="Ω"/>
			<glyph d="M65 537H158V172Q158 121 188 92T275 64Q306 64 331 75T373 105T400 152T410 210V537H503V0H411V75H409Q380 35 343 11T256 -12Q221 -12 198 -4T158 22H155Q155 11 156 -4Q157 -17 157 -35T158 -77V-182H65Z" horiz-adv-x="568" unicode="μ"/>
			<glyph d="M30 537H637V465H534V126Q534 97 546 86T583 76Q596 76 607 78T625 83H629V4Q617 1 597 -1T559 -4Q535 -4 513 1T476 20T451 54T442 105V465H214V0H122V465H30Z" horiz-adv-x="672" unicode="π"/>
			<glyph d="M18 744H125L232 306Q239 278 245 244T256 180Q261 145 267 109H269Q275 146 281 181Q286 211 293 245T308 307L428 744H536L652 307Q659 279 666 245T679 181Q685 146 691 109H693Q699 145 705 180Q710 210 716 244T730 306L841 744H946L739 0H640L518 476Q511 501 505 533T494 594Q488 627 483 662H481Q475 627 469 594Q464 565 457 533T445 477L314 0H212ZM355 910H469L522 785H444Z" horiz-adv-x="965" unicode="Ẁ"/>
			<glyph d="M10 537H109L193 239Q199 216 205 189T217 138Q223 110 228 82H230Q235 108 241 135Q246 158 252 185T266 237L347 537H435L515 237Q520 215 526 188T538 138Q544 110 549 81H551Q556 108 561 135Q566 158 572 186T586 239L675 537H771L596 0H503L424 296Q419 316 413 341T402 390Q396 417 390 446H388Q382 417 376 390Q371 367 365 341T355 296L274 0H180ZM267 770H381L434 625H356Z" horiz-adv-x="781" unicode="ẁ"/>
			<glyph d="M18 744H125L232 306Q239 278 245 244T256 180Q261 145 267 109H269Q275 146 281 181Q286 211 293 245T308 307L428 744H536L652 307Q659 279 666 245T679 181Q685 146 691 109H693Q699 145 705 180Q710 210 716 244T730 306L841 744H946L739 0H640L518 476Q511 501 505 533T494 594Q488 627 483 662H481Q475 627 469 594Q464 565 457 533T445 477L314 0H212ZM492 910H606L517 785H439Z" horiz-adv-x="965" unicode="Ẃ"/>
			<glyph d="M10 537H109L193 239Q199 216 205 189T217 138Q223 110 228 82H230Q235 108 241 135Q246 158 252 185T266 237L347 537H435L515 237Q520 215 526 188T538 138Q544 110 549 81H551Q556 108 561 135Q566 158 572 186T586 239L675 537H771L596 0H503L424 296Q419 316 413 341T402 390Q396 417 390 446H388Q382 417 376 390Q371 367 365 341T355 296L274 0H180ZM400 770H514L425 625H347Z" horiz-adv-x="781" unicode="ẃ"/>
			<glyph d="M18 744H125L232 306Q239 278 245 244T256 180Q261 145 267 109H269Q275 146 281 181Q286 211 293 245T308 307L428 744H536L652 307Q659 279 666 245T679 181Q685 146 691 109H693Q699 145 705 180Q710 210 716 244T730 306L841 744H946L739 0H640L518 476Q511 501 505 533T494 594Q488 627 483 662H481Q475 627 469 594Q464 565 457 533T445 477L314 0H212ZM536 893H630V785H536ZM334 893H428V785H334Z" horiz-adv-x="965" unicode="Ẅ"/>
			<glyph d="M10 537H109L193 239Q199 216 205 189T217 138Q223 110 228 82H230Q235 108 241 135Q246 158 252 185T266 237L347 537H435L515 237Q520 215 526 188T538 138Q544 110 549 81H551Q556 108 561 135Q566 158 572 186T586 239L675 537H771L596 0H503L424 296Q419 316 413 341T402 390Q396 417 390 446H388Q382 417 376 390Q371 367 365 341T355 296L274 0H180ZM443 744H535V636H443ZM245 744H337V636H245Z" horiz-adv-x="781" unicode="ẅ"/>
			<glyph d="M18 744H132L266 520Q277 500 290 476T314 431L339 381H341Q353 406 366 431Q377 452 390 476T415 520L550 744H659L388 307V0H286V312ZM214 910H328L381 785H303Z" horiz-adv-x="678" unicode="Ỳ"/>
			<glyph d="M5 537H106L217 239Q225 216 233 191T248 144Q255 118 262 94H264Q271 118 279 144Q286 166 294 191T310 239L417 537H514L286 -49Q269 -91 252 -118T217 -160T177 -181T130 -187Q107 -187 84 -184T51 -176V-96H55Q63 -101 78 -103T111 -106Q139 -106 158 -92T191 -41Q191 -40 194 -30T201 -9T208 14T210 27ZM139 770H253L306 625H228Z" horiz-adv-x="519" unicode="ỳ"/>
			<glyph d="" horiz-adv-x="110" unicode=" "/>
			<glyph d="M0 305H500V225H0Z" unicode="–"/>
			<glyph d="M200 305H800V225H200Z" horiz-adv-x="1000" unicode="—"/>
			<glyph d="M153 747V698Q134 692 120 674T106 617V606H152V499H52V614Q52 679 82 710T153 747Z" horiz-adv-x="203" unicode="‘"/>
			<glyph d="M52 744H152V630Q152 597 143 573T121 532T88 507T50 496V545Q69 551 83 569T97 626V638H52Z" horiz-adv-x="203" unicode="’"/>
			<glyph d="M52 106H152V-8Q152 -41 143 -65T121 -105T88 -130T50 -141V-93Q69 -87 83 -69T97 -12V0H52Z" horiz-adv-x="203" unicode="‚"/>
			<glyph d="M322 747V698Q304 692 289 674T275 617V606H321V499H221V614Q221 679 251 710T322 747ZM153 747V698Q134 692 120 674T106 617V606H152V499H52V614Q52 679 82 710T153 747Z" horiz-adv-x="373" unicode="“"/>
			<glyph d="M52 744H152V630Q152 597 143 573T121 532T88 507T50 496V545Q69 551 83 569T97 626V638H52ZM221 744H321V630Q321 564 291 532T220 496V545Q239 551 253 569T267 626V638H221Z" horiz-adv-x="373" unicode="”"/>
			<glyph d="M52 106H152V-8Q152 -41 143 -65T121 -105T88 -130T50 -141V-93Q69 -87 83 -69T97 -12V0H52ZM221 106H321V-8Q321 -41 313 -65T291 -105T258 -130T220 -141V-93Q239 -87 253 -69T267 -12V0H221Z" horiz-adv-x="373" unicode="„"/>
			<glyph d="M248 744H343V548H546V466H343V-112H248V466H44V548H248Z" horiz-adv-x="591" unicode="†"/>
			<glyph d="M248 744H343V548H546V466H343V165H546V82H343V-112H248V82H44V165H248V466H44V548H248Z" horiz-adv-x="591" unicode="‡"/>
			<glyph d="M172 465Q198 465 221 455T261 427T288 386T298 337Q298 311 288 288T261 248T221 221T172 211Q145 211 122 221T81 248T54 288T44 337Q44 363 54 386T81 427T122 455T172 465Z" horiz-adv-x="342" unicode="•"/>
			<glyph d="M54 110H162V0H54ZM300 110H409V0H300ZM546 110H655V0H546Z" horiz-adv-x="708" unicode="…"/>
			<glyph d="M609 712H682L276 0H203ZM207 729Q244 729 275 715T328 674T364 609T377 523Q377 476 364 437T329 372T276 330T207 316Q169 316 138 330T84 372T49 437T37 523Q37 570 50 608T86 673T140 714T207 729ZM678 397Q715 397 746 383T799 342T834 277T847 191Q847 144 835 106T800 41T747 0T678 -15Q640 -15 609 0T555 41T520 106T508 191Q508 239 521 277T556 341T610 382T678 397ZM207 664Q165 664 143 624T121 523Q121 463 143 422T207 382Q252 382 273 421T295 523Q295 553 289 578T272 623T244 653T207 664ZM678 333Q635 333 613 293T592 191Q592 131 613 91T678 51Q722 51 743 90T765 191Q765 251 742 292T678 333ZM1080 397Q1117 397 1148 383T1201 342T1237 277T1250 191Q1250 144 1237 106T1202 41T1149 0T1080 -15Q1042 -15 1011 0T957 41T922 106T910 191Q910 239 923 277T959 341T1013 382T1080 397ZM1080 333Q1038 333 1016 293T994 191Q994 131 1016 91T1080 51Q1125 51 1146 90T1168 191Q1168 251 1145 292T1080 333Z" horiz-adv-x="1287" unicode="‰"/>
			<glyph d="M81 744H165L116 497H32Z" horiz-adv-x="197" unicode="′"/>
			<glyph d="M243 744H327L278 497H194ZM81 744H165L116 497H32Z" horiz-adv-x="359" unicode="″"/>
			<glyph d="M243 480V379L130 282V280L243 181V81L79 231V329Z" horiz-adv-x="322" unicode="‹"/>
			<glyph d="M79 480L243 329V231L79 81V181L192 279V281L79 380Z" horiz-adv-x="322" unicode="›"/>
			<glyph d="M371 744H457L-193 -130H-278Z" horiz-adv-x="206" unicode="⁄"/>
			<glyph d="M234 755Q276 755 312 738T375 691T416 616T431 517Q431 462 416 418T376 342T314 294T234 277Q190 277 154 294T92 342T51 418T37 517Q37 571 52 615T93 690T156 738T234 755ZM234 691Q177 691 148 643T119 517Q119 439 148 390T234 341Q293 341 321 389T349 517Q349 555 341 587T319 642T283 678T234 691Z" horiz-adv-x="467" unicode="⁰"/>
			<glyph d="M256 750H332V452H405V391H332V286H255V391H29V470ZM259 664L241 637Q233 626 223 613T206 590L139 510Q131 500 121 490T104 471Q94 460 84 450V448Q97 449 109 450Q120 451 132 451T155 452H255V580Q255 592 255 606T258 634Q260 649 262 664Z" horiz-adv-x="423" unicode="⁴"/>
			<glyph d="M85 744H348V677H138L115 556H118Q135 575 160 586T217 597Q248 597 276 586T327 554T361 503T374 437Q374 401 360 371T324 321T269 288T201 277Q126 277 77 314T22 411H102Q110 379 134 360T199 342Q241 342 267 368T293 437Q293 483 266 508T199 533Q169 533 147 522T111 495H38Z" horiz-adv-x="403" unicode="⁵"/>
			<glyph d="M224 755Q259 755 286 745T332 719T363 681T379 637H300Q295 657 278 674T226 692Q170 692 144 650T115 530H117Q137 562 166 578T236 594Q268 594 296 582T346 549T379 499T392 437Q392 402 379 373T344 322T291 288T226 276Q181 276 149 290T95 329Q64 361 50 407T37 516Q37 571 48 616T86 693Q110 723 143 739T224 755ZM222 531Q178 531 151 504T125 436Q125 393 153 366T222 340Q262 340 288 366T315 436Q315 478 288 504T222 531Z" horiz-adv-x="425" unicode="⁶"/>
			<glyph d="M22 744H355V679Q322 648 291 607T237 516T197 409T178 286H93Q96 348 112 405T155 512T213 604T281 676V679Q270 678 254 677Q240 676 219 675T170 675H22Z" horiz-adv-x="370" unicode="⁷"/>
			<glyph d="M214 755Q284 755 329 723T374 636Q374 567 303 541V539Q347 525 372 495T398 422Q398 384 383 357T342 312T284 285T216 277Q180 277 146 285T87 311T45 355T29 419Q29 465 55 494T124 538V540Q53 569 53 633Q53 662 65 684T99 723T150 747T214 755ZM214 695Q173 695 152 677T131 629Q131 599 152 580T214 562Q255 562 276 580T298 629Q298 659 276 677T214 695ZM214 506Q165 506 138 483T112 421Q112 382 138 360T214 339Q262 339 289 361T316 421Q316 460 290 483T214 506Z" horiz-adv-x="427" unicode="⁸"/>
			<glyph d="M207 755Q245 755 273 744T324 716Q361 686 376 637T391 516Q391 453 377 403T333 323Q310 301 280 288T210 276Q175 276 146 286T96 312T62 351T46 399H126Q131 376 150 358T208 340Q257 340 281 374Q309 410 314 498H312Q291 470 262 454T195 438Q162 438 133 450T82 483T48 532T35 595Q35 629 48 658T84 709T138 743T207 755ZM208 693Q166 693 139 666T113 597Q113 555 139 528T208 501Q253 501 279 527T305 596Q305 638 277 665T208 693Z" horiz-adv-x="425" unicode="⁹"/>
			<glyph d="M234 309Q276 309 312 292T375 245T416 170T431 71Q431 16 416 -28T376 -103T314 -152T234 -169Q190 -169 154 -152T92 -103T51 -28T37 71Q37 125 52 169T93 244T156 292T234 309ZM234 245Q177 245 148 197T119 71Q119 -7 148 -56T234 -105Q293 -105 321 -57T349 71Q349 109 341 141T319 196T283 232T234 245Z" horiz-adv-x="467" unicode="₀"/>
			<glyph d="M152 302H221V-160H141V163H30V216Q77 217 111 236T152 302Z" horiz-adv-x="283" unicode="₁"/>
			<glyph d="M205 308Q241 308 270 296T319 265T351 220T362 164Q362 131 351 107T323 64T283 31T237 2Q222 -7 204 -17T171 -40T143 -65T126 -94H361V-160H28Q29 -121 42 -91T74 -38T118 4T166 39Q188 54 208 66T245 93T270 124T280 163Q280 199 258 220T200 241Q160 241 138 215T115 146H38Q38 220 83 264T205 308Z" horiz-adv-x="394" unicode="₂"/>
			<glyph d="M202 309Q270 309 313 275T357 183Q357 145 335 122T276 88V86Q374 64 374 -29Q374 -64 360 -90T323 -133T269 -160T203 -169Q118 -169 69 -126T20 -11H95Q97 -54 122 -80T200 -106Q242 -106 267 -85T293 -23Q293 14 267 33T194 53H165V114H193Q235 114 257 131T280 181Q280 213 258 231T201 249Q157 249 134 224T110 162H34Q35 194 46 221T79 267T132 298T202 309Z" horiz-adv-x="403" unicode="₃"/>
			<glyph d="M256 304H332V6H405V-55H332V-160H255V-55H29V24ZM259 218L241 191Q233 180 223 167T206 144L139 64Q131 54 121 44T104 25Q94 14 84 4V2Q97 3 109 4Q120 5 132 5T155 6H255V134Q255 146 255 160T258 188Q260 203 262 218Z" horiz-adv-x="423" unicode="₄"/>
			<glyph d="M85 298H348V231H138L115 110H118Q135 129 160 140T217 151Q248 151 276 140T327 108T361 57T374 -9Q374 -45 360 -74T324 -125T269 -157T201 -169Q126 -169 77 -132T22 -35H102Q110 -67 134 -85T199 -104Q241 -104 267 -77T293 -9Q293 37 266 62T199 87Q169 87 147 76T111 49H38Z" horiz-adv-x="403" unicode="₅"/>
			<glyph d="M224 309Q259 309 286 299T332 273T363 235T379 191H300Q295 211 278 228T226 246Q170 246 144 204T115 84H117Q137 116 166 132T236 148Q268 148 296 136T346 103T379 53T392 -9Q392 -44 379 -73T344 -124T291 -158T226 -170Q181 -170 149 -155T95 -117Q64 -85 50 -39T37 70Q37 125 48 170T86 247Q110 277 143 293T224 309ZM222 85Q178 85 151 58T125 -10Q125 -53 153 -79T222 -106Q262 -106 288 -79T315 -10Q315 32 288 58T222 85Z" horiz-adv-x="425" unicode="₆"/>
			<glyph d="M22 298H355V233Q322 202 291 161T237 70T197 -37T178 -160H93Q96 -98 112 -41T155 66T213 158T281 230V233Q270 232 254 231Q240 230 219 229T170 229H22Z" horiz-adv-x="370" unicode="₇"/>
			<glyph d="M214 309Q284 309 329 277T374 190Q374 121 303 95V93Q347 79 372 49T398 -24Q398 -62 383 -89T342 -134T284 -160T216 -169Q180 -169 146 -160T87 -134T45 -90T29 -27Q29 19 55 48T124 92V94Q53 123 53 187Q53 216 65 238T99 277T150 301T214 309ZM214 249Q173 249 152 231T131 183Q131 153 152 134T214 116Q255 116 276 134T298 183Q298 213 276 231T214 249ZM214 60Q165 60 138 37T112 -25Q112 -64 138 -85T214 -107Q262 -107 289 -85T316 -25Q316 14 290 37T214 60Z" horiz-adv-x="427" unicode="₈"/>
			<glyph d="M207 309Q245 309 273 298T324 270Q361 240 376 191T391 70Q391 7 377 -42T333 -123Q310 -145 280 -157T210 -170Q175 -170 146 -160T96 -133T62 -94T46 -47H126Q131 -70 150 -88T208 -106Q257 -106 281 -72Q309 -36 314 52H312Q291 24 262 8T195 -8Q162 -8 133 4T82 37T48 86T35 149Q35 183 48 212T84 263T138 297T207 309ZM208 247Q166 247 139 220T113 151Q113 109 139 82T208 55Q253 55 279 81T305 150Q305 192 277 219T208 247Z" horiz-adv-x="425" unicode="₉"/>
			<glyph d="M374 729Q425 729 466 713T538 670T588 605T614 523H520Q508 581 471 614T373 647Q298 647 254 595T197 452H400V395H191Q190 385 190 375Q190 365 190 355Q190 344 190 334Q190 324 191 314H400V257H198Q214 163 261 115T381 67Q450 67 488 112T534 226H624Q622 176 604 132T555 55T480 4T382 -15Q328 -15 281 3T197 56T134 141T97 257H31V314H90Q89 324 89 334Q89 344 89 355Q89 365 89 375Q89 385 90 395H31V452H97Q108 515 132 566T193 653T274 709T374 729Z" horiz-adv-x="657" unicode="€"/>
			<glyph d="M226 752Q292 752 325 715T359 588Q359 517 345 462T307 367T250 295T178 242V150Q178 111 194 94T243 77Q272 77 291 84T327 99H330V20Q315 10 288 3T234 -3Q200 -3 172 5T125 30T95 76T85 145V200Q71 195 53 189T22 180V247Q36 252 53 258T85 270V612Q85 649 96 676T126 719T171 744T226 752ZM227 678Q204 678 191 663T178 611V314Q194 328 207 346T232 385Q252 420 265 470T278 588Q278 642 264 660T227 678Z" horiz-adv-x="397" unicode="ℓ"/>
			<glyph d="M422 744H526L576 580Q581 561 588 536T600 488Q606 461 613 433H615Q622 461 628 488Q633 511 639 536T652 580L702 744H808V362H740V502Q740 528 740 558T742 614Q743 645 744 676H741Q734 648 726 620Q719 595 711 566T694 508L648 362H579L534 508Q525 537 516 567T502 621Q494 649 488 676H485Q486 645 487 614Q488 588 488 558T489 502V362H422ZM39 744H352V681H233V362H159V681H39Z" horiz-adv-x="868" unicode="™"/>
			<glyph d="M385 761Q461 761 524 734T632 657T703 539T728 387Q728 280 691 205T584 87V85H722V0H428L427 81Q479 89 516 117T578 187T613 281T625 390Q625 453 608 505T560 594T484 651T385 672Q329 672 285 651T209 594T161 505T145 390Q145 334 156 281T192 187T253 117T343 81L342 0H47V85H185V87Q115 130 78 205T42 387Q42 471 67 539T137 657T246 734T385 761Z" horiz-adv-x="770" unicode="Ω"/>
			<glyph d="M354 627Q409 627 453 611T533 568Q589 521 610 454T631 301H187V98Q216 69 257 53T359 37Q450 37 500 76T575 186H627Q617 143 595 107T540 44T461 3T359 -11Q286 -11 229 12T133 78T73 179T53 309Q53 379 75 437T137 538T232 603T354 627ZM354 582Q299 582 256 565T187 520V345H500V533Q477 556 439 569T354 582Z" horiz-adv-x="685" unicode="℮"/>
			<glyph d="M155 748H224V286H144V609H33V662Q80 663 114 682T155 748ZM683 744H769L119 -130H34ZM700 359Q768 359 811 325T855 233Q855 195 833 172T774 138V136Q872 114 872 21Q872 -14 858 -40T821 -83T767 -110T701 -119Q616 -119 567 -76T518 39H593Q595 -4 620 -30T698 -56Q740 -56 765 -35T791 27Q791 64 765 83T692 103H663V164H691Q733 164 755 181T778 231Q778 263 756 281T699 299Q655 299 632 274T608 212H532Q533 244 544 271T577 317T630 348T700 359Z" horiz-adv-x="904" unicode="⅓"/>
			<glyph d="M208 754Q244 754 273 742T322 711T354 666T365 610Q365 577 354 553T326 510T286 477T240 448Q225 439 207 428T174 406T146 380T129 352H364V286H31Q32 325 45 354T77 408T121 450T169 485Q191 500 211 512T248 539T273 570T283 609Q283 645 261 666T203 687Q163 687 141 661T118 592H41Q41 666 86 710T208 754ZM775 744H861L211 -130H126ZM777 359Q845 359 888 325T932 233Q932 195 910 172T851 138V136Q949 114 949 21Q949 -14 935 -40T898 -83T844 -110T778 -119Q693 -119 644 -76T595 39H670Q672 -4 697 -30T775 -56Q817 -56 842 -35T868 27Q868 64 842 83T769 103H740V164H768Q810 164 832 181T855 231Q855 263 833 281T776 299Q732 299 709 274T685 212H609Q610 244 621 271T654 317T707 348T777 359Z" horiz-adv-x="981" unicode="⅔"/>
			<glyph d="M157 748H226V286H146V609H35V662Q82 663 116 682T157 748ZM682 744H768L118 -130H33ZM698 359Q768 359 813 327T858 240Q858 171 787 145V143Q831 129 856 99T882 26Q882 -12 867 -39T826 -84T768 -110T700 -119Q664 -119 630 -110T571 -84T529 -40T513 23Q513 69 539 98T608 142V144Q537 173 537 237Q537 266 549 288T583 327T634 351T698 359ZM698 299Q657 299 636 281T615 233Q615 203 636 184T698 166Q739 166 760 184T782 233Q782 263 760 281T698 299ZM698 110Q649 110 622 87T596 25Q596 -14 622 -35T698 -57Q746 -57 773 -35T800 25Q800 64 774 87T698 110Z" horiz-adv-x="914" unicode="⅛"/>
			<glyph d="M205 755Q273 755 316 721T360 629Q360 591 338 568T279 534V532Q377 510 377 417Q377 382 363 356T326 312T272 286T206 277Q121 277 72 320T23 435H98Q100 392 125 366T203 340Q245 340 270 360T296 423Q296 460 270 479T197 499H168V560H196Q238 560 260 577T283 627Q283 659 261 677T204 695Q160 695 137 670T113 608H37Q38 640 49 667T82 713T135 744T205 755ZM759 744H845L195 -130H110ZM757 359Q827 359 872 327T917 240Q917 171 846 145V143Q890 129 915 99T941 26Q941 -12 926 -39T885 -84T827 -110T759 -119Q723 -119 689 -110T630 -84T588 -40T572 23Q572 69 598 98T667 142V144Q596 173 596 237Q596 266 608 288T642 327T693 351T757 359ZM757 299Q716 299 695 281T674 233Q674 203 695 184T757 166Q798 166 819 184T841 233Q841 263 819 281T757 299ZM757 110Q708 110 681 87T655 25Q655 -14 681 -35T757 -57Q805 -57 832 -35T859 25Q859 64 833 87T757 110Z" horiz-adv-x="973" unicode="⅜"/>
			<glyph d="M88 744H351V677H141L118 556H121Q138 575 163 586T220 597Q251 597 279 586T330 554T364 503T377 437Q377 401 363 371T327 321T272 288T204 277Q129 277 80 314T25 411H105Q113 379 137 360T202 342Q244 342 270 368T296 437Q296 483 269 508T202 533Q172 533 150 522T114 495H41ZM748 744H834L184 -130H99ZM748 359Q818 359 863 327T908 240Q908 171 837 145V143Q881 129 906 99T932 26Q932 -12 917 -39T876 -84T818 -110T750 -119Q714 -119 680 -110T621 -84T579 -40T563 23Q563 69 589 98T658 142V144Q587 173 587 237Q587 266 599 288T633 327T684 351T748 359ZM748 299Q707 299 686 281T665 233Q665 203 686 184T748 166Q789 166 810 184T832 233Q832 263 810 281T748 299ZM748 110Q699 110 672 87T646 25Q646 -14 672 -35T748 -57Q796 -57 823 -35T850 25Q850 64 824 87T748 110Z" horiz-adv-x="964" unicode="⅝"/>
			<glyph d="M701 359Q771 359 816 327T861 240Q861 171 790 145V143Q834 129 859 99T885 26Q885 -12 870 -39T829 -84T771 -110T703 -119Q667 -119 633 -110T574 -84T532 -40T516 23Q516 69 542 98T611 142V144Q540 173 540 237Q540 266 552 288T586 327T637 351T701 359ZM674 744H760L110 -130H25ZM26 744H359V679Q326 648 295 607T241 516T201 409T182 286H97Q100 348 116 405T159 512T217 604T285 676V679Q274 678 258 677Q244 676 223 675T174 675H26ZM701 110Q652 110 625 87T599 25Q599 -14 625 -35T701 -57Q749 -57 776 -35T803 25Q803 64 777 87T701 110ZM701 299Q660 299 639 281T618 233Q618 203 639 184T701 166Q742 166 763 184T785 233Q785 263 763 281T701 299Z" horiz-adv-x="917" unicode="⅞"/>
			<glyph d="M170 751Q272 738 342 700T457 604T521 469T541 300Q541 242 525 185T477 84T394 12T275 -15Q222 -15 179 2T107 48T62 118T46 205Q46 262 64 312T117 399T198 457T301 478Q341 478 380 462T444 415Q435 473 413 516T358 590T278 640T170 670ZM306 402Q268 402 237 387T185 347T152 285T140 206Q140 143 174 102T277 62Q317 62 348 79T400 124T433 188T445 262Q445 324 410 363T306 402Z" horiz-adv-x="594" unicode="∂"/>
			<glyph d="M293 744H414L680 88V0H29V89ZM351 667Q345 646 337 622Q330 602 321 574T300 517L127 83H575L403 517Q391 547 381 574T366 622Q358 646 353 667Z" horiz-adv-x="709" unicode="∆"/>
			<glyph d="M82 744H667V-104H564V654H185V-104H82Z" horiz-adv-x="749" unicode="∏"/>
			<glyph d="M52 744H611V657H172V655L452 353V311L165 -12V-14H621V-104H52V-5L345 328V330L52 650Z" horiz-adv-x="670" unicode="∑"/>
			<glyph d="M63 376H538V303H63Z" horiz-adv-x="601" unicode="−"/>
			<glyph d="M371 744H457L-193 -130H-278Z" horiz-adv-x="206" unicode="∕"/>
			<glyph d="M63 381H171V271H63Z" horiz-adv-x="234" unicode="∙"/>
			<glyph d="M536 744H633L367 -104H251L116 239H28V326H181L252 140Q263 110 273 79T291 23Q300 -6 307 -33H309Q315 -6 322 23Q328 48 336 78T354 139Z" horiz-adv-x="643" unicode="√"/>
			<glyph d="M194 497Q225 497 251 487T299 461T340 423T375 376Q391 401 409 423T448 461T494 487T549 497Q585 497 614 484T664 447T696 390T708 317Q708 276 696 243T664 186T614 149T549 136Q519 136 494 145T448 171T409 210T375 258Q359 233 340 210T299 171T251 145T194 136Q155 136 125 151T75 190T46 248T36 317Q36 353 46 385T76 443T125 482T194 497ZM199 416Q158 416 140 387T122 317Q122 276 140 246T199 217Q218 217 235 225T267 248T295 279T319 316Q296 356 266 386T199 416ZM544 416Q508 416 480 386T430 316Q442 297 454 279T481 248T510 225T544 217Q585 217 603 246T622 317Q622 358 603 387T544 416Z" horiz-adv-x="744" unicode="∞"/>
			<glyph d="M271 749Q315 749 347 740V662H344Q336 665 321 668T286 671Q215 671 215 598V-44Q215 -83 203 -110T172 -154T125 -178T66 -186Q42 -186 23 -183T-10 -176V-98H-7Q1 -101 15 -104T51 -108Q122 -108 122 -35V606Q122 645 133 672T164 716T211 741T271 749Z" horiz-adv-x="351" unicode="∫"/>
			<glyph d="M474 480H546Q544 425 516 392T431 359Q400 359 364 365T292 379T225 393T172 400Q128 400 126 351H55Q57 411 88 442T170 473Q202 473 238 466T308 452T373 438T424 432Q450 432 461 444T474 480ZM474 298H546Q544 243 516 210T431 177Q400 177 364 183T292 197T225 211T172 218Q128 218 126 169H55Q57 229 88 260T170 291Q202 291 238 284T308 270T373 256T424 250Q450 250 461 262T474 298Z" horiz-adv-x="601" unicode="≈"/>
			<glyph d="M393 578H464L401 455H537V382H364L307 269H537V196H270L208 73H137L199 196H64V269H236L293 382H64V455H330Z" horiz-adv-x="601" unicode="≠"/>
			<glyph d="M60 73H484V0H60ZM484 550V467L255 382Q235 374 211 366T168 352Q144 344 121 337V335Q144 328 168 320Q188 313 211 305T255 291L484 205V121L60 287V384Z" horiz-adv-x="548" unicode="≤"/>
			<glyph d="M64 73H488V0H64ZM64 550L488 384V287L64 121V205L293 291Q313 298 336 305T379 320Q403 328 427 335V337Q403 344 379 352Q359 359 336 366T293 382L64 467Z" horiz-adv-x="548" unicode="≥"/>
			<glyph d="M431 757Q511 757 581 727T702 646T783 524T813 369Q813 286 783 215T702 92T581 11T431 -18Q351 -18 281 11T161 92T80 215T51 369Q51 453 80 524T161 646T281 727T431 757ZM431 716Q360 716 299 690T194 617T124 507T99 369Q99 295 124 231T194 122T299 50T431 24Q502 24 563 50T668 122T738 231T763 369Q763 444 738 507T668 617T563 690T431 716ZM289 584H473Q544 584 581 545Q598 526 607 503T616 452Q616 392 579 356T476 321H368V161H289ZM368 518V383H462Q499 383 518 401T537 450Q537 483 518 500T464 518Z" horiz-adv-x="863" unicode="Ⓟ"/>
			<glyph d="M238 744H345L555 371L346 0H239L29 373ZM289 679Q284 664 276 645Q269 628 258 605T231 554L133 375L233 189Q249 160 259 137T278 98Q286 79 292 64H294Q299 79 307 98Q320 129 352 189L450 368L350 554Q334 583 323 605T305 645Q296 664 291 679Z" horiz-adv-x="584" unicode="◊"/>
			<glyph d="M270 749Q281 749 293 748T318 747V670Q285 672 263 670T229 661T212 641T207 607V537H317V464H207V0H114V464H31V537H114V611Q114 685 152 718Q172 735 201 742T270 749ZM404 537H497V0H404ZM402 744H499V636H402Z" horiz-adv-x="561" unicode=""/>
			<glyph d="M270 749Q281 749 293 748T318 747V670Q285 672 263 670T229 661T212 641T207 607V537H317V464H207V0H114V464H31V537H114V611Q114 685 152 718Q172 735 201 742T270 749ZM404 744H497V0H404Z" horiz-adv-x="564" unicode=""/>
			<glyph d="M68 745H813V0H68ZM365 618V448H190V299H365V123H515V299H690V448H515V618Z" horiz-adv-x="880" unicode=""/>
			<glyph d="M572 748T608 747V670Q575 672 553 670T519 661T502 641T497 607V537H607V464H497V0H404V464H207V0H114V464H31V537H114V607Q114 678 149 708T253 741Q266 744 282 744T317 743V666Q284 668 263 666T229 657T212 636T207 602V537H404V611Q404 682 439 712T543 745Q556 748 572 748Z" horiz-adv-x="640" unicode="ﬀ"/>
			<glyph d="M270 749Q281 749 293 748T318 747V670Q285 672 263 670T229 661T212 641T207 607V537H317V464H207V0H114V464H31V537H114V611Q114 685 152 718Q172 735 201 742T270 749ZM404 537H497V0H404ZM402 744H499V636H402Z" horiz-adv-x="561" unicode="ﬁ"/>
			<glyph d="M270 749Q281 749 293 748T318 747V670Q285 672 263 670T229 661T212 641T207 607V537H317V464H207V0H114V464H31V537H114V611Q114 685 152 718Q172 735 201 742T270 749ZM404 744H497V0H404Z" horiz-adv-x="564" unicode="ﬂ"/>
			<glyph d="M572 748T608 747V670Q575 672 553 670T519 661T502 641T497 607V537H607V464H497V0H404V464H207V0H114V464H31V537H114V607Q114 678 149 708T253 741Q266 744 282 744T317 743V666Q284 668 263 666T229 657T212 636T207 602V537H404V611Q404 682 439 712T543 745Q556 748 572 748ZM694 537H787V0H694ZM692 744H789V636H692Z" horiz-adv-x="851" unicode="ﬃ"/>
			<glyph d="M572 748T608 747V670Q575 672 553 670T519 661T502 641T497 607V537H607V464H497V0H404V464H207V0H114V464H31V537H114V607Q114 678 149 708T253 741Q266 744 282 744T317 743V666Q284 668 263 666T229 657T212 636T207 602V537H404V611Q404 682 439 712T543 745Q556 748 572 748ZM694 744H787V0H694Z" horiz-adv-x="854" unicode="ﬄ"/>
		</font>
</defs>
</svg>
