<?xml version="1.0" encoding="UTF-8" standalone="no"?>
<svg width="120px" height="120px" viewBox="0 0 120 120" version="1.1" xmlns="http://www.w3.org/2000/svg" xmlns:xlink="http://www.w3.org/1999/xlink" xmlns:sketch="http://www.bohemiancoding.com/sketch/ns">
    <!-- Generator: Sketch 3.5.1 (25234) - http://www.bohemiancoding.com/sketch -->
    <title>free-trial-riveting-reads-120x120</title>
    <desc>Created with Sketch.</desc>
    <defs></defs>
    <g id="Page-1" stroke="none" stroke-width="1" fill="none" fill-rule="evenodd" sketch:type="MSPage">
        <g id="free-trial-riveting-reads-120x120" sketch:type="MSArtboardGroup">
            <path d="M39.7,34.8 L36,31" id="Shape" stroke="#F8C058" stroke-width="6" sketch:type="MSShapeGroup"></path>
            <path d="M84.2,31 L80.5,34.8" id="Shape" stroke="#F8C058" stroke-width="6" sketch:type="MSShapeGroup"></path>
            <path d="M31.3,55.1 L26,55.1" id="Shape" stroke="#F8C058" stroke-width="6" sketch:type="MSShapeGroup"></path>
            <path d="M94.2,55.1 L88.9,55.1" id="Shape" stroke="#F8C058" stroke-width="6" sketch:type="MSShapeGroup"></path>
            <path d="M60.1,26.3 L60.1,21" id="Shape" stroke="#F8C058" stroke-width="6" sketch:type="MSShapeGroup"></path>
            <path d="M60.1,89.2 L60.1,83.9" id="Shape" stroke="#F8C058" stroke-width="6" sketch:type="MSShapeGroup"></path>
            <g id="Group" sketch:type="MSLayerGroup" transform="translate(38.900000, 33.800000)">
                <path d="M39.7,25.8 L39.7,25.8 C40.2,24 40.5,22.2 40.5,20.2 C40.5,9.2 31.6,0.3 20.6,0.3 C9.6,0.3 0.7,9.2 0.7,20.2 C0.7,22.1 1,24 1.5,25.8 L1.4,25.8 L1.7,26.7 C1.9,27.2 2.1,27.7 2.3,28.2 L12.3,53.9 L20.6,53.9 L20.6,53.9 L28.9,53.9 L38.6,28.8 C39,27.9 39.4,27 39.7,26.1 L39.7,25.8 L39.7,25.8 Z" id="Shape" fill="#F7B53B" sketch:type="MSShapeGroup"></path>
                <g transform="translate(4.000000, 4.000000)" id="Shape" sketch:type="MSShapeGroup">
                    <path d="M0.4,16.8 C0.4,18.4 0.6,19.9 1,21.3 L1,21.3 L1.3,22 C1.4,22.4 1.6,22.8 1.8,23.2 L9.9,43.9 L16.6,43.9 L16.6,43.9 L16.6,0.6 C7.6,0.7 0.4,7.9 0.4,16.8 L0.4,16.8 Z" fill="#F7B53B"></path>
                    <path d="M23.3,42.1 L30.5,23.6 C30.8,23 31.1,22.3 31.3,21.6 L31.4,21.4 L31.4,21.4 C31.8,20.1 32,18.7 32,17.3 C32,9.2 25.4,2.6 17.3,2.6 L17.3,2.6 L17.3,42 L17.3,42 L23.3,42 L23.3,42.1 Z" fill="#F68A00"></path>
                </g>
            </g>
            <g id="Group" sketch:type="MSLayerGroup" transform="translate(47.900000, 85.800000)">
                <path d="M3.5,0.8 C1.8,0.8 0.5,2.2 0.5,3.8 C0.5,5.5 1.9,6.8 3.5,6.8 C1.8,6.8 0.5,8.2 0.5,9.8 C0.5,11.5 1.9,12.8 3.5,12.8 L11.5,12.8 L11.5,0.7 L3.5,0.7 L3.5,0.8 Z" id="Shape" fill="#5F86A5" sketch:type="MSShapeGroup"></path>
                <path d="M22.5,9.9 C22.5,8.2 21.1,6.9 19.5,6.9 C21.2,6.9 22.5,5.5 22.5,3.9 C22.5,2.2 21.1,0.9 19.5,0.9 L11.5,0.9 L11.5,13 L19.5,13 C21.2,12.9 22.5,11.6 22.5,9.9 L22.5,9.9 Z" id="Shape" fill="#3C6C93" sketch:type="MSShapeGroup"></path>
            </g>
        </g>
    </g>
</svg>