<?xml version="1.0" encoding="UTF-8" standalone="no"?>
<svg width="120px" height="120px" viewBox="0 0 120 120" version="1.1" xmlns="http://www.w3.org/2000/svg" xmlns:xlink="http://www.w3.org/1999/xlink" xmlns:sketch="http://www.bohemiancoding.com/sketch/ns">
    <!-- Generator: Sketch 3.4.4 (17249) - http://www.bohemiancoding.com/sketch -->
    <title>free-trial-crosswords-120x120</title>
    <desc>Created with Sketch.</desc>
    <defs></defs>
    <g id="Page-1" stroke="none" stroke-width="1" fill="none" fill-rule="evenodd" sketch:type="MSPage">
        <g id="free-trial-crosswords-120x120" sketch:type="MSArtboardGroup">
            <path d="M77.2,74.3 L74.2,74.3 L61.8,74.3 L58.8,74.3 L46.4,74.3 L43.4,74.3 L28,74.3 L28,88.2 C28,90.7 30,92.7 32.5,92.7 L88.2,92.7 C90.7,92.7 92.7,90.7 92.7,88.2 L92.7,74.3 L77.2,74.3 L77.2,74.3 Z" id="Shape" fill="#16506D" sketch:type="MSShapeGroup"></path>
            <path d="M44.8,42.4 L29.4,42.4 L29.4,30 C29.4,28.3 30.7,27 32.4,27 L44.8,27 L44.8,42.4 L44.8,42.4 Z" id="Shape" stroke="#3C6C93" stroke-width="3" fill="#3C6C93" sketch:type="MSShapeGroup"></path>
            <rect id="Rectangle-path" stroke="#3C6C93" stroke-width="3" fill="#F8C058" sketch:type="MSShapeGroup" x="44.8" y="27" width="15.4" height="15.4"></rect>
            <rect id="Rectangle-path" stroke="#3C6C93" stroke-width="3" fill="#F8C058" sketch:type="MSShapeGroup" x="60.3" y="27" width="15.4" height="15.4"></rect>
            <rect id="Rectangle-path" stroke="#3C6C93" stroke-width="3" fill="#F8C058" sketch:type="MSShapeGroup" x="29.4" y="42.4" width="15.4" height="15.4"></rect>
            <rect id="Rectangle-path" stroke="#3C6C93" stroke-width="3" fill="#3C6C93" sketch:type="MSShapeGroup" x="44.8" y="42.4" width="15.4" height="15.4"></rect>
            <rect id="Rectangle-path" stroke="#3C6C93" stroke-width="3" fill="#F8C058" sketch:type="MSShapeGroup" x="60.3" y="42.4" width="15.4" height="15.4"></rect>
            <rect id="Rectangle-path" stroke="#3C6C93" stroke-width="3" fill="#F8C058" sketch:type="MSShapeGroup" x="29.4" y="57.9" width="15.4" height="15.4"></rect>
            <rect id="Rectangle-path" stroke="#3C6C93" stroke-width="3" fill="#F8C058" sketch:type="MSShapeGroup" x="44.8" y="57.9" width="15.4" height="15.4"></rect>
            <rect id="Rectangle-path" stroke="#3C6C93" stroke-width="3" fill="#F8C058" sketch:type="MSShapeGroup" x="60.3" y="57.9" width="15.4" height="15.4"></rect>
            <path d="M91.1,42.4 L75.7,42.4 L75.7,27 L88.1,27 C89.8,27 91.1,28.3 91.1,30 L91.1,42.4 L91.1,42.4 Z" id="Shape" stroke="#3C6C93" stroke-width="3" fill="#F8C058" sketch:type="MSShapeGroup"></path>
            <rect id="Rectangle-path" stroke="#3C6C93" stroke-width="3" fill="#3C6C93" sketch:type="MSShapeGroup" x="75.7" y="42.4" width="15.4" height="15.4"></rect>
            <rect id="Rectangle-path" stroke="#3C6C93" stroke-width="3" fill="#F8C058" sketch:type="MSShapeGroup" x="75.7" y="57.9" width="15.4" height="15.4"></rect>
            <path d="M44.8,88.3 L32.4,88.3 C30.7,88.3 29.4,87 29.4,85.3 L29.4,72.9 L44.8,72.9 L44.8,88.3 L44.8,88.3 Z" id="Shape" stroke="#3C6C93" stroke-width="3" fill="#3C6C93" sketch:type="MSShapeGroup"></path>
            <rect id="Rectangle-path" stroke="#3C6C93" stroke-width="3" fill="#F8C058" sketch:type="MSShapeGroup" x="44.8" y="72.8" width="15.4" height="15.4"></rect>
            <rect id="Rectangle-path" stroke="#3C6C93" stroke-width="3" fill="#3C6C93" sketch:type="MSShapeGroup" x="60.3" y="72.8" width="15.4" height="15.4"></rect>
            <path d="M88.1,88.3 L75.7,88.3 L75.7,72.9 L91.1,72.9 L91.1,85.3 C91.1,86.9 89.8,88.3 88.1,88.3 L88.1,88.3 Z" id="Shape" stroke="#3C6C93" stroke-width="3" fill="#F8C058" sketch:type="MSShapeGroup"></path>
        </g>
    </g>
</svg>