<?xml version="1.0" encoding="UTF-8" standalone="no"?>
<svg width="120px" height="120px" viewBox="0 0 120 120" version="1.1" xmlns="http://www.w3.org/2000/svg" xmlns:xlink="http://www.w3.org/1999/xlink" xmlns:sketch="http://www.bohemiancoding.com/sketch/ns">
    <!-- Generator: Sketch 3.4.4 (17249) - http://www.bohemiancoding.com/sketch -->
    <title>free-trial-whats-cooking-120x120</title>
    <desc>Created with Sketch.</desc>
    <defs>
        <circle id="path-1" cx="34.3" cy="33.4" r="33.4"></circle>
    </defs>
    <g id="Page-1" stroke="none" stroke-width="1" fill="none" fill-rule="evenodd" sketch:type="MSPage">
        <g id="free-trial-whats-cooking-120x120" sketch:type="MSArtboardGroup">
            <circle id="Oval" fill="#3C6C93" sketch:type="MSShapeGroup" cx="60.3" cy="60.4" r="33.4"></circle>
            <g id="Clipped" sketch:type="MSLayerGroup" transform="translate(26.000000, 27.000000)">
                <mask id="mask-2" sketch:name="SVGID_11_" fill="white">
                    <use xlink:href="#path-1"></use>
                </mask>
                <g id="SVGID_11_"></g>
                <path d="M78.2,22.4 L61.8,31.8 C53.1,24.2 32.3,10.1 7.3,21.8 C0.9,24.8 -5.7,29.4 -12.5,36.1 C-12.5,36.1 -4.9,44.9 7.3,50.4 C20.9,56.6 40.4,58.8 61.7,40.3 L78.2,49.8 L78.2,22.4 L78.2,22.4 Z" id="Shape" fill="#3E5569" sketch:type="MSShapeGroup" mask="url(#mask-2)"></path>
            </g>
            <path d="M104.2,46.6 L87.8,56 C79.1,48.4 58.3,34.3 33.3,46 C36.2,50 38,55 38,60.3 C38,65.7 36.3,70.6 33.3,74.6 C46.9,80.8 66.4,83 87.7,64.5 L104.2,74 L104.2,46.6 L104.2,46.6 Z" id="Shape" fill="#F68A00" sketch:type="MSShapeGroup"></path>
            <path d="M38,60.4 C38,55 36.3,50.1 33.3,46.1 C27.8,48.7 22,52.5 16.1,57.9 L18.6,60.4 L16,63 C19.2,66 25.2,71.1 33.2,74.7 C36.3,70.7 38,65.8 38,60.4 L38,60.4 Z" id="Shape" fill="#F7B53B" sketch:type="MSShapeGroup"></path>
            <circle id="Oval" fill="#FFFFFF" sketch:type="MSShapeGroup" cx="29.5" cy="56.5" r="2.7"></circle>
        </g>
    </g>
</svg>