<svg xmlns="http://www.w3.org/2000/svg" viewBox="0 0 115 115"><defs><style>.cls-1,.cls-2{fill:none;}.cls-1{stroke:#3b1ffa;}.cls-1,.cls-2,.cls-3{stroke-linecap:round;stroke-linejoin:round;stroke-width:3px;}.cls-2{stroke:#09f;}.cls-3{fill:#3b1ffa;stroke:#2ef6a5;}</style></defs><title>low-barier_1</title><g id="Layer_2" data-name="Layer 2"><g id="Layer_1-2" data-name="Layer 1"><path class="cls-1" d="M62.35865,55.62495l-22.79528-15.535a4.48077,4.48077,0,1,0-5.026,7.37494L49.28722,57.51694a4.48077,4.48077,0,1,0-5.026,7.37494l2.6818,1.82765a4.48077,4.48077,0,1,0-5.026,7.37494l1.3409.91383a4.07161,4.07161,0,0,0-6.0771,1.90677,4.137,4.137,0,0,0,1.60519,4.864L54.77949,92.67871a20.355,20.355,0,0,0,15.52661.2976,4.5534,4.5534,0,0,0,2.1187-1.69757l8.751-12.84068a5.81089,5.81089,0,0,0,1.02632-3.35743,26.36292,26.36292,0,0,0-1.28437-7.78948C79.616,63.31307,76.844,60.29722,73.75143,55.32782c-1.59381-2.561-2.2799-8.348-4.66372-13.12876a4.45064,4.45064,0,0,0-5.92287-2.27677c-1.81121.86111-2.65559,2.83694-2.52794,5.15006C61.24,48.08425,61.4846,53.06561,62.35865,55.62495Z"/><line class="cls-1" x1="49.28722" y1="57.51694" x2="56.32688" y2="62.31461"/><line class="cls-1" x1="46.94297" y1="66.71954" x2="52.95601" y2="70.81756"/><line class="cls-1" x1="43.25783" y1="75.00831" x2="50.82128" y2="80.16294"/><circle class="cls-2" cx="57.5" cy="57.5" r="56"/><line class="cls-3" x1="55.83937" y1="32.56755" x2="63.61644" y2="25.41057"/><line class="cls-3" x1="51.45245" y1="30.53406" x2="51.83293" y2="20.55803"/><line class="cls-3" x1="46.73689" y1="31.51654" x2="39.55736" y2="21.44687"/></g></g></svg>