<?xml version="1.0" encoding="utf-8"?>
<!-- Generator: Adobe Illustrator 18.1.1, SVG Export Plug-In . SVG Version: 6.00 Build 0)  -->
<svg version="1.1" xmlns="http://www.w3.org/2000/svg" xmlns:xlink="http://www.w3.org/1999/xlink" x="0px" y="0px"
	 viewBox="-501 263 276 276" enable-background="new -501 263 276 276" xml:space="preserve">
<g id="Layer_1">
	<path fill="none" enable-background="new    " d="z"/>
	<g>
		<circle fill-rule="evenodd" clip-rule="evenodd" fill="#ECECEC" cx="-363.4" cy="400.4" r="137.6"/>
		<g>
			<g>
				<path fill="#1F85E0" d="M-350.5,465.5h-9.5h-20h-21.4H-413c-4,0-7.2,3.5-7.2,8.7h34.1h6.1h1.1h8.5h19.9h7.2
					C-343.3,469-346.5,465.5-350.5,465.5z"/>
				<polygon fill="#1F85E0" points="-379.9,456.8 -402,456.8 -402,465.5 -379.9,465.5 -360.2,465.5 -360.2,456.8 				"/>
				<path fill="#1F85E0" d="M-303.2,333.2h-76.7h-77.4c-3.9,0-7.3,2.9-7.3,6.9v76.8v21.4v9.9v1.4c0,3.9,3.3,7.1,7.3,7.1h56h21.4h20
					h56.7c3.9,0,7.3-3.2,7.3-7.1v-1.4v-9.9v-21.4v-76.8C-295.9,336.2-299.3,333.2-303.2,333.2z M-308,416.9v15.5h-71.9h-70.8v-15.5
					v-73.2h70.8h71.9V416.9z"/>
				<polygon fill="#1F85E0" points="-379.9,343.7 -399.3,343.7 -450.7,343.7 -450.7,416.9 -450.7,432.4 -399.3,432.4 -379.9,432.4 
					-308,432.4 -308,416.9 -308,343.7 				"/>
			</g>
			<g>
				<path fill="#5F86A5" d="M-350.5,465.5h-9.5h-20h-21.4H-413c-4,0-7.2,3.5-7.2,8.7h34.1h6.1h1.1h8.5h19.9h7.2
					C-343.3,469-346.5,465.5-350.5,465.5z"/>
				<polygon fill="#3C6C93" points="-379.9,456.8 -402,456.8 -402,465.5 -379.9,465.5 -360.2,465.5 -360.2,456.8 				"/>
				<path fill="#5F86A5" d="M-303.2,333.2h-76.7h-77.4c-3.9,0-7.3,2.9-7.3,6.9v76.8v21.4v9.9v1.4c0,3.9,3.3,7.1,7.3,7.1h56h21.4h20
					h56.7c3.9,0,7.3-3.2,7.3-7.1v-1.4v-9.9v-21.4v-76.8C-295.9,336.2-299.3,333.2-303.2,333.2z M-308,416.9v15.5h-71.9h-70.8v-15.5
					v-73.2h70.8h71.9V416.9z"/>
				<polygon fill="#F8C058" points="-379.9,343.7 -399.3,343.7 -450.7,343.7 -450.7,416.9 -450.7,432.4 -399.3,432.4 -379.9,432.4 
					-308,432.4 -308,416.9 -308,343.7 				"/>
			</g>
		</g>
		<g id="NYT_T_16_">
			<g>
				<g>
					<g>
						<g>
							<path fill="#F68A00" d="M-364.7,358.4c1.7,0.1,4.3,1,6.3,2.7c2.1,2,2.6,5.1,1.8,7.9c-0.6,2.5-1,3.8-3.6,5.5
								c-2.6,1.8-5.3,1.6-5.3,1.6v10.8l5.3,4.3l-5.3,4.2v14.7c0,0,4.9-3,8.2-9.7c0,0-0.1-0.4,0.2-1.1c0.3,1.8,0,5.5-2,10.2
								c-1.5,3.5-4.4,7-7.9,8.9c-6.2,3.4-11,3.8-16,2.7c-5.9-1.2-11.2-4.5-14.9-10.3c-2.5-4-3.7-8.8-3.6-13.9
								c0.2-9.9,7.6-18.5,16.2-21.7c1-0.4,1.5-0.7,2.9-0.8c-0.7,0.5-1.5,1.1-2.4,1.7c-2.8,1.8-5.1,5.4-6.1,8.2l16.6-7.4v23.2
								l-13.4,6.7c1.5,2.1,5.9,5.3,9.9,5.8c6.7,0.7,10.5-2.2,10.5-2.2v-15l-5.2-4.2l5.2-4.2v-10.8c-1.7-0.3-6.1-1.3-8.2-1.8
								c-3-0.7-12.8-3.5-14.4-3.8c-1.6-0.2-3.4-0.2-4.6,0.9c-1.2,1.1-1.9,2.9-1.4,4.6c0.3,0.9,0.9,1.5,1.4,2c0,0-0.6,0-1.6-0.7
								c-1.9-1.1-3.3-3.3-3.5-6c-0.2-3.5,1.2-6.7,4.2-8.9c2.6-1.6,5.4-2.7,8.8-2.2c4.9,0.7,11.4,3.5,17.3,4.9c2.3,0.6,4,0.7,5.6-0.2
								c0.7-0.5,2-1.9,1-3.7c-1.3-2.1-3.6-2.1-5.7-2.5C-366.4,358.3-366,358.3-364.7,358.4z M-384.6,404.6v-22.4l-6.6,3
								c0,0-1.7,3.8-1.4,9.4c0.2,4.4,2.6,9.6,4.5,11.8L-384.6,404.6z"/>
						</g>
					</g>
				</g>
			</g>
		</g>
		<g>
			<defs>
				<rect id="SVGID_1_" x="-339.4" y="368" width="31.3" height="88.7"/>
			</defs>
			<clipPath id="SVGID_2_">
				<use xlink:href="#SVGID_1_"  overflow="visible"/>
			</clipPath>
			<g clip-path="url(#SVGID_2_)">
				<g>
					<path fill="#3E5569" d="M-324.1,373.3c-3.9,0-6.6,4-6.6,7.9v85c0,3.9,2.7,7.9,6.6,7.9h23V373.3H-324.1z"/>
				</g>
			</g>
		</g>
		<path fill="#3C6C93" d="M-266.3,381.2c0-3.9-3.8-7.9-7.8-7.9h-23.1h-23.1c-3.9,0-7,4-7,7.9v85c0,3.9,3,7.9,7,7.9h23.1h23.1
			c3.9,0,7.8-4,7.8-7.9V381.2z"/>
		<rect x="-322" y="385.4" fill="#F8C058" width="48.7" height="67.9"/>
		<circle fill="#5F86A5" cx="-297.1" cy="463.7" r="4.6"/>
		<g id="NYT_T_13_">
			<g>
				<g>
					<g>
						<g>
							<path fill="#F68A00" d="M-288.5,400c1,0.1,2.6,0.6,3.8,1.6c1.3,1.2,1.6,3.1,1.1,4.8c-0.4,1.5-0.6,2.3-2.1,3.4
								c-1.6,1.1-3.2,1-3.2,1v6.6l3.2,2.6l-3.2,2.6v9c0,0,3-1.8,5-6c0,0-0.1-0.2,0.1-0.7c0.2,1.1,0,3.4-1.2,6.2
								c-0.9,2.2-2.7,4.3-4.8,5.4c-3.8,2.1-6.7,2.3-9.7,1.7c-3.6-0.7-6.8-2.7-9.1-6.3c-1.6-2.5-2.3-5.3-2.2-8.5
								c0.1-6.1,4.7-11.3,9.9-13.3c0.6-0.2,0.9-0.4,1.8-0.5c-0.4,0.3-0.9,0.6-1.5,1c-1.7,1.1-3,3.3-3.6,5l10.2-4.5v14.2l-8.3,4.1
								c0.9,1.3,3.3,3.3,5.7,3.5c4.1,0.4,6.1-1.3,6.1-1.3v-9.2l-3.2-2.6l3.2-2.6v-6.6c-1.7-0.2-3.4-0.8-4.7-1.1
								c-1.8-0.5-7.7-2.1-8.6-2.3c-1-0.1-2-0.1-2.7,0.5c-0.7,0.6-1.1,1.8-0.8,2.8c0.2,0.6,0.6,0.9,0.9,1.2c0,0-0.3,0-1-0.4
								c-1.1-0.7-2-2-2.1-3.7c-0.1-2.2,0.8-4.1,2.5-5.4c1.6-1,3.3-1.6,5.4-1.3c3,0.4,7,2.1,10.6,3c1.4,0.3,2.5,0.5,3.4-0.1
								c0.5-0.3,1.3-1.2,0.6-2.3c-0.8-1.3-2.2-1.3-3.5-1.5C-289.5,400-289.3,400-288.5,400z M-301.1,428.2v-13.7l-3.8,1.8
								c0,0-0.9,2.3-0.7,5.8c0.2,2.7,1.4,5.8,2.6,7.2L-301.1,428.2z"/>
						</g>
					</g>
				</g>
			</g>
		</g>
	</g>
</g>
<g id="Isolation_Mode">
</g>
</svg>
