<svg xmlns="http://www.w3.org/2000/svg" width="150" height="150" viewBox="0 0 150 150" preserveAspectRatio="xMidYMid meet" style="width: 100%; height: 100%;"><defs><clipPath id="animationMask_5XWpO6hJdo"><rect width="150" height="150" x="0" y="0"></rect></clipPath><mask id="ly_CixyENJJ2T" mask-type="alpha"><g clip-path="url(#8hPdcEmBAn)" transform="matrix(1,0,0,1,74.68,74.68)" opacity="1" style="-webkit-user-select: none;"><g opacity="1" transform="matrix(0.9571200000000001,0,0,0.9571200000000001,0.32,0.32)"><path fill="rgb(255,255,255)" fill-opacity="1" d="M0 0 M0,-70 C38.632999999999996,-70 70,-38.632999999999996 70,0 C70,38.632999999999996 38.632999999999996,70 0,70 C-38.632999999999996,70 -70,38.632999999999996 -70,0 C-70,-38.632999999999996 -38.632999999999996,-70 0,-70z"></path><path stroke-linecap="butt" stroke-linejoin="miter" fill-opacity="0" stroke-miterlimit="4" stroke="rgb(1,173,253)" stroke-opacity="1" stroke-width="0" d="M0 0 M0,-70 C38.632999999999996,-70 70,-38.632999999999996 70,0 C70,38.632999999999996 38.632999999999996,70 0,70 C-38.632999999999996,70 -70,38.632999999999996 -70,0 C-70,-38.632999999999996 -38.632999999999996,-70 0,-70z"></path></g><g opacity="1" transform="matrix(1,0,0,1,0,0)"><path fill="rgb(255,255,255)" fill-opacity="1" d="M0 0 M0.32,-58.68"></path><path stroke-linecap="butt" stroke-linejoin="butt" fill-opacity="0" stroke-dasharray=" 18" stroke-dashoffset="14" stroke="rgb(1,173,253)" stroke-opacity="1" stroke-width="0" d="M0 0 M0.32,-58.68"></path></g></g></mask><clipPath id="8hPdcEmBAn"><path fill="#ffffff" clip-rule="nonzero" d=" M-66.678,-66.678 C-66.678,-66.678 -66.678,67.319 -66.678,67.319 C-66.678,67.319 67.319,67.319 67.319,67.319 C67.319,67.319 67.319,-66.678 67.319,-66.678 C67.319,-66.678 -66.678,-66.678 -66.678,-66.678" fill-opacity="1"></path></clipPath></defs><g clip-path="url(#animationMask_5XWpO6hJdo)"><g transform="matrix(1,0,0,1,74.68,74.68)" opacity="1" style="-webkit-user-select: none;"><g opacity="1" transform="matrix(1,0,0,1,0.32,0.32)"><path fill="rgb(255,255,255)" fill-opacity="1" d="M0 0 M0,-70 C38.632999999999996,-70 70,-38.632999999999996 70,0 C70,38.632999999999996 38.632999999999996,70 0,70 C-38.632999999999996,70 -70,38.632999999999996 -70,0 C-70,-38.632999999999996 -38.632999999999996,-70 0,-70z"></path><path stroke-linecap="butt" stroke-linejoin="miter" fill-opacity="0" stroke-miterlimit="4" stroke="rgb(1,173,253)" stroke-opacity="1" stroke-width="6" d="M0 0 M0,-70 C38.632999999999996,-70 70,-38.632999999999996 70,0 C70,38.632999999999996 38.632999999999996,70 0,70 C-38.632999999999996,70 -70,38.632999999999996 -70,0 C-70,-38.632999999999996 -38.632999999999996,-70 0,-70z"></path></g><g opacity="1" transform="matrix(1,0,0,1,0,0)"><path fill="rgb(255,255,255)" fill-opacity="1" d="M0 0 M0.32,-58.68"></path><path stroke-linecap="butt" stroke-linejoin="butt" fill-opacity="0" stroke-dasharray=" 18" stroke-dashoffset="14" stroke="rgb(1,173,253)" stroke-opacity="1" stroke-width="6" d="M0 0 M0.32,-58.68"></path></g></g><g transform="matrix(1,0,0,1,0,0)" opacity="1" style="-webkit-user-select: none;"><g opacity="1" transform="matrix(1,0,0,1,36,75)"><path fill="rgb(255,255,255)" fill-opacity="1" d="M0 0 M31,-69.54 C31,-69.54 31,69.54 31,69.54 C-3.8900000000000006,65.58000000000001 -31,35.96 -31,0 C-31,-35.96 -3.8900000000000006,-65.58000000000001 31,-69.54z"></path><path stroke-linecap="round" stroke-linejoin="round" fill-opacity="0" stroke="rgb(1,172,252)" stroke-opacity="1" stroke-width="6" d="M0 0 M31,-69.54 C31,-69.54 31,69.54 31,69.54 C-3.8900000000000006,65.58000000000001 -31,35.96 -31,0 C-31,-35.96 -3.8900000000000006,-65.58000000000001 31,-69.54z"></path></g><g opacity="1" transform="matrix(1,0,0,1,114,75)"><path fill="rgb(255,255,255)" fill-opacity="1" d="M0 0 M31,0 C31,35.96 3.8900000000000006,65.58000000000001 -31,69.54 C-31,69.54 -31,-69.54 -31,-69.54 C3.8900000000000006,-65.58000000000001 31,-35.96 31,0z"></path><path stroke-linecap="round" stroke-linejoin="round" fill-opacity="0" stroke="rgb(1,172,252)" stroke-opacity="1" stroke-width="6" d="M0 0 M31,0 C31,35.96 3.8900000000000006,65.58000000000001 -31,69.54 C-31,69.54 -31,-69.54 -31,-69.54 C3.8900000000000006,-65.58000000000001 31,-35.96 31,0z"></path></g></g><g transform="matrix(1,0,0,1,74.68,74.68)" opacity="1" style="-webkit-user-select: none;"><g opacity="1" transform="matrix(0.9571200000000001,0,0,0.9571200000000001,0.32,0.32)"><path fill="rgb(255,255,255)" fill-opacity="1" d="M0 0 M0,-70 C38.632999999999996,-70 70,-38.632999999999996 70,0 C70,38.632999999999996 38.632999999999996,70 0,70 C-38.632999999999996,70 -70,38.632999999999996 -70,0 C-70,-38.632999999999996 -38.632999999999996,-70 0,-70z"></path><path stroke-linecap="butt" stroke-linejoin="miter" fill-opacity="0" stroke-miterlimit="4" stroke="rgb(1,173,253)" stroke-opacity="1" stroke-width="0" d="M0 0 M0,-70 C38.632999999999996,-70 70,-38.632999999999996 70,0 C70,38.632999999999996 38.632999999999996,70 0,70 C-38.632999999999996,70 -70,38.632999999999996 -70,0 C-70,-38.632999999999996 -38.632999999999996,-70 0,-70z"></path></g><g opacity="1" transform="matrix(1,0,0,1,0,0)"><path fill="rgb(255,255,255)" fill-opacity="1" d="M0 0 M0.32,-58.68"></path><path stroke-linecap="butt" stroke-linejoin="butt" fill-opacity="0" stroke-dasharray=" 18" stroke-dashoffset="14" stroke="rgb(1,173,253)" stroke-opacity="1" stroke-width="0" d="M0 0 M0.32,-58.68"></path></g></g><g mask="url(#ly_CixyENJJ2T)"><g transform="matrix(1,0,0,1,19.5,33.25)" opacity="1" style="-webkit-user-select: none;"><g opacity="1" transform="matrix(1,0,0,1,56.547,41.837)"><path fill="rgb(78,74,247)" fill-opacity="1" d="M0 0 M46.717,17.816 C46.717,17.816 3.945,-6.878 3.945,-6.878 C5.128,-18.076 -0.2159999999999993,-29.436 -10.59,-35.426 C-18.657,-40.083 -28.018,-40.481 -36.077,-37.326 C-36.077,-37.326 -10.172,-22.37 -10.172,-22.37 C-10.172,-22.37 -10.172,-1.24 -10.172,-1.24 C-10.172,-1.24 -28.472,9.326 -28.472,9.326 C-28.472,9.326 -54.377,-5.63 -54.377,-5.63 C-53.079,2.9270000000000005 -48.055,10.834 -39.988,15.492 C-29.613,21.482 -17.104,20.43 -7.997,13.807 C-7.997,13.807 34.774,38.501 34.774,38.501 C37.622,40.144999999999996 40.887,40.480999999999995 43.832,39.678 C46.784,38.900999999999996 49.443,36.977999999999994 51.088,34.129 C54.377,28.433 52.413,21.105 46.717,17.816zM0 0 M39.703,31.8 C37.953,30.789 37.348,28.53 38.358,26.78 C39.369,25.029 41.628,24.424999999999997 43.378,25.435 C45.129,26.445999999999998 45.733,28.704 44.724,30.454 C43.712999999999994,32.205 41.454,32.811 39.703,31.8z"></path></g></g></g><g transform="matrix(1,0,0,1,26.5,40.25)" opacity="1" style="-webkit-user-select: none;"><g opacity="1" transform="matrix(1,0,0,1,21,23)"><path fill="rgb(45,246,164)" fill-opacity="1" d="M0 0 M0,-21.13 C0,-21.13 -18.3,-10.56 -18.3,-10.56 C-18.3,-10.56 -18.3,10.571 -18.3,10.571 C-18.3,10.571 0,21.13 0,21.13 C0,21.13 18.3,10.571 18.3,10.571 C18.3,10.571 18.3,-10.56 18.3,-10.56 C18.3,-10.56 0,-21.13 0,-21.13zM0 0 M0,6.43 C-3.55,6.43 -6.43,3.55 -6.43,0 C-6.43,-3.549 -3.55,-6.43 0,-6.43 C3.55,-6.43 6.43,-3.549 6.43,0 C6.43,3.55 3.55,6.43 0,6.43z"></path></g></g></g></svg>