<svg xmlns="http://www.w3.org/2000/svg" width="150" height="150" viewBox="0 0 150 150" preserveAspectRatio="xMidYMid meet" style="width: 100%; height: 100%;"><defs><clipPath id="animationMask_Q718JR5ncy"><rect width="150" height="150" x="0" y="0"></rect></clipPath><mask id="ly_tmzzpabxrQ" mask-type="alpha"><g clip-path="url(#5bIRW2Hvuz)" transform="matrix(1,0,0,0.78877,63.028,76.028)" opacity="1" style="-webkit-user-select: none;"><g opacity="1" transform="matrix(1,0,0,1.122,11.972,-12.028)"><path fill="rgb(255,255,255)" fill-opacity="1" d="M0 0 M0,-55.4715 C30.614720849999998,-55.4715 55.4715,-30.614720849999998 55.4715,0 C55.4715,30.614720849999998 30.614720849999998,55.4715 0,55.4715 C-30.614720849999998,55.4715 -55.4715,30.614720849999998 -55.4715,0 C-55.4715,-30.614720849999998 -30.614720849999998,-55.4715 0,-55.4715z"></path><path stroke-linecap="butt" stroke-linejoin="miter" fill-opacity="0" stroke-miterlimit="4" stroke="rgb(0,174,255)" stroke-opacity="1" stroke-width="0" d="M0 0 M0,-55.4715 C30.614720849999998,-55.4715 55.4715,-30.614720849999998 55.4715,0 C55.4715,30.614720849999998 30.614720849999998,55.4715 0,55.4715 C-30.614720849999998,55.4715 -55.4715,30.614720849999998 -55.4715,0 C-55.4715,-30.614720849999998 -30.614720849999998,-55.4715 0,-55.4715z"></path></g></g></mask><clipPath id="5bIRW2Hvuz"><path fill="#ffffff" clip-rule="nonzero" d=" M-43.5,-80.541 C-43.5,-80.541 -43.5,49.408 -43.5,49.408 C-43.5,49.408 67.443,49.408 67.443,49.408 C67.443,49.408 67.443,-80.541 67.443,-80.541 C67.443,-80.541 -43.5,-80.541 -43.5,-80.541" fill-opacity="1"></path><path fill="#ffffff" clip-rule="nonzero" d=" M-43.5,-56.5 C-43.5,-56.5 -43.5,54.443 -43.5,54.443 C-43.5,54.443 67.443,54.443 67.443,54.443 C67.443,54.443 67.443,-56.5 67.443,-56.5 C67.443,-56.5 -43.5,-56.5 -43.5,-56.5" fill-opacity="1"></path></clipPath></defs><g clip-path="url(#animationMask_Q718JR5ncy)"><g transform="matrix(1,0,0,1,74.68,74.68)" opacity="1" style="-webkit-user-select: none;"><g opacity="1" transform="matrix(1,0,0,1,0.32,0.32)"><path fill="rgb(255,255,255)" fill-opacity="1" d="M0 0 M0,-70 C38.632999999999996,-70 70,-38.632999999999996 70,0 C70,38.632999999999996 38.632999999999996,70 0,70 C-38.632999999999996,70 -70,38.632999999999996 -70,0 C-70,-38.632999999999996 -38.632999999999996,-70 0,-70z"></path><path stroke-linecap="butt" stroke-linejoin="miter" fill-opacity="0" stroke-miterlimit="4" stroke="rgb(1,173,253)" stroke-opacity="1" stroke-width="0" d="M0 0 M0,-70 C38.632999999999996,-70 70,-38.632999999999996 70,0 C70,38.632999999999996 38.632999999999996,70 0,70 C-38.632999999999996,70 -70,38.632999999999996 -70,0 C-70,-38.632999999999996 -38.632999999999996,-70 0,-70z"></path></g><g opacity="1" transform="matrix(1,0,0,1,0,0)"><path fill="rgb(255,255,255)" fill-opacity="1" d="M0 0 M0.32,-58.68"></path><path stroke-linecap="butt" stroke-linejoin="butt" fill-opacity="0" stroke-dasharray=" 18" stroke-dashoffset="14" stroke="rgb(1,173,253)" stroke-opacity="1" stroke-width="0" d="M0 0 M0.32,-58.68"></path></g></g><g transform="matrix(1,0,0,1,74.68,74.68)" opacity="1" style="-webkit-user-select: none;"><g opacity="1" transform="matrix(1,0,0,1,0.32,0.32)"><path fill="rgb(255,255,255)" fill-opacity="1" d="M0 0 M-12.254,-68.929 C-8.275,-69.633 -4.18,-70 0,-70 C0,-70 0,-70 0,-70 C38.632999999999996,-70 70,-38.632999999999996 70,0 C70,38.632999999999996 38.632999999999996,70 0,70 C-38.632999999999996,70 -70,38.632999999999996 -70,0 C-70,-34.453 -45.054,-63.127 -12.255,-68.929"></path><path stroke-linecap="butt" stroke-linejoin="miter" fill-opacity="0" stroke-miterlimit="4" stroke="rgb(1,173,253)" stroke-opacity="1" stroke-width="6" d="M0 0 M-12.254,-68.929 C-8.275,-69.633 -4.18,-70 0,-70 C0,-70 0,-70 0,-70 C38.632999999999996,-70 70,-38.632999999999996 70,0 C70,38.632999999999996 38.632999999999996,70 0,70 C-38.632999999999996,70 -70,38.632999999999996 -70,0 C-70,-34.453 -45.054,-63.127 -12.255,-68.929"></path></g><g opacity="1" transform="matrix(1,0,0,1,0,0)"><path fill="rgb(255,255,255)" fill-opacity="1" d="M0 0"></path><path stroke-linecap="butt" stroke-linejoin="butt" fill-opacity="0" stroke-dasharray=" 18" stroke-dashoffset="14" stroke="rgb(1,173,253)" stroke-opacity="1" stroke-width="6" d="M0 0"></path></g></g><g mask="url(#ly_tmzzpabxrQ)"><g transform="matrix(1,0,0,1,46.5,107.5)" opacity="1" style="-webkit-user-select: none; display: block;"><g opacity="1" transform="matrix(1,0,0,1,30.5,52)"><path stroke-linecap="round" stroke-linejoin="round" fill-opacity="0" stroke="rgb(78,75,247)" stroke-opacity="1" stroke-width="6" d="M0 0 M-14.06,25.94 C-14.114,25.886 -14.142,25.858 -14.142,25.858 M0,-40 C0,-40 0,40 0,40 C0,40 14.142,25.858 14.142,25.858 C14.142,25.858 0,40 0,40 C0,40 -12.202,27.798 -13.938,26.062" style="display: block;"></path></g></g></g><g transform="matrix(1,0,0,1,0,42)" opacity="1" style="-webkit-user-select: none;"><g opacity="1" transform="matrix(1,0,0,1,0,0)"><path stroke-linecap="round" stroke-linejoin="round" fill-opacity="0" stroke="rgb(46,246,164)" stroke-opacity="1" stroke-width="6" d="M0 0 M114.5,74.5 C114.5,74.5 114.5,74.5 114.5,74.5 M34.5,74.5 C34.5,74.5 114.5,74.5 114.5,74.5"></path></g></g><g transform="matrix(1,0,0,1,-2.5,2.5)" opacity="1" style="-webkit-user-select: none;"><g opacity="1" transform="matrix(1,0,0,1,83.5,70.25)"><path stroke-linecap="round" stroke-linejoin="round" fill-opacity="0" stroke="rgb(46,246,164)" stroke-opacity="1" stroke-width="6" d="M0 0 M-38,1.25 C-38,1.25 -13.5,25.75 -13.5,25.75 C-13.5,25.75 38,-25.75 38,-25.75 M-38,1.25 C-38,1.25 -38,1.25 -38,1.25"></path></g></g></g></svg>