<svg xmlns="http://www.w3.org/2000/svg" width="150" height="150" viewBox="0 0 150 150" preserveAspectRatio="xMidYMid meet" style="width: 100%; height: 100%;"><defs><clipPath id="animationMask_wouSwG1aBh"><rect width="150" height="150" x="0" y="0"></rect></clipPath><mask id="ly_gdouQiZc6J" mask-type="alpha"><g clip-path="url(#2wnvOI9KJX)" transform="matrix(1,0,0,1,74.68,74.68)" opacity="1" style="-webkit-user-select: none;"><g opacity="1" transform="matrix(0.9567100000000001,0,0,0.96134,0.668,0.42)"><path fill="rgb(255,255,255)" fill-opacity="1" d="M0 0 M0,-70 C38.632999999999996,-70 70,-38.632999999999996 70,0 C70,38.632999999999996 38.632999999999996,70 0,70 C-38.632999999999996,70 -70,38.632999999999996 -70,0 C-70,-38.632999999999996 -38.632999999999996,-70 0,-70z"></path><path stroke-linecap="butt" stroke-linejoin="miter" fill-opacity="0" stroke-miterlimit="4" stroke="rgb(1,173,253)" stroke-opacity="1" stroke-width="0" d="M0 0 M0,-70 C38.632999999999996,-70 70,-38.632999999999996 70,0 C70,38.632999999999996 38.632999999999996,70 0,70 C-38.632999999999996,70 -70,38.632999999999996 -70,0 C-70,-38.632999999999996 -38.632999999999996,-70 0,-70z"></path></g><g opacity="1" transform="matrix(0.9567100000000001,0,0,0.9567100000000001,0,0)"><path fill="rgb(255,255,255)" fill-opacity="1" d="M0 0 M0.32,-58.68"></path><path stroke-linecap="butt" stroke-linejoin="butt" fill-opacity="0" stroke-dasharray=" 18" stroke-dashoffset="14" stroke="rgb(1,173,253)" stroke-opacity="1" stroke-width="0" d="M0 0 M0.32,-58.68"></path></g></g></mask><clipPath id="2wnvOI9KJX"><path fill="#ffffff" clip-rule="nonzero" d=" M-66.649,-66.649 C-66.649,-66.649 -66.649,67.29 -66.649,67.29 C-66.649,67.29 67.29,67.29 67.29,67.29 C67.29,67.29 67.29,-66.649 67.29,-66.649 C67.29,-66.649 -66.649,-66.649 -66.649,-66.649" fill-opacity="1"></path></clipPath><mask id="ly_3posupwQsm" mask-type="alpha"><g clip-path="url(#LTd97cgVDJ)" transform="matrix(1,0,0,1,74.68,74.68)" opacity="1" style="-webkit-user-select: none;"><g opacity="1" transform="matrix(0.9567100000000001,0,0,0.96134,0.668,0.42)"><path fill="rgb(255,255,255)" fill-opacity="1" d="M0 0 M0,-70 C38.632999999999996,-70 70,-38.632999999999996 70,0 C70,38.632999999999996 38.632999999999996,70 0,70 C-38.632999999999996,70 -70,38.632999999999996 -70,0 C-70,-38.632999999999996 -38.632999999999996,-70 0,-70z"></path><path stroke-linecap="butt" stroke-linejoin="miter" fill-opacity="0" stroke-miterlimit="4" stroke="rgb(1,173,253)" stroke-opacity="1" stroke-width="0" d="M0 0 M0,-70 C38.632999999999996,-70 70,-38.632999999999996 70,0 C70,38.632999999999996 38.632999999999996,70 0,70 C-38.632999999999996,70 -70,38.632999999999996 -70,0 C-70,-38.632999999999996 -38.632999999999996,-70 0,-70z"></path></g><g opacity="1" transform="matrix(0.9567100000000001,0,0,0.9567100000000001,0,0)"><path fill="rgb(255,255,255)" fill-opacity="1" d="M0 0 M0.32,-58.68"></path><path stroke-linecap="butt" stroke-linejoin="butt" fill-opacity="0" stroke-dasharray=" 18" stroke-dashoffset="14" stroke="rgb(1,173,253)" stroke-opacity="1" stroke-width="0" d="M0 0 M0.32,-58.68"></path></g></g></mask><clipPath id="LTd97cgVDJ"><path fill="#ffffff" clip-rule="nonzero" d=" M-66.649,-66.649 C-66.649,-66.649 -66.649,67.29 -66.649,67.29 C-66.649,67.29 67.29,67.29 67.29,67.29 C67.29,67.29 67.29,-66.649 67.29,-66.649 C67.29,-66.649 -66.649,-66.649 -66.649,-66.649" fill-opacity="1"></path></clipPath></defs><g clip-path="url(#animationMask_wouSwG1aBh)"><g transform="matrix(1,0,0,1,74.68,74.68)" opacity="1" style="-webkit-user-select: none;"><g opacity="1" transform="matrix(1,0,0,1,0.32,0.32)"><path fill="rgb(255,255,255)" fill-opacity="1" d="M0 0 M0,-70 C38.632999999999996,-70 70,-38.632999999999996 70,0 C70,38.632999999999996 38.632999999999996,70 0,70 C-38.632999999999996,70 -70,38.632999999999996 -70,0 C-70,-38.632999999999996 -38.632999999999996,-70 0,-70z"></path><path stroke-linecap="butt" stroke-linejoin="miter" fill-opacity="0" stroke-miterlimit="4" stroke="rgb(1,173,253)" stroke-opacity="1" stroke-width="6" d="M0 0 M0,-70 C38.632999999999996,-70 70,-38.632999999999996 70,0 C70,38.632999999999996 38.632999999999996,70 0,70 C-38.632999999999996,70 -70,38.632999999999996 -70,0 C-70,-38.632999999999996 -38.632999999999996,-70 0,-70z"></path></g><g opacity="1" transform="matrix(1,0,0,1,0,0)"><path fill="rgb(255,255,255)" fill-opacity="1" d="M0 0 M0.32,-58.68"></path><path stroke-linecap="butt" stroke-linejoin="butt" fill-opacity="0" stroke-dasharray=" 18" stroke-dashoffset="14" stroke="rgb(1,173,253)" stroke-opacity="1" stroke-width="6" d="M0 0 M0.32,-58.68"></path></g></g><g transform="matrix(1,0,0,1,74.016,75)" opacity="1" style="-webkit-user-select: none;"><g opacity="1" transform="matrix(1,0,0,1,0.984,-3.521)"><path fill="rgb(255,255,255)" fill-opacity="1" d="M0 0 M47.9845,-3.9795 C47.9845,-3.9795 47.9845,3.9795 47.9845,3.9795 C47.9845,10.6023 42.607299999999995,15.9795 35.9845,15.9795 C35.9845,15.9795 -35.9845,15.9795 -35.9845,15.9795 C-42.607299999999995,15.9795 -47.9845,10.6023 -47.9845,3.9795 C-47.9845,3.9795 -47.9845,-3.9795 -47.9845,-3.9795 C-47.9845,-10.6023 -42.607299999999995,-15.9795 -35.9845,-15.9795 C-35.9845,-15.9795 35.9845,-15.9795 35.9845,-15.9795 C42.607299999999995,-15.9795 47.9845,-10.6023 47.9845,-3.9795z"></path><path stroke-linecap="butt" stroke-linejoin="miter" fill-opacity="0" stroke-miterlimit="4" stroke="rgb(35,32,185)" stroke-opacity="1" stroke-width="6" d="M0 0 M47.9845,-3.9795 C47.9845,-3.9795 47.9845,3.9795 47.9845,3.9795 C47.9845,10.6023 42.607299999999995,15.9795 35.9845,15.9795 C35.9845,15.9795 -35.9845,15.9795 -35.9845,15.9795 C-42.607299999999995,15.9795 -47.9845,10.6023 -47.9845,3.9795 C-47.9845,3.9795 -47.9845,-3.9795 -47.9845,-3.9795 C-47.9845,-10.6023 -42.607299999999995,-15.9795 -35.9845,-15.9795 C-35.9845,-15.9795 35.9845,-15.9795 35.9845,-15.9795 C42.607299999999995,-15.9795 47.9845,-10.6023 47.9845,-3.9795z"></path></g><g opacity="1" transform="matrix(1,0,0,1,0,0)"><path fill="rgb(255,255,255)" fill-opacity="1" d=""></path><path stroke-linecap="butt" stroke-linejoin="miter" fill-opacity="0" stroke-miterlimit="4" stroke="rgb(35,32,185)" stroke-opacity="1" stroke-width="6" d=""></path></g></g><g mask="url(#ly_3posupwQsm)"><g transform="matrix(1,0,0,1,0,2)" opacity="1" style="-webkit-user-select: none;"><g opacity="1" transform="matrix(1,0,0,1,75,88.5)"><path fill="rgb(255,255,255)" fill-opacity="1" d="M0 0 M-33,-17.5 C-33,-17.5 33,-17.5 33,-17.5 C33,-17.5 33,17.5 33,17.5 C33,17.5 -33,17.5 -33,17.5 C-33,17.5 -33,-17.5 -33,-17.5z"></path></g><g opacity="1" transform="matrix(1,0,0,1,75,88.5)"><path fill="rgb(44,246,163)" fill-opacity="1" d="M0 0 M30,14.5 C30,14.5 -30,14.5 -30,14.5 C-30,14.5 -30,-14.5 -30,-14.5 C-30,-14.5 30,-14.5 30,-14.5 C30,-14.5 30,14.5 30,14.5zM0 0 M36,-20.5 C36,-20.5 -36,-20.5 -36,-20.5 C-36,-20.5 -36,20.5 -36,20.5 C-36,20.5 36,20.5 36,20.5 C36,20.5 36,-20.5 36,-20.5z"></path></g><g opacity="1" transform="matrix(1,0,0,1,74.991,88.7)"><path fill="rgb(44,246,163)" fill-opacity="1" d="M0 0 M-1.125,7.974 C-1.215,7.890000000000001 -1.26,7.782 -1.26,7.65 C-1.26,7.65 -1.26,6.39 -1.26,6.39 C-2.16,6.2829999999999995 -2.9250000000000003,6.0569999999999995 -3.555,5.715 C-4.1850000000000005,5.373 -4.659000000000001,4.9510000000000005 -4.977,4.447 C-5.295,3.942 -5.466,3.409 -5.49,2.844 C-5.49,2.7359999999999998 -5.4510000000000005,2.6460000000000004 -5.373,2.575 C-5.295,2.5020000000000002 -5.202,2.466 -5.094,2.466 C-5.094,2.466 -2.7,2.466 -2.7,2.466 C-2.544,2.466 -2.424,2.4909999999999997 -2.34,2.538 C-2.256,2.586 -2.16,2.67 -2.052,2.79 C-1.6800000000000002,3.451 -0.996,3.781 0,3.781 C0.648,3.781 1.149,3.681 1.502,3.483 C1.857,3.286 2.034,3.012 2.034,2.664 C2.034,2.412 1.941,2.205 1.754,2.043 C1.569,1.8810000000000002 1.2810000000000001,1.737 0.892,1.611 C0.501,1.4849999999999999 -0.07199999999999995,1.3439999999999999 -0.828,1.188 C-2.28,0.8999999999999999 -3.3660000000000005,0.46199999999999997 -4.086,-0.126 C-4.806,-0.714 -5.166,-1.553 -5.166,-2.646 C-5.166,-3.618 -4.818,-4.4430000000000005 -4.122,-5.121 C-3.426,-5.798 -2.472,-6.221 -1.26,-6.39 C-1.26,-6.39 -1.26,-7.65 -1.26,-7.65 C-1.26,-7.782 -1.215,-7.889 -1.125,-7.974 C-1.035,-8.057 -0.93,-8.1 -0.81,-8.1 C-0.81,-8.1 0.756,-8.1 0.756,-8.1 C0.888,-8.1 0.9960000000000001,-8.057 1.08,-7.974 C1.1640000000000001,-7.889 1.206,-7.782 1.206,-7.65 C1.206,-7.65 1.206,-6.354 1.206,-6.354 C1.998,-6.21 2.6820000000000004,-5.955 3.257,-5.589 C3.833,-5.222 4.275,-4.802 4.581,-4.329 C4.886,-3.8549999999999995 5.050999999999999,-3.396 5.076,-2.952 C5.076,-2.843 5.04,-2.7510000000000003 4.967,-2.672 C4.896,-2.5940000000000003 4.805000000000001,-2.556 4.698,-2.556 C4.698,-2.556 2.177,-2.556 2.177,-2.556 C1.9020000000000001,-2.556 1.698,-2.6639999999999997 1.566,-2.88 C1.494,-3.131 1.304,-3.3440000000000003 0.999,-3.519 C0.6930000000000001,-3.693 0.324,-3.78 -0.107,-3.78 C-0.612,-3.78 -1.002,-3.69 -1.278,-3.509 C-1.554,-3.33 -1.691,-3.066 -1.691,-2.717 C-1.691,-2.37 -1.512,-2.097 -1.151,-1.899 C-0.792,-1.701 -0.126,-1.5 0.846,-1.296 C1.9729999999999999,-1.091 2.8739999999999997,-0.837 3.545,-0.531 C4.217,-0.22500000000000003 4.7090000000000005,0.17100000000000004 5.022,0.658 C5.333,1.143 5.49,1.7579999999999998 5.49,2.502 C5.49,3.558 5.103,4.428 4.329,5.112 C3.554,5.796 2.513,6.2219999999999995 1.206,6.39 C1.206,6.39 1.206,7.65 1.206,7.65 C1.206,7.782 1.1640000000000001,7.890000000000001 1.08,7.974 C0.9960000000000001,8.058 0.888,8.1 0.756,8.1 C0.756,8.1 -0.81,8.1 -0.81,8.1 C-0.93,8.1 -1.035,8.058 -1.125,7.974z"></path></g></g></g></g></svg>